<?xml version="1.0" encoding="utf-8"?>
<!-- Generator: Adobe Illustrator 26.5.3, SVG Export Plug-In . SVG Version: 6.00 Build 0)  -->
<svg version="1.1" id="Layer_1" xmlns="http://www.w3.org/2000/svg" xmlns:xlink="http://www.w3.org/1999/xlink" x="0px" y="0px"
	 viewBox="0 0 1642.3 627" style="enable-background:new 0 0 1642.3 627;" xml:space="preserve">
<style type="text/css">
	.st0{fill:#FF0000;}
</style>
<g>
	<g>
		<path class="st0" d="M894.9,627h38l0,0c114-5.7,193.8-95,193.8-201.4c0-36.1-7.6-72.2-24.7-100.7H894.9V627z"/>
		<rect x="685.9" y="323" class="st0" width="190" height="304"/>
		<path class="st0" d="M1090.6,304c-19-26.6-45.6-47.5-74.1-62.7c34.2-24.7,57-64.6,57-108.3c0-74.1-58.9-133-133-133h-45.6v304
			H1090.6z"/>
		<rect x="685.9" class="st0" width="190" height="304"/>
		<path class="st0" d="M1407.9,627h38l0,0c114-5.7,193.8-95,193.8-201.4c0-36.1-7.6-72.2-24.7-100.7h-207.1V627z"/>
		<rect x="1198.9" y="323" class="st0" width="190" height="304"/>
		<path class="st0" d="M1603.6,304c-19-26.6-45.6-47.5-74.1-62.7c34.2-24.7,57-64.6,57-108.3c0-74.1-58.9-133-133-133h-45.6v304
			H1603.6z"/>
		<rect x="1198.9" class="st0" width="190" height="304"/>
		<polygon class="st0" points="110.2,323 1.9,627 159.6,627 205.2,494 305.9,494 305.9,323 		"/>
		<polygon class="st0" points="305.9,0 224.2,0 115.9,304 305.9,304 		"/>
		<polygon class="st0" points="324.9,494 425.6,494 471.2,627 628.9,627 520.6,323 324.9,323 		"/>
		<polygon class="st0" points="514.9,304 406.6,0 324.9,0 324.9,304 		"/>
	</g>
</g>
</svg>
