<?xml version="1.0" encoding="utf-8"?>
<!-- Generator: Adobe Illustrator 19.0.0, SVG Export Plug-In . SVG Version: 6.00 Build 0)  -->
<svg version="1.1" id="Layer_1" xmlns="http://www.w3.org/2000/svg" xmlns:xlink="http://www.w3.org/1999/xlink" x="0px" y="0px"
	 viewBox="-180 379.2 163.8 34.8" style="enable-background:new -180 379.2 163.8 34.8;" xml:space="preserve">
<style type="text/css">
	.st0{fill:#2999E8;}
	.st1{fill:#FFFFFF;}
</style>
<g>
	<path class="st0" d="M-168.5,379.9H-180v33.3h11.5c10-0.2,15.3-5.7,15.3-16.6S-158.5,380.2-168.5,379.9z M-170.1,410.5h-6.8v-27.9
		h6.8c9.6,0,13.7,4,13.7,13.9S-160.5,410.6-170.1,410.5z"/>
	<polygon class="st0" points="-117.4,410.5 -117.4,397.4 -98.9,397.4 -98.9,394.7 -117.4,394.7 -117.4,382.6 -97.6,382.6 
		-97.6,379.9 -120.6,379.9 -120.6,413.2 -97.4,413.2 -97.4,410.5 	"/>
	<path class="st0" d="M-133.3,395.6l-8.1-2c-2.7-0.7-5-2-5-5.1c0-4.9,4-6.6,8.3-6.6c4.7,0,8.9,2.6,9.1,7.6h3.2
		c0-6.8-5.7-10.3-12.3-10.3c-9.4,0-11.5,6.1-11.5,9.4c0,5.2,3.6,7,7.5,8l7.4,1.8c3.1,0.7,6.8,2.2,6.8,6c0,4.8-5.3,6.8-8.8,6.8
		c-6.1,0-11-2.1-10.9-8.9h-3.2c-0.4,8.1,5.4,11.6,13.3,11.6c11.8,0,12.7-7.2,12.7-9.5C-124.7,399-128.6,396.9-133.3,395.6z"/>
</g>
<path class="st1" d="M-63.1,413.3h-7.1l-2.8-7.6h-12.9l-2.7,7.6h-6.9l12.5-33.5h6.9L-63.1,413.3z M-75.1,400l-4.4-12.4l-4.3,12.4
	H-75.1z"/>
<path class="st1" d="M-49.9,389v5.1h-4.2v9.8c0,2,0,3.1,0.1,3.5s0.3,0.6,0.5,0.8c0.3,0.2,0.6,0.3,1,0.3c0.6,0,1.4-0.2,2.5-0.6l0.5,5
	c-1.4,0.6-3.1,1-4.9,1c-1.1,0-2.1-0.2-3-0.6c-0.9-0.4-1.5-0.9-2-1.5c-0.4-0.6-0.7-1.4-0.9-2.5c-0.1-0.7-0.2-2.3-0.2-4.5v-10.6h-2.8
	V389h2.8v-4.8l6.2-3.7v8.6L-49.9,389L-49.9,389z"/>
<path class="st1" d="M-48.7,406.4l6.2-1c0.3,1.2,0.8,2.2,1.6,2.8c0.8,0.6,1.9,1,3.4,1c1.6,0,2.8-0.3,3.6-0.9c0.5-0.4,0.8-1,0.8-1.7
	c0-0.5-0.1-0.9-0.4-1.2c-0.3-0.3-1-0.6-2.1-0.8c-5-1.1-8.1-2.2-9.5-3.1c-1.8-1.3-2.8-3.1-2.8-5.5c0-2.1,0.8-3.9,2.4-5.3
	c1.6-1.4,4.1-2.1,7.4-2.1c3.2,0,5.6,0.5,7.1,1.6c1.6,1.1,2.6,2.7,3.2,4.8l-5.8,1.1c-0.2-0.9-0.7-1.7-1.4-2.2c-0.7-0.5-1.7-0.8-3-0.8
	c-1.6,0-2.8,0.2-3.5,0.7c-0.5,0.3-0.7,0.8-0.7,1.3c0,0.5,0.2,0.8,0.6,1.2c0.6,0.4,2.5,1,5.8,1.8c3.3,0.8,5.6,1.7,6.9,2.9
	c1.3,1.1,1.9,2.7,1.9,4.8c0,2.2-0.9,4.1-2.7,5.7c-1.8,1.6-4.4,2.4-7.9,2.4c-3.2,0-5.7-0.7-7.5-2C-47,410.5-48.2,408.7-48.7,406.4z"
	/>
<g>
	<path class="st1" d="M-19.3,385.9c0-1.2-0.8-1.6-2.2-1.6h-2.1v5.5h1.1v-2.4h0.7l1.3,2.4h1.1l-1.5-2.4
		C-20,387.3-19.3,386.9-19.3,385.9z M-22.5,386.6v-1.5h0.9c0.5,0,1.1,0.1,1.1,0.7c0,0.7-0.5,0.8-1.1,0.8L-22.5,386.6L-22.5,386.6z"
		/>
	<path class="st1" d="M-21.6,382.1c-2.7,0-5.1,1.9-5.1,4.9c0,3,2.4,4.9,5.1,4.9c2.7,0,5.1-1.9,5.1-4.9
		C-16.6,384-18.9,382.1-21.6,382.1z M-21.6,390.9c-2.1,0-3.7-1.6-3.7-3.9c0-2.2,1.6-3.9,3.7-3.9c2,0,3.7,1.6,3.7,3.9
		C-17.9,389.3-19.6,390.9-21.6,390.9z"/>
</g>
</svg>
