<?xml version="1.0" encoding="utf-8"?>
<!-- Generator: Adobe Illustrator 26.5.1, SVG Export Plug-In . SVG Version: 6.00 Build 0)  -->
<svg version="1.1" id="Layer_1" xmlns="http://www.w3.org/2000/svg" xmlns:xlink="http://www.w3.org/1999/xlink" x="0px" y="0px"
	 viewBox="0 0 239.8 52" style="enable-background:new 0 0 239.8 52;" xml:space="preserve">
<style type="text/css">
	.st0{fill:#2999E8;}
	.st1{fill:#FFFFFF;}
</style>
<g>
	<path class="st0" d="M87.5,9.3H76v33.3h11.5c10-0.2,15.3-5.7,15.3-16.6S97.5,9.6,87.5,9.3z M85.9,39.9h-6.8V12h6.8
		c9.6,0,13.7,4,13.7,13.9S95.5,40,85.9,39.9z"/>
	<polygon class="st0" points="138.6,39.9 138.6,26.8 157.1,26.8 157.1,24.1 138.6,24.1 138.6,12 158.4,12 158.4,9.3 135.4,9.3 
		135.4,42.6 158.6,42.6 158.6,39.9 	"/>
	<path class="st0" d="M122.7,25l-8.1-2c-2.7-0.7-5-2-5-5.1c0-4.9,4-6.6,8.3-6.6c4.7,0,8.9,2.6,9.1,7.6h3.2c0-6.8-5.7-10.3-12.3-10.3
		c-9.4,0-11.5,6.1-11.5,9.4c0,5.2,3.6,7,7.5,8l7.4,1.8c3.1,0.7,6.8,2.2,6.8,6c0,4.8-5.3,6.8-8.8,6.8c-6.1,0-11-2.1-10.9-8.9h-3.2
		c-0.4,8.1,5.4,11.6,13.3,11.6c11.8,0,12.7-7.2,12.7-9.5C131.3,28.4,127.4,26.3,122.7,25z"/>
</g>
<path class="st1" d="M192.9,42.7h-7.1l-2.8-7.6h-12.9l-2.7,7.6h-6.9L173,9.2h6.9L192.9,42.7z M180.9,29.4L176.5,17l-4.3,12.4H180.9z
	"/>
<path class="st1" d="M206.1,18.4v5.1h-4.2v9.8c0,2,0,3.1,0.1,3.5c0.1,0.4,0.3,0.6,0.5,0.8c0.3,0.2,0.6,0.3,1,0.3
	c0.6,0,1.4-0.2,2.5-0.6l0.5,5c-1.4,0.6-3.1,1-4.9,1c-1.1,0-2.1-0.2-3-0.6c-0.9-0.4-1.5-0.9-2-1.5c-0.4-0.6-0.7-1.4-0.9-2.5
	c-0.1-0.7-0.2-2.3-0.2-4.5V23.6h-2.8v-5.2h2.8v-4.8l6.2-3.7v8.6L206.1,18.4L206.1,18.4z"/>
<path class="st1" d="M207.3,35.8l6.2-1c0.3,1.2,0.8,2.2,1.6,2.8c0.8,0.6,1.9,1,3.4,1c1.6,0,2.8-0.3,3.6-0.9c0.5-0.4,0.8-1,0.8-1.7
	c0-0.5-0.1-0.9-0.4-1.2c-0.3-0.3-1-0.6-2.1-0.8c-5-1.1-8.1-2.2-9.5-3.1c-1.8-1.3-2.8-3.1-2.8-5.5c0-2.1,0.8-3.9,2.4-5.3
	s4.1-2.1,7.4-2.1c3.2,0,5.6,0.5,7.1,1.6c1.6,1.1,2.6,2.7,3.2,4.8l-5.8,1.1c-0.2-0.9-0.7-1.7-1.4-2.2s-1.7-0.8-3-0.8
	c-1.6,0-2.8,0.2-3.5,0.7c-0.5,0.3-0.7,0.8-0.7,1.3s0.2,0.8,0.6,1.2c0.6,0.4,2.5,1,5.8,1.8s5.6,1.7,6.9,2.9c1.3,1.1,1.9,2.7,1.9,4.8
	c0,2.2-0.9,4.1-2.7,5.7s-4.4,2.4-7.9,2.4c-3.2,0-5.7-0.7-7.5-2C209,39.9,207.8,38.1,207.3,35.8z"/>
<g>
	<path class="st1" d="M236.7,15.3c0-1.2-0.8-1.6-2.2-1.6h-2.1v5.5h1.1v-2.4h0.7l1.3,2.4h1.1l-1.5-2.4
		C236,16.7,236.7,16.3,236.7,15.3z M233.5,16v-1.5h0.9c0.5,0,1.1,0.1,1.1,0.7c0,0.7-0.5,0.8-1.1,0.8H233.5L233.5,16z"/>
	<path class="st1" d="M234.4,11.5c-2.7,0-5.1,1.9-5.1,4.9s2.4,4.9,5.1,4.9c2.7,0,5.1-1.9,5.1-4.9C239.4,13.4,237.1,11.5,234.4,11.5z
		 M234.4,20.3c-2.1,0-3.7-1.6-3.7-3.9c0-2.2,1.6-3.9,3.7-3.9c2,0,3.7,1.6,3.7,3.9S236.4,20.3,234.4,20.3z"/>
</g>
<path class="st0" d="M24.2,12h18c1.1,0,2.1-0.9,2.1-2V2.4h-2.1l-1.3,1.5l17.9,15.7L60,18l-1.3-1.6L40.6,32.2l1.3,1.6H44v-7.6
	c0-1.1-0.9-2.1-2.1-2.1H20.1v2.1h2.1V18c0-0.8-0.5-1.5-1.2-1.9c-0.7-0.3-1.6-0.2-2.2,0.4L0.7,33c-0.4,0.4-0.7,1-0.7,1.5
	c0,0.6,0.3,1.1,0.7,1.5l17.9,15.5c0.6,0.5,1.5,0.6,2.2,0.3c0.7-0.3,1.2-1.1,1.2-1.9v-7.1H20v2.1h18.1c1.1,0,2.1-0.9,2.1-2.1
	c0-1.1-0.9-2-2.1-2H20c-1.1,0-2.1,0.9-2.1,2v7.1H20l1.3-1.6L3.4,32.9l-1.3,1.6L3.4,36l18-16.4L20.1,18H18v8.1c0,1.1,0.9,2.1,2.1,2.1
	h21.8v-2.1h-2.1v7.6c0,0.8,0.5,1.5,1.2,1.9c0.7,0.3,1.6,0.2,2.2-0.3l18.1-15.7c0.4-0.4,0.7-1,0.7-1.5c0-0.6-0.3-1.2-0.7-1.5
	L43.5,0.8c-0.6-0.5-1.5-0.7-2.2-0.3c-0.7,0.3-1.2,1.1-1.2,1.9V10h2V7.9h-18c-1.1,0-2.1,0.9-2.1,2.1C22.1,11.1,23,12,24.2,12"/>
</svg>
