<?xml version="1.0" encoding="utf-8"?>
<!-- Generator: Adobe Illustrator 26.5.3, SVG Export Plug-In . SVG Version: 6.00 Build 0)  -->
<svg version="1.1" id="Layer_1" xmlns="http://www.w3.org/2000/svg" xmlns:xlink="http://www.w3.org/1999/xlink" x="0px" y="0px"
	 viewBox="0 0 163.4 34.8" style="enable-background:new 0 0 163.4 34.8;" xml:space="preserve">
<style type="text/css">
	.st0{fill:#2999E8;}
	.st1{fill:#333333;}
</style>
<g>
	<path class="st0" d="M11.5,0.8H0v33.3h11.5c10-0.2,15.3-5.7,15.3-16.6S21.5,1,11.5,0.8z M9.9,31.4H3.2V3.5h6.8
		c9.6,0,13.7,4,13.7,13.9S19.5,31.4,9.9,31.4z"/>
	<polygon class="st0" points="62.6,31.4 62.6,18.2 81.1,18.2 81.1,15.5 62.6,15.5 62.6,3.5 82.4,3.5 82.4,0.8 59.4,0.8 59.4,34.1 
		82.6,34.1 82.6,31.4 	"/>
	<path class="st0" d="M46.7,16.5l-8.1-2c-2.7-0.7-5-2-5-5.1c0-4.9,4-6.6,8.3-6.6c4.7,0,8.9,2.6,9.1,7.6h3.2
		c0-6.8-5.7-10.3-12.3-10.3c-9.4,0-11.5,6.1-11.5,9.4c0,5.2,3.6,7,7.5,8l7.4,1.8c3.1,0.7,6.8,2.2,6.8,6c0,4.8-5.3,6.8-8.8,6.8
		c-6.1,0-11-2.1-10.9-8.9h-3.2c-0.4,8.1,5.4,11.6,13.3,11.6c11.8,0,12.7-7.2,12.7-9.5C55.3,19.8,51.4,17.7,46.7,16.5z"/>
</g>
<path class="st1" d="M116.9,34.1h-7.1l-2.8-7.6H94.1l-2.7,7.6h-6.9L97.1,0.7h6.9L116.9,34.1z M104.9,20.9l-4.4-12.4l-4.3,12.4H104.9
	z"/>
<path class="st1" d="M130.1,9.9V15h-4.2v9.8c0,2,0,3.1,0.1,3.5c0.1,0.3,0.3,0.6,0.5,0.8c0.3,0.2,0.6,0.3,1,0.3
	c0.6,0,1.4-0.2,2.5-0.6l0.5,5c-1.4,0.6-3.1,1-4.9,1c-1.1,0-2.1-0.2-3-0.6c-0.9-0.4-1.5-0.9-2-1.5c-0.4-0.6-0.7-1.5-0.9-2.5
	c-0.1-0.7-0.2-2.3-0.2-4.5V15h-2.8V9.9h2.8V5.1l6.2-3.7v8.6L130.1,9.9L130.1,9.9z"/>
<path class="st1" d="M131.3,27.2l6.2-1c0.3,1.2,0.8,2.2,1.6,2.8c0.8,0.6,1.9,1,3.4,1c1.6,0,2.8-0.3,3.6-0.9c0.5-0.4,0.8-1,0.8-1.7
	c0-0.5-0.1-0.9-0.4-1.2c-0.3-0.3-1-0.6-2.1-0.8c-5-1.1-8.1-2.2-9.5-3.1c-1.8-1.3-2.8-3.1-2.8-5.5c0-2.1,0.8-3.9,2.4-5.3
	c1.6-1.4,4.1-2.1,7.4-2.1c3.2,0,5.6,0.5,7.1,1.6s2.6,2.7,3.2,4.8l-5.8,1.1c-0.2-0.9-0.7-1.7-1.4-2.2s-1.7-0.8-3-0.8
	c-1.6,0-2.8,0.2-3.5,0.7c-0.5,0.3-0.7,0.8-0.7,1.3c0,0.5,0.2,0.8,0.6,1.2c0.6,0.4,2.5,1,5.8,1.8c3.3,0.8,5.6,1.7,6.9,2.9
	c1.3,1.1,1.9,2.7,1.9,4.8c0,2.2-0.9,4.1-2.7,5.7c-1.8,1.6-4.4,2.4-7.9,2.4c-3.2,0-5.7-0.7-7.5-2C133,31.3,131.8,29.5,131.3,27.2z"/>
<g>
	<path class="st1" d="M160.7,6.7c0-1.2-0.8-1.6-2.2-1.6h-2.1v5.5h1.1V8.3h0.7l1.3,2.4h1.1l-1.5-2.4C160,8.1,160.7,7.7,160.7,6.7z
		 M157.5,7.4V5.9h0.9c0.5,0,1.1,0.1,1.1,0.7c0,0.7-0.5,0.8-1.1,0.8L157.5,7.4L157.5,7.4z"/>
	<path class="st1" d="M158.4,2.9c-2.7,0-5.1,1.9-5.1,4.9c0,3,2.4,4.9,5.1,4.9c2.7,0,5.1-1.9,5.1-4.9C163.4,4.9,161.1,2.9,158.4,2.9z
		 M158.4,11.8c-2.1,0-3.7-1.6-3.7-3.9c0-2.2,1.6-3.9,3.7-3.9c2,0,3.7,1.6,3.7,3.9C162.1,10.1,160.4,11.8,158.4,11.8z"/>
</g>
</svg>
