<?xml version="1.0" encoding="utf-8"?>
<!-- Generator: Adobe Illustrator 16.0.3, SVG Export Plug-In . SVG Version: 6.00 Build 0)  -->
<!DOCTYPE svg PUBLIC "-//W3C//DTD SVG 1.1//EN" "http://www.w3.org/Graphics/SVG/1.1/DTD/svg11.dtd">
<svg version="1.1" id="Layer_1" xmlns="http://www.w3.org/2000/svg" xmlns:xlink="http://www.w3.org/1999/xlink" x="0px" y="0px"
	 width="249.445px" height="34.844px" viewBox="0 0 249.445 34.844" enable-background="new 0 0 249.445 34.844"
	 xml:space="preserve">
<g>
	<path fill="#2999E8" d="M11.506,0.792H0v33.26h11.506c10.016-0.233,15.28-5.729,15.28-16.63S21.521,1.024,11.506,0.792z
		 M9.923,31.351H3.167V3.493h6.755C19.472,3.446,23.618,7.5,23.618,17.422S19.472,31.396,9.923,31.351z"/>
	<polygon fill="#2999E8" points="62.561,31.351 62.561,18.214 81.101,18.214 81.101,15.512 62.561,15.512 62.561,3.493 
		82.358,3.493 82.358,0.792 59.393,0.792 59.393,34.052 82.591,34.052 82.591,31.351 	"/>
	<path fill="#2999E8" d="M46.676,16.49l-8.105-2.003c-2.702-0.652-5.031-1.957-5.031-5.078c0-4.938,4.006-6.614,8.338-6.614
		c4.705,0,8.898,2.562,9.084,7.64h3.168C54.176,3.634,48.4,0.093,41.832,0.093c-9.363,0-11.46,6.103-11.46,9.364
		c0,5.17,3.587,7.033,7.5,8.012l7.407,1.816c3.074,0.745,6.847,2.236,6.847,6.01c0,4.844-5.31,6.754-8.804,6.754
		c-6.055,0-10.993-2.097-10.853-8.944h-3.168c-0.373,8.106,5.403,11.646,13.276,11.646c11.785,0,12.717-7.221,12.717-9.504
		C55.293,19.798,51.381,17.747,46.676,16.49z"/>
</g>
<path fill="#333333" d="M116.851,34.138h-7.071l-2.811-7.604H94.1l-2.657,7.604h-6.896l12.54-33.479h6.874L116.851,34.138z
	 M104.882,20.893l-4.436-12.423l-4.348,12.423H104.882z"/>
<path fill="#333333" d="M130.05,9.885V15h-4.216v9.774c0,1.979,0.04,3.133,0.121,3.46c0.081,0.327,0.264,0.598,0.549,0.811
	c0.286,0.214,0.634,0.32,1.044,0.32c0.57,0,1.397-0.206,2.481-0.617l0.526,4.979c-1.435,0.64-3.06,0.959-4.875,0.959
	c-1.113,0-2.116-0.194-3.008-0.582c-0.894-0.389-1.548-0.891-1.966-1.507c-0.417-0.617-0.707-1.45-0.867-2.501
	c-0.132-0.746-0.198-2.253-0.198-4.521V15h-2.833V9.885h2.833V5.066l6.193-3.745v8.563H130.05z"/>
<path fill="#333333" d="M131.258,27.218l6.193-0.981c0.264,1.248,0.798,2.196,1.603,2.843c0.806,0.647,1.933,0.971,3.383,0.971
	c1.595,0,2.796-0.305,3.602-0.913c0.541-0.427,0.813-0.997,0.813-1.713c0-0.487-0.146-0.891-0.439-1.211
	c-0.308-0.304-0.996-0.586-2.064-0.845c-4.978-1.142-8.133-2.185-9.465-3.129c-1.845-1.309-2.768-3.129-2.768-5.458
	c0-2.101,0.798-3.867,2.395-5.298c1.595-1.431,4.069-2.146,7.422-2.146c3.191,0,5.563,0.541,7.115,1.622s2.621,2.68,3.206,4.795
	l-5.819,1.119c-0.249-0.944-0.721-1.667-1.416-2.169s-1.688-0.754-2.976-0.754c-1.625,0-2.789,0.236-3.492,0.708
	c-0.469,0.335-0.702,0.769-0.702,1.302c0,0.457,0.204,0.845,0.614,1.165c0.557,0.427,2.479,1.028,5.765,1.805
	c3.287,0.776,5.582,1.728,6.885,2.854c1.288,1.142,1.933,2.732,1.933,4.772c0,2.224-0.894,4.134-2.679,5.732
	c-1.787,1.599-4.43,2.397-7.928,2.397c-3.178,0-5.692-0.67-7.544-2.01C133.04,31.337,131.829,29.518,131.258,27.218z"/>
<g>
	<path fill="#333333" d="M160.662,6.729c0-1.2-0.777-1.635-2.162-1.635h-2.082v5.526h1.092V8.258h0.687l1.347,2.362h1.146
		l-1.477-2.415C160.03,8.14,160.662,7.745,160.662,6.729z M157.51,7.402V5.95h0.924c0.502,0,1.136,0.092,1.136,0.686
		c0,0.674-0.462,0.767-1.082,0.767H157.51z"/>
	<path fill="#333333" d="M158.381,2.944c-2.677,0-5.063,1.925-5.063,4.919c0,3.008,2.387,4.945,5.063,4.945
		c2.678,0,5.064-1.938,5.064-4.945C163.445,4.869,161.059,2.944,158.381,2.944z M158.381,11.755c-2.069,0-3.72-1.636-3.72-3.892
		c0-2.242,1.65-3.865,3.72-3.865c2.045,0,3.722,1.623,3.722,3.865C162.103,10.119,160.426,11.755,158.381,11.755z"/>
</g>
</svg>
