<?xml version="1.0" encoding="utf-8"?>
<!-- Generator: Adobe Illustrator 26.5.1, SVG Export Plug-In . SVG Version: 6.00 Build 0)  -->
<svg version="1.1" id="Layer_1" xmlns="http://www.w3.org/2000/svg" xmlns:xlink="http://www.w3.org/1999/xlink" x="0px" y="0px"
	 viewBox="0 0 319.8 52" style="enable-background:new 0 0 319.8 52;" xml:space="preserve">
<style type="text/css">
	.st0{fill:#9E248F;}
	.st1{fill:#FFFFFF;}
</style>
<g>
	<g>
		<path class="st0" d="M76.6,9.3H65.1v33.3h11.5c10-0.2,15.3-5.7,15.3-16.6S86.6,9.6,76.6,9.3z M75,39.9h-6.7V12.1h6.8
			c9.6,0,13.7,4,13.7,13.9S84.6,39.9,75,39.9z"/>
		<polygon class="st0" points="127.7,39.9 127.7,26.8 146.2,26.8 146.2,24.1 127.7,24.1 127.7,12.1 147.5,12.1 147.5,9.3 124.5,9.3 
			124.5,42.7 147.7,42.7 147.7,39.9 		"/>
		<path class="st0" d="M111.8,25.1l-8.1-2c-2.7-0.7-5-2-5-5.1c0-4.9,4-6.6,8.3-6.6c4.7,0,8.9,2.6,9.1,7.6h3.2
			c0-6.8-5.7-10.3-12.3-10.3c-9.4,0-11.5,6.1-11.5,9.4c0,5.2,3.6,7,7.5,8l7.4,1.8c3.1,0.7,6.8,2.2,6.8,6c0,4.8-5.3,6.8-8.8,6.8
			c-6.1,0-11-2.1-10.9-8.9h-3.2c-0.4,8.1,5.4,11.6,13.3,11.6c11.8,0,12.7-7.2,12.7-9.5C120.4,28.3,116.5,26.3,111.8,25.1z"/>
	</g>
	<g>
		<path class="st1" d="M315.7,15.3c0-1.2-0.8-1.6-2.2-1.6h-2.1v5.5h1.1v-2.3h0.7l1.3,2.4h1.1l-1.5-2.4
			C315,16.8,315.7,16.3,315.7,15.3z M312.5,16.1v-1.5h0.9c0.5,0,1.1,0.1,1.1,0.7c0,0.7-0.5,0.8-1.1,0.8H312.5L312.5,16.1z"/>
		<path class="st1" d="M313.4,11.6c-2.7,0-5.1,1.9-5.1,4.9s2.4,4.9,5.1,4.9c2.7,0,5.1-1.9,5.1-4.9C318.4,13.6,316.1,11.6,313.4,11.6
			z M313.4,20.4c-2.1,0-3.7-1.6-3.7-3.9c0-2.2,1.6-3.9,3.7-3.9c2,0,3.7,1.6,3.7,3.9C317.1,18.8,315.4,20.4,313.4,20.4z"/>
	</g>
	<g>
		<path class="st1" d="M172.2,30.3l6.5,2c-1,3.6-2.7,6.2-5,8c-2.3,1.7-5.3,2.6-8.8,2.6c-4.4,0-8-1.5-10.9-4.5c-2.8-3-4.3-7-4.3-12.2
			c0-5.4,1.4-9.7,4.3-12.7c2.9-3,6.6-4.5,11.2-4.5c4.1,0,7.4,1.2,9.9,3.6c1.5,1.4,2.6,3.4,3.4,6l-6.6,1.6c-0.4-1.7-1.2-3-2.5-4
			c-1.2-1-2.8-1.5-4.5-1.5c-2.5,0-4.5,0.9-6,2.6s-2.3,4.6-2.3,8.5c0,4.1,0.8,7.1,2.3,8.8c1.5,1.8,3.5,2.6,5.9,2.6
			c1.8,0,3.3-0.6,4.6-1.7C170.8,34.3,171.7,32.7,172.2,30.3z"/>
		<path class="st1" d="M182,30.1c0-2.1,0.5-4.1,1.6-6.1c1-1.9,2.5-3.4,4.4-4.5c1.9-1,4-1.5,6.4-1.5c3.6,0,6.6,1.2,8.9,3.5
			s3.5,5.3,3.5,8.8c0,3.6-1.2,6.6-3.5,8.9c-2.3,2.4-5.3,3.5-8.9,3.5c-2.2,0-4.3-0.5-6.3-1.5s-3.5-2.4-4.6-4.3
			C182.6,35.2,182,32.8,182,30.1z M188.6,30.4c0,2.4,0.6,4.2,1.7,5.4c1.1,1.3,2.5,1.9,4.2,1.9c1.7,0,3.1-0.6,4.2-1.9
			c1.1-1.3,1.7-3.1,1.7-5.4s-0.6-4.1-1.7-5.4c-1.1-1.3-2.5-1.9-4.2-1.9c-1.7,0-3.1,0.6-4.2,1.9C189.1,26.3,188.6,28.1,188.6,30.4z"
			/>
		<path class="st1" d="M232.8,42.3h-6.4V30.2c0-2.6-0.1-4.2-0.4-5c-0.3-0.8-0.7-1.3-1.3-1.8c-0.6-0.4-1.3-0.6-2.2-0.6
			c-1.1,0-2.1,0.3-3,0.9c-0.9,0.6-1.5,1.4-1.8,2.4c-0.3,1-0.5,2.8-0.5,5.4v10.7h-6.4V18.6h5.9v3.5c2.1-2.7,4.7-4,7.9-4
			c1.4,0,2.7,0.3,3.8,0.7c1.2,0.5,2,1.1,2.6,1.9c0.6,0.8,1,1.7,1.2,2.6c0.2,1,0.4,2.4,0.4,4.2L232.8,42.3L232.8,42.3z"/>
		<path class="st1" d="M249.4,18.6v5h-4.3v9.6c0,1.9,0,3.1,0.1,3.4c0.1,0.3,0.3,0.6,0.6,0.8c0.3,0.2,0.7,0.3,1.1,0.3
			c0.6,0,1.4-0.2,2.6-0.6l0.5,4.9c-1.5,0.6-3.2,0.9-5,0.9c-1.1,0-2.2-0.2-3.1-0.6c-0.9-0.4-1.6-0.9-2-1.5c-0.4-0.6-0.7-1.4-0.9-2.4
			c-0.1-0.7-0.2-2.2-0.2-4.4V23.6h-2.9v-5h2.9v-4.7l6.4-3.7v8.4L249.4,18.6L249.4,18.6z"/>
		<path class="st1" d="M259,42.3h-6.4V18.6h5.9v3.4c1-1.6,1.9-2.6,2.7-3.1c0.8-0.5,1.7-0.8,2.7-0.8c1.4,0,2.8,0.4,4.2,1.2l-2,5.5
			c-1.1-0.7-2.1-1-3-1s-1.6,0.2-2.3,0.7c-0.6,0.5-1.1,1.4-1.5,2.6c-0.4,1.3-0.5,3.9-0.5,8L259,42.3L259,42.3z"/>
		<path class="st1" d="M268.5,30.1c0-2.1,0.5-4.1,1.6-6.1c1-1.9,2.5-3.4,4.4-4.5c1.9-1,4-1.5,6.4-1.5c3.6,0,6.6,1.2,8.9,3.5
			c2.3,2.3,3.5,5.3,3.5,8.8c0,3.6-1.2,6.6-3.5,8.9c-2.3,2.4-5.3,3.5-8.9,3.5c-2.2,0-4.3-0.5-6.3-1.5s-3.5-2.4-4.6-4.3
			C269,35.2,268.5,32.8,268.5,30.1z M275,30.4c0,2.4,0.6,4.2,1.7,5.4c1.1,1.3,2.5,1.9,4.2,1.9c1.7,0,3.1-0.6,4.2-1.9
			s1.7-3.1,1.7-5.4s-0.6-4.1-1.7-5.4s-2.5-1.9-4.2-1.9c-1.7,0-3.1,0.6-4.2,1.9C275.6,26.3,275,28.1,275,30.4z"/>
		<path class="st1" d="M297.4,42.3V9.6h6.4v32.7H297.4z"/>
	</g>
</g>
<path class="st0" d="M51.2,18.8L44.6,7.2c-0.3-0.5-0.7-0.9-1.3-1c-0.5-0.1-1.1-0.1-1.6,0.2l-4.8,2.8c-0.8-0.5-1.6-1-2.4-1.4V2.1
	c0-1.2-1-2.1-2.1-2.1H19.1C17.9,0,17,1,17,2.1v5.7c-0.8,0.4-1.7,0.9-2.4,1.4L9.8,6.4C9.3,6.1,8.7,6,8.2,6.2c-0.5,0.1-1,0.5-1.3,1
	L0.3,18.8c-0.6,1-0.2,2.3,0.8,2.9l4.8,2.8c0,0.5-0.1,1-0.1,1.5c0,0.5,0,1,0.1,1.5L1,30.3c-1,0.6-1.3,1.9-0.8,2.9l6.6,11.7
	c0.3,0.5,0.7,0.9,1.3,1c0.5,0.1,1.1,0.1,1.6-0.2l4.8-2.8c0.8,0.5,1.6,1,2.4,1.4v5.7c0,1.2,1,2.1,2.1,2.1h13.2c1.2,0,2.1-1,2.1-2.1
	v-5.7c0.8-0.4,1.7-0.9,2.4-1.4l4.8,2.8c0.5,0.3,1.1,0.4,1.6,0.2c0.5-0.1,1-0.5,1.3-1l6.6-11.7c0.6-1,0.2-2.3-0.8-2.9l-4.8-2.8
	c0-0.5,0.1-1,0.1-1.5c0-0.5,0-1-0.1-1.5l4.8-2.8C51.4,21.1,51.7,19.8,51.2,18.8 M46.4,19.1l-4.2,2.5c-0.7,0.4-1.1,1.3-1,2.1
	c0.1,0.9,0.2,1.6,0.2,2.3c0,0.7-0.1,1.4-0.2,2.3c-0.1,0.9,0.3,1.7,1,2.1l4.2,2.5l-4.5,8l-4.1-2.4C37,38,36.1,38,35.4,38.6
	c-1.2,1-2.5,1.7-3.9,2.3c-0.8,0.3-1.3,1.1-1.3,2v4.9h-9v-4.9c0-0.9-0.5-1.6-1.3-2c-1.4-0.6-2.7-1.3-3.9-2.3
	c-0.7-0.6-1.6-0.6-2.4-0.2l-4.1,2.4l-4.5-8l4.2-2.5c0.7-0.4,1.1-1.3,1-2.1C10.1,27.4,10,26.7,10,26c0-0.7,0.1-1.4,0.2-2.3
	c0.1-0.9-0.3-1.7-1-2.1L5,19.1l4.5-8l4.1,2.4c0.8,0.4,1.7,0.4,2.4-0.2c1.2-1,2.5-1.7,3.9-2.3c0.8-0.3,1.3-1.1,1.3-2V4.2h9v4.9
	c0,0.9,0.5,1.6,1.3,2c1.4,0.6,2.7,1.3,3.9,2.3c0.7,0.6,1.6,0.6,2.4,0.2l4.1-2.4L46.4,19.1z M35.1,26c0-5.2-4.2-9.4-9.4-9.4
	c-5.2,0-9.4,4.2-9.4,9.4c0,5.2,4.2,9.4,9.4,9.4C30.9,35.4,35.1,31.2,35.1,26 M30.8,26c0,2.8-2.3,5.1-5.1,5.1c-2.8,0-5.1-2.3-5.1-5.1
	c0-2.8,2.3-5.1,5.1-5.1C28.5,20.9,30.8,23.2,30.8,26"/>
</svg>
