<?xml version="1.0" encoding="utf-8"?>
<!-- Generator: Adobe Illustrator 19.0.0, SVG Export Plug-In . SVG Version: 6.00 Build 0)  -->
<svg version="1.1" id="Layer_1" xmlns="http://www.w3.org/2000/svg" xmlns:xlink="http://www.w3.org/1999/xlink" x="0px" y="0px"
	 viewBox="-155 376 254.7 42" style="enable-background:new -155 376 254.7 42;" xml:space="preserve">
<style type="text/css">
	.st0{fill:#9E248F;}
	.st1{fill:#FFFFFF;}
</style>
<g>
	<path class="st0" d="M-143.5,376.8H-155v33.3h11.5c10-0.2,15.3-5.7,15.3-16.6S-133.5,377-143.5,376.8z M-145.1,407.4h-6.7v-27.9
		h6.8c9.6,0,13.7,4,13.7,13.9S-135.5,407.4-145.1,407.4z"/>
	<polygon class="st0" points="-92.4,407.4 -92.4,394.2 -73.9,394.2 -73.9,391.5 -92.4,391.5 -92.4,379.5 -72.6,379.5 -72.6,376.8 
		-95.6,376.8 -95.6,410.1 -72.4,410.1 -72.4,407.4 	"/>
	<path class="st0" d="M-108.3,392.5l-8.1-2c-2.7-0.7-5-2-5-5.1c0-4.9,4-6.6,8.3-6.6c4.7,0,8.9,2.6,9.1,7.6h3.2
		c0-6.8-5.7-10.3-12.3-10.3c-9.4,0-11.5,6.1-11.5,9.4c0,5.2,3.6,7,7.5,8l7.4,1.8c3.1,0.7,6.8,2.2,6.8,6c0,4.8-5.3,6.8-8.8,6.8
		c-6.1,0-11-2.1-10.9-8.9h-3.2c-0.4,8.1,5.4,11.6,13.3,11.6c11.8,0,12.7-7.2,12.7-9.5C-99.7,395.8-103.6,393.7-108.3,392.5z"/>
</g>
<g>
	<path class="st1" d="M95.6,382.8c0-1.2-0.8-1.6-2.2-1.6h-2.1v5.5h1.1v-2.3h0.7l1.3,2.4h1.1l-1.5-2.4
		C94.9,384.2,95.6,383.8,95.6,382.8z M92.4,383.5V382h0.9c0.5,0,1.1,0.1,1.1,0.7c0,0.7-0.5,0.8-1.1,0.8H92.4L92.4,383.5z"/>
	<path class="st1" d="M93.3,379c-2.7,0-5.1,1.9-5.1,4.9s2.4,4.9,5.1,4.9c2.7,0,5.1-1.9,5.1-4.9C98.3,381,96,379,93.3,379z
		 M93.3,387.9c-2.1,0-3.7-1.6-3.7-3.9c0-2.2,1.6-3.9,3.7-3.9c2,0,3.7,1.6,3.7,3.9C97,386.2,95.3,387.9,93.3,387.9z"/>
</g>
<g>
	<path class="st1" d="M-47.9,397.7l6.5,2c-1,3.6-2.7,6.2-5,8c-2.3,1.7-5.3,2.6-8.8,2.6c-4.4,0-8-1.5-10.9-4.5c-2.8-3-4.3-7-4.3-12.2
		c0-5.4,1.4-9.7,4.3-12.7s6.6-4.5,11.2-4.5c4.1,0,7.4,1.2,9.9,3.6c1.5,1.4,2.6,3.4,3.4,6l-6.6,1.6c-0.4-1.7-1.2-3-2.5-4
		c-1.2-1-2.8-1.5-4.5-1.5c-2.5,0-4.5,0.9-6,2.6c-1.5,1.7-2.3,4.6-2.3,8.5c0,4.1,0.8,7.1,2.3,8.8c1.5,1.8,3.5,2.6,5.9,2.6
		c1.8,0,3.3-0.6,4.6-1.7C-49.3,401.8-48.4,400.1-47.9,397.7z"/>
	<path class="st1" d="M-38.1,397.5c0-2.1,0.5-4.1,1.6-6.1c1-1.9,2.5-3.4,4.4-4.5c1.9-1,4-1.5,6.4-1.5c3.6,0,6.6,1.2,8.9,3.5
		c2.3,2.3,3.5,5.3,3.5,8.8c0,3.6-1.2,6.6-3.5,8.9c-2.3,2.4-5.3,3.5-8.9,3.5c-2.2,0-4.3-0.5-6.3-1.5s-3.5-2.4-4.6-4.3
		C-37.5,402.6-38.1,400.3-38.1,397.5z M-31.5,397.9c0,2.4,0.6,4.2,1.7,5.4c1.1,1.3,2.5,1.9,4.2,1.9s3.1-0.6,4.2-1.9
		c1.1-1.3,1.7-3.1,1.7-5.4c0-2.3-0.6-4.1-1.7-5.4c-1.1-1.3-2.5-1.9-4.2-1.9s-3.1,0.6-4.2,1.9C-31,393.7-31.5,395.5-31.5,397.9z"/>
	<path class="st1" d="M12.7,409.7H6.3v-12.1c0-2.6-0.1-4.2-0.4-5c-0.3-0.8-0.7-1.3-1.3-1.8c-0.6-0.4-1.3-0.6-2.2-0.6
		c-1.1,0-2.1,0.3-3,0.9s-1.5,1.4-1.8,2.4s-0.5,2.8-0.5,5.4v10.7h-6.4V386h5.9v3.5c2.1-2.7,4.7-4,7.9-4c1.4,0,2.7,0.3,3.8,0.7
		c1.2,0.5,2,1.1,2.6,1.9c0.6,0.8,1,1.7,1.2,2.6c0.2,1,0.4,2.4,0.4,4.2L12.7,409.7L12.7,409.7z"/>
	<path class="st1" d="M29.3,386v5H25v9.6c0,1.9,0,3.1,0.1,3.4s0.3,0.6,0.6,0.8c0.3,0.2,0.7,0.3,1.1,0.3c0.6,0,1.4-0.2,2.6-0.6
		l0.5,4.9c-1.5,0.6-3.2,0.9-5,0.9c-1.1,0-2.2-0.2-3.1-0.6c-0.9-0.4-1.6-0.9-2-1.5c-0.4-0.6-0.7-1.4-0.9-2.4
		c-0.1-0.7-0.2-2.2-0.2-4.4V391h-2.9v-5h2.9v-4.7l6.4-3.7v8.4H29.3z"/>
	<path class="st1" d="M38.9,409.7h-6.4V386h5.9v3.4c1-1.6,1.9-2.6,2.7-3.1s1.7-0.8,2.7-0.8c1.4,0,2.8,0.4,4.2,1.2l-2,5.5
		c-1.1-0.7-2.1-1-3-1s-1.6,0.2-2.3,0.7c-0.6,0.5-1.1,1.4-1.5,2.6c-0.4,1.3-0.5,3.9-0.5,8L38.9,409.7L38.9,409.7z"/>
	<path class="st1" d="M48.4,397.5c0-2.1,0.5-4.1,1.6-6.1c1-1.9,2.5-3.4,4.4-4.5c1.9-1,4-1.5,6.4-1.5c3.6,0,6.6,1.2,8.9,3.5
		c2.3,2.3,3.5,5.3,3.5,8.8c0,3.6-1.2,6.6-3.5,8.9c-2.3,2.4-5.3,3.5-8.9,3.5c-2.2,0-4.3-0.5-6.3-1.5s-3.5-2.4-4.6-4.3
		C48.9,402.6,48.4,400.3,48.4,397.5z M54.9,397.9c0,2.4,0.6,4.2,1.7,5.4c1.1,1.3,2.5,1.9,4.2,1.9s3.1-0.6,4.2-1.9
		c1.1-1.3,1.7-3.1,1.7-5.4c0-2.3-0.6-4.1-1.7-5.4c-1.1-1.3-2.5-1.9-4.2-1.9s-3.1,0.6-4.2,1.9C55.5,393.7,54.9,395.5,54.9,397.9z"/>
	<path class="st1" d="M77.3,409.7V377h6.4v32.7H77.3z"/>
</g>
</svg>
