<?xml version="1.0" encoding="utf-8"?>
<!-- Generator: Adobe Illustrator 21.0.0, SVG Export Plug-In . SVG Version: 6.00 Build 0)  -->
<svg version="1.1" id="Layer_1" xmlns="http://www.w3.org/2000/svg" xmlns:xlink="http://www.w3.org/1999/xlink" x="0px" y="0px"
	 width="300px" height="42px"
	 viewBox="0 0 300 42" style="enable-background:new 0 0 300 42;" xml:space="preserve">
<style type="text/css">
	.st0{fill:#9E248F;}
	.st1{fill:#333333;}
</style>
<g>
	<path class="st0" d="M11.5,0.8H0v33.3h11.5c10-0.2,15.3-5.7,15.3-16.6S21.5,1,11.5,0.8z M9.9,31.4H3.2V3.5H10
		c9.6,0,13.7,4,13.7,13.9S19.5,31.4,9.9,31.4z"/>
	<polygon class="st0" points="62.6,31.4 62.6,18.2 81.1,18.2 81.1,15.5 62.6,15.5 62.6,3.5 82.4,3.5 82.4,0.8 59.4,0.8 59.4,34.1 
		82.6,34.1 82.6,31.4 	"/>
	<path class="st0" d="M46.7,16.5l-8.1-2c-2.7-0.7-5-2-5-5.1c0-4.9,4-6.6,8.3-6.6c4.7,0,8.9,2.6,9.1,7.6h3.2
		c0-6.8-5.7-10.3-12.3-10.3c-9.4,0-11.5,6.1-11.5,9.4c0,5.2,3.6,7,7.5,8l7.4,1.8c3.1,0.7,6.8,2.2,6.8,6c0,4.8-5.3,6.8-8.8,6.8
		c-6.1,0-11-2.1-10.9-8.9h-3.2c-0.4,8.1,5.4,11.6,13.3,11.6c11.8,0,12.7-7.2,12.7-9.5C55.3,19.8,51.4,17.7,46.7,16.5z"/>
</g>
<g>
	<path class="st1" d="M250.6,6.8c0-1.2-0.8-1.6-2.2-1.6h-2.1v5.5h1.1V8.4h0.7l1.3,2.4h1.1L249,8.4C249.9,8.2,250.6,7.8,250.6,6.8z
		 M247.4,7.5V6h0.9c0.5,0,1.1,0.1,1.1,0.7c0,0.7-0.5,0.8-1.1,0.8H247.4L247.4,7.5z"/>
	<path class="st1" d="M248.3,3c-2.7,0-5.1,1.9-5.1,4.9s2.4,4.9,5.1,4.9c2.7,0,5.1-1.9,5.1-4.9C253.3,5,251,3,248.3,3z M248.3,11.9
		c-2.1,0-3.7-1.6-3.7-3.9c0-2.2,1.6-3.9,3.7-3.9c2,0,3.7,1.6,3.7,3.9C252,10.2,250.3,11.9,248.3,11.9z"/>
</g>
<g>
	<path class="st1" d="M107.1,21.7l6.5,2c-1,3.6-2.7,6.2-5,8c-2.3,1.7-5.3,2.6-8.8,2.6c-4.4,0-8-1.5-10.9-4.5c-2.8-3-4.3-7-4.3-12.2
		c0-5.4,1.4-9.7,4.3-12.7s6.6-4.5,11.2-4.5c4.1,0,7.4,1.2,9.9,3.6c1.5,1.4,2.6,3.4,3.4,6l-6.6,1.6c-0.4-1.7-1.2-3-2.5-4
		c-1.2-1-2.8-1.5-4.5-1.5c-2.5,0-4.5,0.9-6,2.6s-2.3,4.6-2.3,8.5c0,4.1,0.8,7.1,2.3,8.8c1.5,1.8,3.5,2.6,5.9,2.6
		c1.8,0,3.3-0.6,4.6-1.7C105.7,25.8,106.6,24.1,107.1,21.7z"/>
	<path class="st1" d="M116.9,21.5c0-2.1,0.5-4.1,1.6-6.1c1-1.9,2.5-3.4,4.4-4.5c1.9-1,4-1.5,6.4-1.5c3.6,0,6.6,1.2,8.9,3.5
		c2.3,2.3,3.5,5.3,3.5,8.8c0,3.6-1.2,6.6-3.5,8.9c-2.3,2.4-5.3,3.5-8.9,3.5c-2.2,0-4.3-0.5-6.3-1.5s-3.5-2.4-4.6-4.3
		C117.5,26.6,116.9,24.3,116.9,21.5z M123.5,21.9c0,2.4,0.6,4.2,1.7,5.4c1.1,1.3,2.5,1.9,4.2,1.9s3.1-0.6,4.2-1.9
		c1.1-1.3,1.7-3.1,1.7-5.4s-0.6-4.1-1.7-5.4c-1.1-1.3-2.5-1.9-4.2-1.9s-3.1,0.6-4.2,1.9C124,17.7,123.5,19.5,123.5,21.9z"/>
	<path class="st1" d="M167.7,33.7h-6.4V21.6c0-2.6-0.1-4.2-0.4-5c-0.3-0.8-0.7-1.3-1.3-1.8c-0.6-0.4-1.3-0.6-2.2-0.6
		c-1.1,0-2.1,0.3-3,0.9c-0.9,0.6-1.5,1.4-1.8,2.4s-0.5,2.8-0.5,5.4v10.7h-6.4V10h5.9v3.5c2.1-2.7,4.7-4,7.9-4c1.4,0,2.7,0.3,3.8,0.7
		c1.2,0.5,2,1.1,2.6,1.9c0.6,0.8,1,1.7,1.2,2.6c0.2,1,0.4,2.4,0.4,4.2L167.7,33.7L167.7,33.7z"/>
	<path class="st1" d="M184.3,10v5H180v9.6c0,1.9,0,3.1,0.1,3.4s0.3,0.6,0.6,0.8c0.3,0.2,0.7,0.3,1.1,0.3c0.6,0,1.4-0.2,2.6-0.6
		l0.5,4.9c-1.5,0.6-3.2,0.9-5,0.9c-1.1,0-2.2-0.2-3.1-0.6c-0.9-0.4-1.6-0.9-2-1.5c-0.4-0.6-0.7-1.4-0.9-2.4
		c-0.1-0.7-0.2-2.2-0.2-4.4V15h-2.9v-5h2.9V5.3l6.4-3.7V10H184.3z"/>
	<path class="st1" d="M193.9,33.7h-6.4V10h5.9v3.4c1-1.6,1.9-2.6,2.7-3.1s1.7-0.8,2.7-0.8c1.4,0,2.8,0.4,4.2,1.2l-2,5.5
		c-1.1-0.7-2.1-1-3-1s-1.6,0.2-2.3,0.7c-0.6,0.5-1.1,1.4-1.5,2.6c-0.4,1.3-0.5,3.9-0.5,8L193.9,33.7L193.9,33.7z"/>
	<path class="st1" d="M203.4,21.5c0-2.1,0.5-4.1,1.6-6.1c1-1.9,2.5-3.4,4.4-4.5c1.9-1,4-1.5,6.4-1.5c3.6,0,6.6,1.2,8.9,3.5
		c2.3,2.3,3.5,5.3,3.5,8.8c0,3.6-1.2,6.6-3.5,8.9c-2.3,2.4-5.3,3.5-8.9,3.5c-2.2,0-4.3-0.5-6.3-1.5s-3.5-2.4-4.6-4.3
		C203.9,26.6,203.4,24.3,203.4,21.5z M209.9,21.9c0,2.4,0.6,4.2,1.7,5.4c1.1,1.3,2.5,1.9,4.2,1.9s3.1-0.6,4.2-1.9
		c1.1-1.3,1.7-3.1,1.7-5.4s-0.6-4.1-1.7-5.4c-1.1-1.3-2.5-1.9-4.2-1.9s-3.1,0.6-4.2,1.9C210.5,17.7,209.9,19.5,209.9,21.9z"/>
	<path class="st1" d="M232.3,33.7V1h6.4v32.7H232.3z"/>
</g>
</svg>
