<?xml version="1.0" encoding="utf-8"?>
<!-- Generator: Adobe Illustrator 26.5.3, SVG Export Plug-In . SVG Version: 6.00 Build 0)  -->
<svg version="1.1" id="Layer_1" xmlns="http://www.w3.org/2000/svg" xmlns:xlink="http://www.w3.org/1999/xlink" x="0px" y="0px"
	 viewBox="0 0 1156.2 554.8" style="enable-background:new 0 0 1156.2 554.8;" xml:space="preserve">
<style type="text/css">
	.st0{fill:#0DB04B;}
	.st1{fill:#FFFFFF;}
	.st2{fill:#B33E96;}
	.st3{fill:#ED2D24;}
	.st4{fill:#009EDA;}
</style>
<path class="st0" d="M107.6,419.6c-5.7-6-9.2-14.1-9.2-23c0-9.2,3.7-17.6,9.8-23.6c6-6,14.3-9.7,23.5-9.8c1.8,0.1,3.5-0.6,4.9-1.9
	l18.1-18.3c2.5-2.5,2.5-6.6,0-9.2l-18.1-18.4c-1.4-1.4-3.2-2-5-1.9c-45.8,0.1-82.9,37.3-82.9,83.1c0,24.3,10.4,46.2,27,61.3
	c2.7,2.4,6.8,2.3,9.2-0.4c2.4-2.7,2.3-6.8-0.4-9.2c-14-12.8-22.8-31.2-22.8-51.7c0-19.4,7.8-36.8,20.5-49.5
	c12.1-12.1,28.6-19.8,46.9-20.4l11.5,11.7L129,350.3c-24.4,1.4-43.7,21.6-43.7,46.3c0,12.4,4.9,23.7,12.8,32
	c2.5,2.6,6.6,2.7,9.2,0.2C109.9,426.4,110.1,422.2,107.6,419.6 M186.9,334.8c-2.7-2.4-6.8-2.3-9.2,0.4c-2.4,2.7-2.3,6.8,0.4,9.2
	c14,12.8,22.8,31.2,22.8,51.7c0,19.4-7.8,36.8-20.5,49.5c-12.1,12.1-28.6,19.8-47,20.4l-11.5-11.7l11.8-11.9
	c24.3-1.5,43.6-21.6,43.6-46.3c0-12.4-4.9-23.7-12.8-32c-2.5-2.6-6.6-2.7-9.2-0.2c-2.6,2.5-2.7,6.6-0.2,9.2c5.7,6,9.2,14.1,9.2,23
	c0,9.2-3.7,17.6-9.8,23.6c-6.1,6.1-14.4,9.8-23.6,9.8c-1.8,0-3.5,0.8-4.7,2c0,0,0,0,0,0h0L108,449.7c-2.5,2.5-2.5,6.6,0,9.2l18,18.4
	c1.5,1.5,3.5,2.1,5.4,1.9c45.6-0.4,82.5-37.4,82.5-83.1C213.9,371.9,203.5,350,186.9,334.8 M122.5,396.2c0,4.8,3.9,8.6,8.6,8.6
	c4.8,0,8.6-3.9,8.6-8.6c0-4.8-3.9-8.6-8.6-8.6C126.4,387.6,122.5,391.5,122.5,396.2"/>
<path class="st1" d="M237.5,526.3c0.5-1.2,1.3-2.2,2.2-3c0.9-0.8,2-1.5,3.1-1.9c1.2-0.5,2.4-0.7,3.7-0.7c1.3,0,2.5,0.2,3.7,0.7
	c1.2,0.5,2.2,1.1,3.1,1.9c0.9,0.8,1.6,1.8,2.2,3c0.5,1.2,0.8,2.5,0.8,4c0,1.5-0.3,2.8-0.8,4c-0.5,1.2-1.3,2.2-2.2,3
	c-0.9,0.8-2,1.5-3.1,1.9c-1.2,0.4-2.4,0.7-3.7,0.7c-1.3,0-2.5-0.2-3.7-0.7c-1.2-0.4-2.2-1.1-3.1-1.9c-0.9-0.8-1.6-1.9-2.2-3
	c-0.5-1.2-0.8-2.5-0.8-4C236.6,528.8,236.9,527.4,237.5,526.3 M239.8,533.3c0.4,0.9,0.9,1.7,1.5,2.4c0.7,0.7,1.4,1.2,2.3,1.6
	c0.9,0.4,1.8,0.6,2.8,0.6c1,0,1.9-0.2,2.8-0.6s1.7-0.9,2.3-1.6c0.7-0.7,1.2-1.5,1.6-2.4c0.4-0.9,0.6-1.9,0.6-3c0-1.1-0.2-2.1-0.6-3
	c-0.4-0.9-0.9-1.7-1.6-2.4c-0.7-0.7-1.4-1.2-2.3-1.6s-1.8-0.6-2.8-0.6c-1,0-2,0.2-2.8,0.6c-0.9,0.4-1.7,0.9-2.3,1.6
	c-0.7,0.7-1.2,1.5-1.5,2.4c-0.4,0.9-0.6,1.9-0.6,3C239.3,531.3,239.5,532.3,239.8,533.3 M246.7,524.8c1.4,0,2.4,0.2,3.1,0.7
	c0.7,0.5,1.1,1.3,1.1,2.5c0,0.5-0.1,0.9-0.2,1.3c-0.1,0.4-0.3,0.6-0.6,0.9c-0.3,0.2-0.6,0.4-0.9,0.5c-0.3,0.1-0.7,0.2-1.1,0.2
	l2.9,4.7h-2.2l-2.6-4.6h-1.3v4.6h-2.1v-10.8H246.7z M246.7,529.3c0.6,0,1.1-0.1,1.5-0.3c0.4-0.2,0.6-0.6,0.6-1.2
	c0-0.3-0.1-0.5-0.2-0.7c-0.1-0.2-0.3-0.3-0.5-0.4c-0.2-0.1-0.5-0.2-0.7-0.2c-0.3,0-0.5-0.1-0.8-0.1h-1.8v2.8H246.7z M235.6,531.3
	v4.2H231v11.3c0,1.1,0.2,1.8,0.5,2.1s1.1,0.5,2.1,0.5c0.4,0,0.7,0,1,0c0.3,0,0.6-0.1,0.9-0.1v4.8c-0.5,0.1-1.1,0.1-1.8,0.2
	c-0.6,0-1.3,0-1.9,0c-1,0-1.9-0.1-2.8-0.2c-0.9-0.1-1.6-0.4-2.3-0.8c-0.7-0.4-1.2-0.9-1.6-1.6c-0.4-0.7-0.6-1.6-0.6-2.8v-13.4H221
	v-4.2h3.8v-6.8h6.3v6.8H235.6z M204.5,548.6c0.9,0.9,2.3,1.4,4.1,1.4c1.3,0,2.4-0.3,3.3-0.9c0.9-0.6,1.5-1.3,1.7-2h5.5
	c-0.9,2.7-2.2,4.7-4.1,5.9c-1.8,1.2-4,1.8-6.6,1.8c-1.8,0-3.4-0.3-4.8-0.9c-1.4-0.6-2.7-1.4-3.7-2.4c-1-1.1-1.8-2.3-2.3-3.8
	c-0.5-1.5-0.8-3.1-0.8-4.8c0-1.7,0.3-3.3,0.8-4.8c0.6-1.5,1.4-2.7,2.4-3.8c1-1.1,2.3-1.9,3.7-2.5c1.4-0.6,3-0.9,4.7-0.9
	c1.9,0,3.6,0.4,5.1,1.1c1.4,0.7,2.6,1.8,3.5,3c0.9,1.3,1.6,2.7,2,4.3c0.4,1.6,0.6,3.3,0.4,5.1H203
	C203,546.3,203.6,547.7,204.5,548.6 M211.6,536.6c-0.8-0.8-1.9-1.2-3.4-1.2c-1,0-1.8,0.2-2.5,0.5c-0.7,0.3-1.2,0.8-1.6,1.3
	c-0.4,0.5-0.7,1-0.8,1.6c-0.2,0.6-0.3,1.1-0.3,1.5h10.2C212.8,538.7,212.3,537.5,211.6,536.6 M179.4,548.4c0.3,0.5,0.6,0.9,1.1,1.2
	c0.4,0.3,0.9,0.5,1.5,0.7c0.6,0.1,1.2,0.2,1.8,0.2c0.4,0,0.9-0.1,1.4-0.2c0.5-0.1,0.9-0.3,1.3-0.5c0.4-0.2,0.7-0.5,1-0.9
	c0.3-0.4,0.4-0.8,0.4-1.4c0-0.9-0.6-1.6-1.9-2.1c-1.2-0.5-3-0.9-5.2-1.4c-0.9-0.2-1.8-0.4-2.7-0.7c-0.9-0.3-1.6-0.6-2.3-1.1
	c-0.7-0.5-1.2-1-1.6-1.7c-0.4-0.7-0.6-1.5-0.6-2.5c0-1.5,0.3-2.7,0.9-3.6c0.6-0.9,1.3-1.7,2.3-2.2s2-0.9,3.2-1.1
	c1.2-0.2,2.4-0.3,3.6-0.3c1.2,0,2.4,0.1,3.6,0.4c1.2,0.2,2.2,0.6,3.1,1.2c0.9,0.6,1.7,1.3,2.3,2.2c0.6,0.9,1,2.1,1.1,3.5h-6
	c-0.1-1.2-0.5-2-1.4-2.4c-0.8-0.4-1.8-0.6-2.9-0.6c-0.4,0-0.7,0-1.1,0.1c-0.4,0-0.8,0.1-1.1,0.3c-0.3,0.1-0.6,0.4-0.9,0.6
	c-0.2,0.3-0.4,0.7-0.4,1.1c0,0.6,0.2,1,0.6,1.4c0.4,0.4,0.9,0.6,1.6,0.9c0.7,0.2,1.4,0.4,2.3,0.6c0.9,0.2,1.7,0.4,2.6,0.6
	c0.9,0.2,1.8,0.5,2.7,0.7c0.9,0.3,1.6,0.7,2.3,1.2s1.2,1.1,1.6,1.8c0.4,0.7,0.6,1.6,0.6,2.7c0,1.5-0.3,2.8-0.9,3.8
	c-0.6,1-1.4,1.8-2.4,2.4s-2.1,1.1-3.3,1.3c-1.2,0.2-2.5,0.4-3.8,0.4c-1.3,0-2.6-0.1-3.9-0.4c-1.3-0.3-2.4-0.7-3.4-1.3
	c-1-0.6-1.8-1.4-2.4-2.4c-0.6-1-1-2.3-1-3.8h6C179,547.4,179.1,548,179.4,548.4 M153.9,531.3v3.2h0.1c0.8-1.3,1.8-2.3,3.1-2.9
	c1.3-0.6,2.6-0.9,3.9-0.9c1.7,0,3,0.2,4.1,0.7c1.1,0.5,1.9,1.1,2.5,1.9c0.6,0.8,1.1,1.8,1.3,3c0.2,1.2,0.4,2.4,0.4,3.9v14h-6.3
	v-12.9c0-1.9-0.3-3.3-0.9-4.2c-0.6-0.9-1.6-1.4-3.1-1.4c-1.7,0-2.9,0.5-3.7,1.5c-0.8,1-1.1,2.7-1.1,5v11.9H148v-22.8H153.9z
	 M129.4,548.6c0.9,0.9,2.3,1.4,4.1,1.4c1.3,0,2.4-0.3,3.3-0.9c0.9-0.6,1.5-1.3,1.7-2h5.5c-0.9,2.7-2.2,4.7-4.1,5.9
	c-1.8,1.2-4,1.8-6.6,1.8c-1.8,0-3.4-0.3-4.8-0.9c-1.4-0.6-2.7-1.4-3.7-2.4c-1-1.1-1.8-2.3-2.3-3.8c-0.5-1.5-0.8-3.1-0.8-4.8
	c0-1.7,0.3-3.3,0.8-4.8c0.6-1.5,1.4-2.7,2.4-3.8c1-1.1,2.3-1.9,3.7-2.5c1.4-0.6,3-0.9,4.7-0.9c1.9,0,3.6,0.4,5.1,1.1
	c1.4,0.7,2.6,1.8,3.5,3c0.9,1.3,1.6,2.7,2,4.3c0.4,1.6,0.6,3.3,0.4,5.1h-16.4C127.9,546.3,128.4,547.7,129.4,548.6 M136.5,536.6
	c-0.8-0.8-1.9-1.2-3.4-1.2c-1,0-1.8,0.2-2.5,0.5c-0.7,0.3-1.2,0.8-1.6,1.3c-0.4,0.5-0.7,1-0.8,1.6c-0.2,0.6-0.3,1.1-0.3,1.5H138
	C137.7,538.7,137.2,537.5,136.5,536.6 M108.5,553.9c-1.5,0.6-3,0.9-4.5,0.9c-2.4,0-4.6-0.4-6.5-1.3c-1.9-0.8-3.5-2-4.9-3.5
	c-1.3-1.5-2.3-3.2-3-5.2c-0.7-2-1.1-4.1-1.1-6.4c0-2.4,0.4-4.5,1.1-6.5c0.7-2,1.7-3.8,3-5.3c1.3-1.5,2.9-2.7,4.9-3.5
	c1.9-0.9,4.1-1.3,6.5-1.3c1.6,0,3.2,0.2,4.7,0.7c1.5,0.5,2.9,1.2,4.1,2.1c1.2,0.9,2.2,2.1,3,3.5c0.8,1.4,1.3,3,1.5,4.8h-6.6
	c-0.4-1.8-1.2-3.1-2.4-4c-1.2-0.9-2.6-1.3-4.3-1.3c-1.6,0-2.9,0.3-4,0.9c-1.1,0.6-2,1.4-2.6,2.4c-0.7,1-1.2,2.2-1.5,3.5
	c-0.3,1.3-0.5,2.6-0.5,4c0,1.3,0.2,2.6,0.5,3.9c0.3,1.2,0.8,2.4,1.5,3.4c0.7,1,1.6,1.8,2.6,2.4c1.1,0.6,2.4,0.9,4,0.9
	c2.3,0,4.1-0.6,5.3-1.7c1.2-1.2,2-2.8,2.2-5h-7v-5.2h13.2v17h-4.4l-0.7-3.6C111.4,552.1,110,553.2,108.5,553.9"/>
<path class="st0" d="M85.6,522.6v2.6H66.9v11.4h17.5v2.6H66.9v12.4h19v2.6h-22v-31.5H85.6z M38.3,547.8c0.5,1.1,1.3,2,2.2,2.6
	c0.9,0.6,2,1.1,3.3,1.4c1.3,0.3,2.6,0.4,4.1,0.4c0.8,0,1.7-0.1,2.7-0.4c1-0.2,1.9-0.6,2.7-1.1c0.8-0.5,1.5-1.2,2.1-2
	c0.6-0.8,0.8-1.8,0.8-2.9c0-0.9-0.2-1.6-0.6-2.3c-0.4-0.6-0.9-1.2-1.5-1.6c-0.6-0.4-1.3-0.8-2.1-1.1c-0.8-0.3-1.5-0.5-2.2-0.7
	l-7-1.7c-0.9-0.2-1.8-0.5-2.7-0.9c-0.9-0.4-1.6-0.8-2.3-1.4c-0.6-0.6-1.2-1.3-1.6-2.2c-0.4-0.9-0.6-1.9-0.6-3.1
	c0-0.8,0.1-1.7,0.4-2.7c0.3-1,0.8-2,1.7-2.9c0.8-0.9,1.9-1.7,3.3-2.3c1.4-0.6,3.2-0.9,5.4-0.9c1.6,0,3,0.2,4.5,0.6
	c1.4,0.4,2.6,1,3.7,1.9c1.1,0.8,1.9,1.8,2.5,3.1c0.6,1.2,0.9,2.6,0.9,4.3h-3c-0.1-1.2-0.3-2.3-0.8-3.2c-0.5-0.9-1.1-1.6-1.9-2.2
	c-0.8-0.6-1.7-1.1-2.7-1.4c-1-0.3-2.1-0.5-3.2-0.5c-1,0-2,0.1-3,0.3c-1,0.2-1.8,0.6-2.5,1.1c-0.7,0.5-1.3,1.1-1.7,1.9
	c-0.4,0.8-0.7,1.8-0.7,3c0,0.7,0.1,1.4,0.4,1.9c0.2,0.5,0.6,1,1,1.4c0.4,0.4,0.9,0.7,1.5,0.9c0.6,0.2,1.2,0.4,1.8,0.6l7.7,1.9
	c1.1,0.3,2.2,0.7,3.2,1.1c1,0.4,1.9,1,2.6,1.6c0.7,0.6,1.3,1.4,1.8,2.3c0.4,0.9,0.6,2,0.6,3.3c0,0.4,0,0.8-0.1,1.4
	c-0.1,0.6-0.3,1.2-0.5,1.9c-0.3,0.7-0.7,1.3-1.2,2c-0.5,0.7-1.2,1.3-2.1,1.8c-0.9,0.5-2,1-3.3,1.3c-1.3,0.3-2.9,0.5-4.8,0.5
	c-1.9,0-3.6-0.2-5.2-0.6c-1.6-0.4-2.9-1.1-4.1-2c-1.1-0.9-2-2-2.6-3.4c-0.6-1.4-0.9-3-0.8-5h3C37.5,545.4,37.7,546.7,38.3,547.8
	 M15.3,551.5c2.3,0,4.2-0.2,5.8-0.7c1.6-0.5,3-1.3,4-2.3c1.1-1.1,1.8-2.4,2.3-4.1c0.5-1.7,0.7-3.7,0.7-6c0-2.4-0.3-4.4-0.7-6
	c-0.5-1.7-1.3-3-2.3-4.1c-1.1-1.1-2.4-1.8-4-2.3c-1.6-0.5-3.6-0.7-5.8-0.7H8.9v26.4H15.3z M16.8,522.6c4.8,0.1,8.4,1.5,10.8,4
	c2.4,2.6,3.6,6.5,3.6,11.7c0,5.2-1.2,9.1-3.6,11.7c-2.4,2.6-6,3.9-10.8,4H5.9v-31.5H16.8z"/>
<path class="st2" d="M535.4,373.4l-21-37c-0.9-1.6-2.4-2.7-4.1-3.2c-1.7-0.5-3.6-0.2-5.2,0.7l-15.1,8.9c-2.5-1.7-5-3.2-7.7-4.5v-18
	c0-3.7-3-6.7-6.7-6.7h-42c-3.7,0-6.7,3-6.7,6.7v18c-2.7,1.3-5.2,2.8-7.7,4.5l-15.1-8.9c-1.6-0.9-3.4-1.2-5.2-0.7
	c-1.7,0.5-3.2,1.6-4.1,3.2l-21,37c-1.8,3.2-0.7,7.3,2.4,9.1l15.2,9c-0.1,1.6-0.2,3.1-0.2,4.6c0,1.5,0.1,3,0.2,4.7l-15.2,9
	c-3.2,1.9-4.3,5.9-2.4,9.1l21,37c0.9,1.6,2.4,2.7,4.1,3.2c1.7,0.5,3.6,0.2,5.2-0.7l15.1-8.9c2.5,1.7,5,3.2,7.7,4.5v18
	c0,3.7,3,6.7,6.7,6.7h42c3.7,0,6.7-3,6.7-6.7v-18c2.7-1.3,5.2-2.8,7.7-4.5l15.1,8.9c1.6,0.9,3.4,1.2,5.2,0.7
	c1.7-0.5,3.2-1.6,4.1-3.2l21-37c1.8-3.2,0.7-7.3-2.4-9.1l-15.2-9c0.1-1.6,0.2-3.2,0.2-4.7c0-1.5-0.1-3-0.2-4.6l15.2-9
	C536.1,380.6,537.2,376.6,535.4,373.4 M520.4,374.3l-13.3,7.8c-2.4,1.4-3.6,4.1-3.3,6.8c0.4,2.8,0.6,5.1,0.6,7.3
	c0,2.2-0.2,4.5-0.6,7.3c-0.4,2.7,0.9,5.4,3.3,6.8l13.3,7.8L506,443.3l-13.1-7.7c-2.4-1.4-5.5-1.2-7.6,0.6c-3.8,3-7.9,5.5-12.3,7.3
	c-2.5,1-4.2,3.5-4.2,6.2v15.6h-28.5v-15.6c0-2.7-1.7-5.2-4.2-6.2c-4.4-1.8-8.6-4.3-12.3-7.3c-2.2-1.8-5.2-2-7.6-0.6l-13.1,7.7
	L388.7,418l13.3-7.8c2.4-1.4,3.6-4.1,3.3-6.8c-0.4-2.8-0.6-5.1-0.6-7.3c0-2.2,0.2-4.5,0.6-7.3c0.4-2.7-0.9-5.4-3.3-6.8l-13.3-7.8
	L403,349l13.1,7.7c2.4,1.4,5.5,1.2,7.6-0.6c3.8-3,7.9-5.5,12.3-7.3c2.5-1,4.2-3.5,4.2-6.2V327h28.5v15.6c0,2.7,1.7,5.2,4.2,6.2
	c4.4,1.8,8.6,4.3,12.3,7.3c2.2,1.8,5.2,2,7.6,0.6L506,349L520.4,374.3z M484.3,396.1c0-16.4-13.4-29.8-29.8-29.8
	c-16.4,0-29.8,13.4-29.8,29.8c0,16.4,13.4,29.8,29.8,29.8C471,425.9,484.3,412.5,484.3,396.1 M470.8,396.1c0,9-7.3,16.3-16.3,16.3
	c-9,0-16.3-7.3-16.3-16.3c0-9,7.3-16.3,16.3-16.3C463.5,379.8,470.8,387.1,470.8,396.1"/>
<path class="st1" d="M564.1,526c0.5-1.2,1.3-2.2,2.2-3c0.9-0.8,2-1.5,3.1-1.9c1.2-0.5,2.4-0.7,3.7-0.7c1.3,0,2.5,0.2,3.7,0.7
	c1.2,0.5,2.2,1.1,3.1,1.9c0.9,0.8,1.6,1.8,2.2,3c0.5,1.2,0.8,2.5,0.8,4c0,1.5-0.3,2.8-0.8,4c-0.5,1.2-1.3,2.2-2.2,3
	c-0.9,0.8-2,1.5-3.1,1.9c-1.2,0.4-2.4,0.7-3.7,0.7c-1.3,0-2.5-0.2-3.7-0.7c-1.2-0.4-2.2-1.1-3.1-1.9c-0.9-0.8-1.6-1.9-2.2-3
	c-0.5-1.2-0.8-2.5-0.8-4C563.3,528.5,563.6,527.2,564.1,526 M566.5,533c0.4,0.9,0.9,1.7,1.5,2.4c0.7,0.7,1.4,1.2,2.3,1.6
	c0.9,0.4,1.8,0.6,2.8,0.6c1,0,1.9-0.2,2.8-0.6c0.9-0.4,1.7-0.9,2.3-1.6c0.7-0.7,1.2-1.5,1.6-2.4c0.4-0.9,0.6-1.9,0.6-3
	c0-1.1-0.2-2.1-0.6-3c-0.4-0.9-0.9-1.7-1.6-2.4c-0.7-0.7-1.4-1.2-2.3-1.6c-0.9-0.4-1.8-0.6-2.8-0.6c-1,0-2,0.2-2.8,0.6
	c-0.9,0.4-1.7,0.9-2.3,1.6c-0.7,0.7-1.2,1.5-1.5,2.4c-0.4,0.9-0.6,1.9-0.6,3C565.9,531,566.1,532,566.5,533 M573.4,524.5
	c1.4,0,2.4,0.2,3.1,0.7c0.7,0.5,1.1,1.3,1.1,2.5c0,0.5-0.1,0.9-0.2,1.3c-0.1,0.4-0.3,0.6-0.6,0.9c-0.3,0.2-0.6,0.4-0.9,0.5
	c-0.3,0.1-0.7,0.2-1.1,0.2l2.9,4.7h-2.2l-2.6-4.6h-1.3v4.6h-2.1v-10.8H573.4z M573.4,529c0.6,0,1.1-0.1,1.5-0.3
	c0.4-0.2,0.6-0.6,0.6-1.2c0-0.3-0.1-0.5-0.2-0.7c-0.1-0.2-0.3-0.3-0.5-0.4c-0.2-0.1-0.5-0.2-0.7-0.2c-0.3,0-0.5-0.1-0.8-0.1h-1.8
	v2.8H573.4z M560.3,553.8h-6.3v-31.5h6.3V553.8z M527.1,537.5c0.6-1.5,1.4-2.7,2.4-3.8c1-1,2.3-1.9,3.7-2.4c1.4-0.6,3.1-0.9,4.8-0.9
	c1.8,0,3.4,0.3,4.9,0.9c1.5,0.6,2.7,1.4,3.7,2.4c1,1,1.8,2.3,2.4,3.8c0.6,1.5,0.8,3.1,0.8,5c0,1.8-0.3,3.5-0.8,4.9
	c-0.6,1.5-1.4,2.7-2.4,3.8c-1,1-2.3,1.8-3.7,2.4c-1.5,0.6-3.1,0.8-4.9,0.8c-1.8,0-3.4-0.3-4.8-0.8c-1.4-0.6-2.7-1.4-3.7-2.4
	c-1-1-1.8-2.3-2.4-3.8c-0.6-1.5-0.8-3.1-0.8-4.9C526.3,540.6,526.5,539,527.1,537.5 M532.8,545.1c0.2,0.9,0.5,1.6,0.9,2.3
	c0.4,0.7,1,1.2,1.7,1.7c0.7,0.4,1.6,0.6,2.6,0.6c1.1,0,1.9-0.2,2.7-0.6c0.7-0.4,1.3-1,1.7-1.7c0.4-0.7,0.7-1.5,0.9-2.3
	c0.2-0.9,0.3-1.8,0.3-2.7c0-0.9-0.1-1.8-0.3-2.7c-0.2-0.9-0.5-1.7-0.9-2.3c-0.4-0.7-1-1.2-1.7-1.7c-0.7-0.4-1.6-0.6-2.7-0.6
	c-1.1,0-1.9,0.2-2.6,0.6c-0.7,0.4-1.3,1-1.7,1.7c-0.4,0.7-0.7,1.5-0.9,2.3c-0.2,0.9-0.3,1.8-0.3,2.7
	C532.5,543.3,532.6,544.2,532.8,545.1 M516.6,531v4.2h0.1c0.3-0.7,0.7-1.4,1.2-2c0.5-0.6,1.1-1.1,1.7-1.5c0.6-0.4,1.3-0.8,2.1-1
	c0.7-0.2,1.5-0.4,2.3-0.4c0.4,0,0.9,0.1,1.4,0.2v5.8c-0.3-0.1-0.6-0.1-1.1-0.2c-0.4,0-0.8-0.1-1.2-0.1c-1.1,0-2.1,0.2-2.9,0.6
	c-0.8,0.4-1.4,0.9-1.9,1.6c-0.5,0.7-0.8,1.4-1,2.3c-0.2,0.9-0.3,1.8-0.3,2.9v10.3h-6.3V531H516.6z M507.6,531v4.2H503v11.3
	c0,1.1,0.2,1.8,0.5,2.1c0.4,0.4,1.1,0.5,2.1,0.5c0.4,0,0.7,0,1,0c0.3,0,0.6-0.1,0.9-0.1v4.8c-0.5,0.1-1.1,0.1-1.8,0.2
	c-0.6,0-1.3,0-1.9,0c-1,0-1.9-0.1-2.8-0.2c-0.9-0.1-1.6-0.4-2.3-0.8c-0.7-0.4-1.2-0.9-1.6-1.6c-0.4-0.7-0.6-1.6-0.6-2.8v-13.4H493
	V531h3.8v-6.8h6.3v6.8H507.6z M474.9,531v3.2h0.1c0.8-1.3,1.8-2.3,3.1-2.9c1.3-0.6,2.6-0.9,3.9-0.9c1.7,0,3.1,0.2,4.1,0.7
	c1.1,0.5,1.9,1.1,2.5,1.9c0.6,0.8,1.1,1.8,1.3,3c0.2,1.2,0.4,2.4,0.4,3.9v14h-6.3v-12.9c0-1.9-0.3-3.3-0.9-4.2
	c-0.6-0.9-1.6-1.4-3.1-1.4c-1.7,0-2.9,0.5-3.7,1.5c-0.8,1-1.1,2.7-1.1,5v11.9H469V531H474.9z M442.2,537.5c0.6-1.5,1.4-2.7,2.4-3.8
	c1-1,2.3-1.9,3.7-2.4c1.4-0.6,3.1-0.9,4.8-0.9c1.8,0,3.4,0.3,4.9,0.9c1.5,0.6,2.7,1.4,3.7,2.4c1,1,1.8,2.3,2.4,3.8
	c0.6,1.5,0.8,3.1,0.8,5c0,1.8-0.3,3.5-0.8,4.9c-0.6,1.5-1.4,2.7-2.4,3.8c-1,1-2.3,1.8-3.7,2.4c-1.5,0.6-3.1,0.8-4.9,0.8
	c-1.8,0-3.4-0.3-4.8-0.8c-1.4-0.6-2.7-1.4-3.7-2.4c-1-1-1.8-2.3-2.4-3.8c-0.6-1.5-0.8-3.1-0.8-4.9
	C441.3,540.6,441.6,539,442.2,537.5 M447.8,545.1c0.2,0.9,0.5,1.6,0.9,2.3c0.4,0.7,1,1.2,1.7,1.7c0.7,0.4,1.6,0.6,2.6,0.6
	c1.1,0,1.9-0.2,2.7-0.6c0.7-0.4,1.3-1,1.7-1.7c0.4-0.7,0.7-1.5,0.9-2.3c0.2-0.9,0.3-1.8,0.3-2.7c0-0.9-0.1-1.8-0.3-2.7
	c-0.2-0.9-0.5-1.7-0.9-2.3c-0.4-0.7-1-1.2-1.7-1.7c-0.7-0.4-1.6-0.6-2.7-0.6c-1.1,0-1.9,0.2-2.6,0.6c-0.7,0.4-1.3,1-1.7,1.7
	c-0.4,0.7-0.7,1.5-0.9,2.3c-0.2,0.9-0.3,1.8-0.3,2.7C447.6,543.3,447.7,544.2,447.8,545.1 M430.2,530.7c-0.4-0.7-0.9-1.2-1.5-1.7
	c-0.6-0.5-1.3-0.9-2.1-1.2c-0.8-0.3-1.6-0.4-2.4-0.4c-1.6,0-2.9,0.3-4,0.9c-1.1,0.6-2,1.4-2.6,2.4c-0.7,1-1.2,2.2-1.5,3.5
	c-0.3,1.3-0.5,2.6-0.5,4c0,1.3,0.2,2.6,0.5,3.9c0.3,1.2,0.8,2.4,1.5,3.4c0.7,1,1.6,1.8,2.6,2.4c1.1,0.6,2.4,0.9,4,0.9
	c2.1,0,3.8-0.6,5-1.9c1.2-1.3,1.9-3,2.2-5.1h6.7c-0.2,2-0.6,3.7-1.4,5.3c-0.7,1.6-1.7,2.9-2.9,4.1c-1.2,1.1-2.6,2-4.2,2.6
	c-1.6,0.6-3.4,0.9-5.3,0.9c-2.4,0-4.6-0.4-6.5-1.3c-1.9-0.8-3.5-2-4.9-3.5c-1.3-1.5-2.3-3.2-3-5.2c-0.7-2-1.1-4.1-1.1-6.4
	c0-2.4,0.4-4.5,1.1-6.5c0.7-2,1.7-3.8,3-5.3c1.3-1.5,2.9-2.7,4.9-3.5c1.9-0.9,4.1-1.3,6.5-1.3c1.7,0,3.4,0.3,4.9,0.7
	c1.5,0.5,2.9,1.2,4.1,2.2c1.2,1,2.2,2.1,3,3.5c0.8,1.4,1.3,3,1.5,4.8H431C430.9,532.1,430.6,531.4,430.2,530.7"/>
<path class="st2" d="M405.7,522.3v2.6H387v11.4h17.5v2.6H387v12.4h19v2.6h-22v-31.5H405.7z M358.4,547.5c0.5,1.1,1.3,2,2.2,2.6
	c0.9,0.6,2,1.1,3.3,1.4c1.3,0.3,2.6,0.4,4.1,0.4c0.8,0,1.7-0.1,2.7-0.4c1-0.2,1.9-0.6,2.7-1.1c0.8-0.5,1.5-1.2,2.1-2
	c0.6-0.8,0.8-1.8,0.8-2.9c0-0.9-0.2-1.6-0.6-2.3c-0.4-0.6-0.9-1.2-1.5-1.6c-0.6-0.4-1.3-0.8-2.1-1.1c-0.8-0.3-1.5-0.5-2.2-0.7
	l-7-1.7c-0.9-0.2-1.8-0.5-2.7-0.9c-0.9-0.4-1.6-0.8-2.3-1.4c-0.6-0.6-1.2-1.3-1.6-2.2c-0.4-0.9-0.6-1.9-0.6-3.1
	c0-0.8,0.1-1.7,0.4-2.7c0.3-1,0.8-2,1.7-2.9c0.8-0.9,1.9-1.7,3.3-2.3c1.4-0.6,3.2-0.9,5.4-0.9c1.6,0,3,0.2,4.5,0.6
	c1.4,0.4,2.6,1,3.7,1.9c1.1,0.8,1.9,1.8,2.5,3.1c0.6,1.2,0.9,2.6,0.9,4.3h-3c-0.1-1.2-0.3-2.3-0.8-3.2c-0.5-0.9-1.1-1.6-1.9-2.2
	c-0.8-0.6-1.7-1.1-2.7-1.4c-1-0.3-2.1-0.5-3.2-0.5c-1,0-2,0.1-3,0.3c-1,0.2-1.8,0.6-2.5,1.1c-0.7,0.5-1.3,1.1-1.7,1.9
	c-0.4,0.8-0.7,1.8-0.7,3c0,0.7,0.1,1.4,0.4,1.9c0.2,0.5,0.6,1,1,1.4c0.4,0.4,0.9,0.7,1.5,0.9c0.6,0.2,1.2,0.4,1.8,0.6l7.7,1.9
	c1.1,0.3,2.2,0.7,3.2,1.1c1,0.4,1.9,1,2.6,1.6c0.7,0.6,1.3,1.4,1.8,2.3c0.4,0.9,0.6,2,0.6,3.3c0,0.4,0,0.8-0.1,1.4
	c-0.1,0.6-0.3,1.2-0.5,1.9c-0.3,0.7-0.7,1.3-1.2,2c-0.5,0.7-1.2,1.3-2.1,1.8c-0.9,0.5-2,1-3.3,1.3c-1.3,0.3-2.9,0.5-4.8,0.5
	c-1.9,0-3.6-0.2-5.2-0.6c-1.6-0.4-2.9-1.1-4.1-2c-1.1-0.9-2-2-2.6-3.4c-0.6-1.4-0.9-3-0.8-5h3C357.6,545.1,357.9,546.4,358.4,547.5
	 M335.4,551.3c2.3,0,4.2-0.2,5.8-0.7c1.6-0.5,3-1.3,4-2.3c1.1-1.1,1.8-2.4,2.3-4.1c0.5-1.7,0.7-3.7,0.7-6c0-2.4-0.3-4.4-0.7-6
	c-0.5-1.7-1.3-3-2.3-4.1c-1.1-1.1-2.4-1.8-4-2.3c-1.6-0.5-3.6-0.7-5.8-0.7H329v26.4H335.4z M336.9,522.3c4.8,0.1,8.4,1.5,10.8,4
	c2.4,2.6,3.6,6.5,3.6,11.7s-1.2,9.1-3.6,11.7c-2.4,2.6-6,3.9-10.8,4H326v-31.5H336.9z"/>
<path class="st3" d="M770.9,383.8v39.8c0,3.7,3.1,6.7,6.9,6.7c3.8,0,6.9-3,6.9-6.7v-39.8c0-3.7-3.1-6.7-6.9-6.7
	C774,377.1,770.9,380.1,770.9,383.8 M736,356.1v95.2c0,3.7,3.1,6.7,6.9,6.7c3.8,0,6.9-3,6.9-6.7v-95.2c0-3.7-3.1-6.7-6.9-6.7
	C739.1,349.4,736,352.4,736,356.1 M701,333.5V474c0,3.7,3.1,6.7,6.9,6.7c3.8,0,6.9-3,6.9-6.7V333.5c0-3.7-3.1-6.7-6.9-6.7
	C704.1,326.8,701,329.8,701,333.5 M840.8,333.5V474c0,3.7,3.1,6.7,6.9,6.7c3.8,0,6.9-3,6.9-6.7V333.5c0-3.7-3.1-6.7-6.9-6.7
	C843.9,326.8,840.8,329.8,840.8,333.5 M805.8,356.1v95.2c0,3.7,3.1,6.7,6.9,6.7c3.8,0,6.9-3,6.9-6.7v-95.2c0-3.7-3.1-6.7-6.9-6.7
	C808.9,349.4,805.8,352.4,805.8,356.1"/>
<path class="st1" d="M876.7,526.4c0.5-1.2,1.3-2.2,2.2-3c0.9-0.8,2-1.5,3.1-1.9c1.2-0.5,2.4-0.7,3.7-0.7c1.3,0,2.5,0.2,3.7,0.7
	c1.2,0.5,2.2,1.1,3.1,1.9c0.9,0.8,1.6,1.8,2.2,3c0.5,1.2,0.8,2.5,0.8,4c0,1.5-0.3,2.8-0.8,4c-0.5,1.2-1.3,2.2-2.2,3
	c-0.9,0.8-2,1.5-3.1,1.9c-1.2,0.4-2.4,0.7-3.7,0.7c-1.3,0-2.5-0.2-3.7-0.7c-1.2-0.4-2.2-1.1-3.1-1.9c-0.9-0.8-1.6-1.9-2.2-3
	c-0.5-1.2-0.8-2.5-0.8-4C875.9,528.9,876.2,527.5,876.7,526.4 M879.1,533.3c0.4,0.9,0.9,1.7,1.5,2.4c0.7,0.7,1.4,1.2,2.3,1.6
	c0.9,0.4,1.8,0.6,2.8,0.6c1,0,1.9-0.2,2.8-0.6c0.9-0.4,1.6-0.9,2.3-1.6c0.7-0.7,1.2-1.5,1.6-2.4c0.4-0.9,0.6-1.9,0.6-3
	c0-1.1-0.2-2.1-0.6-3c-0.4-0.9-0.9-1.7-1.6-2.4s-1.4-1.2-2.3-1.6c-0.9-0.4-1.8-0.6-2.8-0.6c-1,0-2,0.2-2.8,0.6
	c-0.9,0.4-1.7,0.9-2.3,1.6c-0.7,0.7-1.2,1.5-1.5,2.4c-0.4,0.9-0.6,1.9-0.6,3C878.5,531.4,878.7,532.4,879.1,533.3 M886,524.9
	c1.4,0,2.4,0.2,3.1,0.7c0.7,0.5,1.1,1.3,1.1,2.5c0,0.5-0.1,0.9-0.2,1.3c-0.1,0.4-0.3,0.6-0.6,0.9c-0.3,0.2-0.6,0.4-0.9,0.5
	c-0.3,0.1-0.7,0.2-1.1,0.2l2.9,4.7h-2.2l-2.6-4.6h-1.3v4.6H882v-10.8H886z M886,529.4c0.6,0,1.1-0.1,1.5-0.3
	c0.4-0.2,0.6-0.6,0.6-1.2c0-0.3-0.1-0.5-0.2-0.7c-0.1-0.2-0.3-0.3-0.5-0.4c-0.2-0.1-0.5-0.2-0.7-0.2c-0.3,0-0.5-0.1-0.8-0.1h-1.8
	v2.8H886z M866.7,531.4v4.2h0.1c0.3-0.7,0.7-1.4,1.2-2c0.5-0.6,1.1-1.1,1.7-1.5c0.6-0.4,1.3-0.8,2.1-1c0.7-0.2,1.5-0.4,2.3-0.4
	c0.4,0,0.9,0.1,1.4,0.2v5.8c-0.3-0.1-0.6-0.1-1.1-0.2c-0.4,0-0.8-0.1-1.2-0.1c-1.1,0-2.1,0.2-2.9,0.6c-0.8,0.4-1.4,0.9-1.9,1.6
	c-0.5,0.7-0.8,1.4-1,2.3c-0.2,0.9-0.3,1.8-0.3,2.9v10.3h-6.3v-22.8H866.7z M842.1,548.7c0.9,0.9,2.3,1.4,4.1,1.4
	c1.3,0,2.3-0.3,3.3-0.9c0.9-0.6,1.5-1.3,1.7-2h5.5c-0.9,2.7-2.2,4.7-4.1,5.9c-1.8,1.2-4,1.8-6.6,1.8c-1.8,0-3.4-0.3-4.8-0.9
	c-1.4-0.6-2.7-1.4-3.7-2.4c-1-1.1-1.8-2.3-2.3-3.8c-0.5-1.5-0.8-3.1-0.8-4.8c0-1.7,0.3-3.3,0.8-4.8c0.6-1.5,1.4-2.7,2.4-3.8
	c1-1.1,2.3-1.9,3.7-2.5c1.4-0.6,3-0.9,4.7-0.9c1.9,0,3.6,0.4,5.1,1.1c1.4,0.7,2.6,1.8,3.5,3c0.9,1.3,1.6,2.7,2,4.3
	c0.4,1.6,0.6,3.3,0.4,5.1h-16.4C840.7,546.3,841.2,547.8,842.1,548.7 M849.2,536.7c-0.7-0.8-1.9-1.2-3.4-1.2c-1,0-1.8,0.2-2.5,0.5
	c-0.7,0.3-1.2,0.8-1.6,1.3c-0.4,0.5-0.7,1-0.8,1.6c-0.2,0.6-0.3,1.1-0.3,1.5h10.2C850.5,538.8,850,537.6,849.2,536.7 M819.2,554.2
	l-4.1-15.3H815l-3.9,15.3h-6.5l-7.2-22.8h6.6l4.2,15.5h0.1l3.8-15.5h6.1l3.9,15.4h0.1l4.2-15.4h6.4l-7.2,22.8H819.2z M772.8,537.9
	c0.6-1.5,1.4-2.7,2.4-3.8c1-1,2.3-1.9,3.7-2.4c1.4-0.6,3.1-0.9,4.8-0.9c1.8,0,3.4,0.3,4.9,0.9c1.5,0.6,2.7,1.4,3.7,2.4
	c1,1,1.8,2.3,2.4,3.8c0.6,1.5,0.8,3.1,0.8,5s-0.3,3.5-0.8,4.9c-0.6,1.5-1.4,2.7-2.4,3.8c-1,1-2.3,1.8-3.7,2.4
	c-1.5,0.6-3.1,0.8-4.9,0.8c-1.8,0-3.4-0.3-4.8-0.8c-1.4-0.6-2.7-1.4-3.7-2.4c-1-1-1.8-2.3-2.4-3.8c-0.6-1.5-0.8-3.1-0.8-4.9
	S772.2,539.3,772.8,537.9 M778.4,545.5c0.2,0.9,0.5,1.6,0.9,2.3c0.4,0.7,1,1.2,1.7,1.7c0.7,0.4,1.6,0.6,2.6,0.6
	c1.1,0,1.9-0.2,2.7-0.6c0.7-0.4,1.3-1,1.7-1.7c0.4-0.7,0.7-1.5,0.9-2.3c0.2-0.9,0.3-1.8,0.3-2.7c0-0.9-0.1-1.8-0.3-2.7
	c-0.2-0.9-0.5-1.7-0.9-2.3c-0.4-0.7-1-1.2-1.7-1.7c-0.7-0.4-1.6-0.6-2.7-0.6c-1.1,0-1.9,0.2-2.6,0.6c-0.7,0.4-1.3,1-1.7,1.7
	c-0.4,0.7-0.7,1.5-0.9,2.3c-0.2,0.9-0.3,1.8-0.3,2.7C778.2,543.7,778.3,544.6,778.4,545.5 M758.1,522.7c2,0,3.6,0.3,5,0.9
	c1.4,0.6,2.5,1.3,3.4,2.3c0.9,0.9,1.5,2,1.9,3.2c0.4,1.2,0.6,2.5,0.6,3.7c0,1.3-0.2,2.5-0.6,3.7c-0.4,1.2-1,2.3-1.9,3.2
	c-0.9,0.9-2,1.7-3.4,2.3c-1.4,0.6-3.1,0.9-5,0.9h-7.3v11.3h-6.9v-31.5H758.1z M756.2,537.5c0.8,0,1.6-0.1,2.3-0.2
	c0.7-0.1,1.4-0.3,1.9-0.7c0.6-0.3,1-0.8,1.3-1.4c0.3-0.6,0.5-1.4,0.5-2.4c0-1-0.2-1.8-0.5-2.4c-0.3-0.6-0.8-1.1-1.3-1.4
	c-0.6-0.3-1.2-0.6-1.9-0.7c-0.7-0.1-1.5-0.2-2.3-0.2h-5.4v9.4H756.2z"/>
<path class="st3" d="M739.6,522.7v2.6h-18.7v11.4h17.5v2.6h-17.5v12.4h19v2.6h-22v-31.5H739.6z M692.3,547.9c0.5,1.1,1.3,2,2.2,2.6
	c0.9,0.6,2,1.1,3.3,1.4c1.3,0.3,2.6,0.4,4.1,0.4c0.8,0,1.7-0.1,2.7-0.4c1-0.2,1.9-0.6,2.7-1.1c0.8-0.5,1.5-1.2,2.1-2
	c0.6-0.8,0.8-1.8,0.8-2.9c0-0.9-0.2-1.6-0.6-2.3c-0.4-0.6-0.9-1.2-1.5-1.6c-0.6-0.4-1.3-0.8-2.1-1.1c-0.8-0.3-1.5-0.5-2.2-0.7
	l-7-1.7c-0.9-0.2-1.8-0.5-2.7-0.9c-0.9-0.4-1.6-0.8-2.3-1.4c-0.6-0.6-1.2-1.3-1.6-2.2c-0.4-0.9-0.6-1.9-0.6-3.1
	c0-0.8,0.1-1.7,0.4-2.7c0.3-1,0.8-2,1.7-2.9c0.8-0.9,1.9-1.7,3.3-2.3c1.4-0.6,3.2-0.9,5.4-0.9c1.6,0,3,0.2,4.5,0.6
	c1.4,0.4,2.6,1,3.7,1.9c1.1,0.8,1.9,1.8,2.5,3.1c0.6,1.2,0.9,2.6,0.9,4.3h-3c-0.1-1.2-0.3-2.3-0.8-3.2c-0.5-0.9-1.1-1.6-1.9-2.2
	c-0.8-0.6-1.7-1.1-2.7-1.4c-1-0.3-2.1-0.5-3.2-0.5c-1,0-2,0.1-3,0.3c-1,0.2-1.8,0.6-2.5,1.1c-0.7,0.5-1.3,1.1-1.7,1.9
	c-0.4,0.8-0.7,1.8-0.7,3c0,0.7,0.1,1.4,0.4,1.9c0.2,0.5,0.6,1,1,1.4c0.4,0.4,0.9,0.7,1.5,0.9c0.6,0.2,1.2,0.4,1.8,0.6l7.7,1.9
	c1.1,0.3,2.2,0.7,3.2,1.1c1,0.4,1.9,1,2.6,1.6c0.7,0.6,1.3,1.4,1.8,2.3c0.4,0.9,0.6,2,0.6,3.3c0,0.4,0,0.8-0.1,1.4
	c-0.1,0.6-0.3,1.2-0.5,1.9c-0.3,0.7-0.7,1.3-1.2,2c-0.5,0.7-1.2,1.3-2.1,1.8c-0.9,0.5-2,1-3.3,1.3c-1.3,0.3-2.9,0.5-4.8,0.5
	c-1.9,0-3.6-0.2-5.2-0.6c-1.6-0.4-2.9-1.1-4.1-2c-1.1-0.9-2-2-2.6-3.4c-0.6-1.4-0.9-3-0.8-5h3C691.5,545.4,691.7,546.8,692.3,547.9
	 M669.3,551.6c2.3,0,4.2-0.2,5.8-0.7c1.6-0.5,3-1.3,4-2.3c1.1-1.1,1.8-2.4,2.3-4.1c0.5-1.7,0.8-3.7,0.8-6c0-2.4-0.3-4.4-0.8-6
	c-0.5-1.7-1.3-3-2.3-4.1c-1.1-1.1-2.4-1.8-4-2.3c-1.6-0.5-3.6-0.7-5.8-0.7h-6.4v26.4H669.3z M670.8,522.7c4.8,0.1,8.4,1.5,10.8,4
	c2.4,2.6,3.6,6.5,3.6,11.7c0,5.2-1.2,9.1-3.6,11.7c-2.4,2.6-6,3.9-10.8,4h-10.9v-31.5H670.8z"/>
<path class="st4" d="M1035.2,351.2h57.3c3.6,0,6.5-2.9,6.5-6.5v-24.2h-6.5l-4.3,4.9l57.1,50l4.3-4.9l-4.3-4.9l-57.8,50l4.3,4.9h6.5
	v-24.2c0-3.6-2.9-6.5-6.5-6.5h-69.6v6.5h6.5v-25.8c0-2.6-1.5-4.9-3.9-6c-2.4-1-5.1-0.6-7,1.2l-57.6,52.5c-1.4,1.3-2.2,3.1-2.1,4.9
	c0,1.9,0.8,3.6,2.3,4.9l57.1,49.3c1.9,1.7,4.7,2.1,7,1c2.3-1.1,3.8-3.4,3.8-5.9v-22.7h-6.5v6.5h57.8c3.6,0,6.5-2.9,6.5-6.5
	c0-3.6-2.9-6.5-6.5-6.5h-57.8c-3.6,0-6.5,2.9-6.5,6.5v22.7h6.5l4.3-5L968.9,418l-4.3,5l4.4,4.8l57.6-52.5l-4.4-4.8h-6.5v25.8
	c0,3.6,2.9,6.5,6.5,6.5h69.6v-6.5h-6.5v24.2c0,2.6,1.5,4.9,3.8,6c2.3,1.1,5.1,0.7,7-1l57.8-50c1.4-1.2,2.3-3,2.3-4.9
	c0-1.9-0.8-3.7-2.2-4.9l-57.1-50c-1.9-1.7-4.7-2.1-7-1c-2.3,1.1-3.8,3.4-3.8,6v24.2h6.5v-6.5h-57.3c-3.6,0-6.5,2.9-6.5,6.5
	C1028.7,348.3,1031.6,351.2,1035.2,351.2"/>
<path class="st1" d="M1123.5,526.4c0.5-1.2,1.3-2.2,2.2-3c0.9-0.8,2-1.5,3.1-1.9c1.2-0.5,2.4-0.7,3.7-0.7c1.3,0,2.5,0.2,3.7,0.7
	c1.2,0.5,2.2,1.1,3.1,1.9c0.9,0.8,1.6,1.8,2.2,3c0.5,1.2,0.8,2.5,0.8,4c0,1.5-0.3,2.8-0.8,4c-0.5,1.2-1.3,2.2-2.2,3
	c-0.9,0.8-2,1.5-3.1,1.9c-1.2,0.4-2.4,0.7-3.7,0.7c-1.3,0-2.5-0.2-3.7-0.7c-1.2-0.4-2.2-1.1-3.1-1.9c-0.9-0.8-1.6-1.9-2.2-3
	c-0.5-1.2-0.8-2.5-0.8-4C1122.6,528.9,1122.9,527.5,1123.5,526.4 M1125.8,533.3c0.4,0.9,0.9,1.7,1.5,2.4c0.7,0.7,1.4,1.2,2.3,1.6
	c0.9,0.4,1.8,0.6,2.8,0.6c1,0,1.9-0.2,2.8-0.6c0.9-0.4,1.6-0.9,2.3-1.6c0.7-0.7,1.2-1.5,1.6-2.4c0.4-0.9,0.6-1.9,0.6-3
	c0-1.1-0.2-2.1-0.6-3c-0.4-0.9-0.9-1.7-1.6-2.4c-0.7-0.7-1.4-1.2-2.3-1.6c-0.9-0.4-1.8-0.6-2.8-0.6c-1,0-2,0.2-2.8,0.6
	c-0.9,0.4-1.7,0.9-2.3,1.6c-0.7,0.7-1.2,1.5-1.5,2.4c-0.4,0.9-0.6,1.9-0.6,3C1125.3,531.4,1125.5,532.4,1125.8,533.3 M1132.8,524.9
	c1.4,0,2.4,0.2,3.1,0.7c0.7,0.5,1.1,1.3,1.1,2.5c0,0.5-0.1,0.9-0.2,1.3c-0.1,0.4-0.3,0.6-0.6,0.9s-0.6,0.4-0.9,0.5
	c-0.3,0.1-0.7,0.2-1.1,0.2l2.9,4.7h-2.2l-2.6-4.6h-1.3v4.6h-2.1v-10.8H1132.8z M1132.7,529.4c0.6,0,1.1-0.1,1.5-0.3
	c0.4-0.2,0.6-0.6,0.6-1.2c0-0.3-0.1-0.5-0.2-0.7c-0.1-0.2-0.3-0.3-0.5-0.4c-0.2-0.1-0.5-0.2-0.7-0.2c-0.3,0-0.5-0.1-0.8-0.1h-1.8
	v2.8H1132.7z M1106.2,548.5c0.3,0.5,0.6,0.9,1.1,1.2c0.4,0.3,0.9,0.5,1.5,0.7c0.6,0.1,1.2,0.2,1.8,0.2c0.4,0,0.9-0.1,1.4-0.2
	c0.5-0.1,0.9-0.3,1.3-0.5c0.4-0.2,0.7-0.5,1-0.9c0.3-0.4,0.4-0.8,0.4-1.4c0-0.9-0.6-1.6-1.9-2.1c-1.3-0.5-3-0.9-5.2-1.4
	c-0.9-0.2-1.8-0.4-2.7-0.7c-0.9-0.3-1.6-0.6-2.3-1.1c-0.7-0.5-1.2-1-1.6-1.7c-0.4-0.7-0.6-1.5-0.6-2.5c0-1.5,0.3-2.7,0.9-3.6
	c0.6-0.9,1.3-1.7,2.3-2.2c0.9-0.5,2-0.9,3.2-1.1c1.2-0.2,2.4-0.3,3.6-0.3c1.2,0,2.4,0.1,3.6,0.4c1.2,0.2,2.2,0.6,3.1,1.2
	c0.9,0.6,1.7,1.3,2.3,2.2c0.6,0.9,1,2.1,1.1,3.5h-6c-0.1-1.2-0.5-2-1.4-2.4c-0.8-0.4-1.8-0.6-2.9-0.6c-0.4,0-0.7,0-1.1,0.1
	c-0.4,0-0.8,0.1-1.1,0.3c-0.3,0.1-0.6,0.4-0.9,0.6c-0.2,0.3-0.4,0.7-0.4,1.1c0,0.6,0.2,1,0.6,1.4c0.4,0.4,0.9,0.6,1.6,0.9
	c0.7,0.2,1.4,0.4,2.3,0.6c0.9,0.2,1.7,0.4,2.6,0.6c0.9,0.2,1.8,0.5,2.7,0.7c0.9,0.3,1.6,0.7,2.3,1.2c0.7,0.5,1.2,1.1,1.6,1.8
	c0.4,0.7,0.6,1.6,0.6,2.7c0,1.5-0.3,2.8-0.9,3.8c-0.6,1-1.4,1.8-2.4,2.4c-1,0.6-2.1,1.1-3.3,1.3c-1.2,0.3-2.5,0.4-3.8,0.4
	c-1.3,0-2.6-0.1-3.9-0.4c-1.3-0.3-2.4-0.7-3.4-1.3c-1-0.6-1.8-1.4-2.4-2.4c-0.6-1-1-2.3-1-3.8h6
	C1105.8,547.5,1105.9,548,1106.2,548.5 M1097.9,531.4v4.2h-4.6v11.3c0,1.1,0.2,1.8,0.5,2.1c0.4,0.4,1.1,0.5,2.1,0.5c0.4,0,0.7,0,1,0
	c0.3,0,0.6-0.1,0.9-0.1v4.8c-0.5,0.1-1.1,0.1-1.8,0.2c-0.6,0-1.3,0-1.9,0c-1,0-1.9-0.1-2.8-0.2c-0.9-0.1-1.6-0.4-2.3-0.8
	c-0.7-0.4-1.2-0.9-1.6-1.6c-0.4-0.7-0.6-1.6-0.6-2.8v-13.4h-3.8v-4.2h3.8v-6.8h6.3v6.8H1097.9z M1071.6,522.7l11.8,31.5h-7.2l-2.4-7
	H1062l-2.5,7h-7l11.9-31.5H1071.6z M1072,542l-4-11.5h-0.1l-4.1,11.5H1072z"/>
<path class="st4" d="M1051.6,522.7v2.6h-18.7v11.4h17.5v2.6h-17.5v12.4h19v2.6h-22v-31.5H1051.6z M1004.3,547.9
	c0.5,1.1,1.3,2,2.2,2.6c0.9,0.6,2,1.1,3.3,1.4c1.3,0.3,2.6,0.4,4.1,0.4c0.8,0,1.7-0.1,2.7-0.4c1-0.2,1.9-0.6,2.7-1.1
	c0.8-0.5,1.5-1.2,2.1-2c0.6-0.8,0.8-1.8,0.8-2.9c0-0.9-0.2-1.6-0.6-2.3c-0.4-0.6-0.9-1.2-1.5-1.6c-0.6-0.4-1.3-0.8-2.1-1.1
	c-0.8-0.3-1.5-0.5-2.2-0.7l-7-1.7c-0.9-0.2-1.8-0.5-2.7-0.9c-0.9-0.4-1.6-0.8-2.3-1.4c-0.6-0.6-1.2-1.3-1.6-2.2
	c-0.4-0.9-0.6-1.9-0.6-3.1c0-0.8,0.1-1.7,0.4-2.7c0.3-1,0.8-2,1.7-2.9c0.8-0.9,1.9-1.7,3.3-2.3c1.4-0.6,3.2-0.9,5.4-0.9
	c1.6,0,3,0.2,4.5,0.6c1.4,0.4,2.6,1,3.7,1.9c1.1,0.8,1.9,1.8,2.5,3.1c0.6,1.2,0.9,2.6,0.9,4.3h-3c-0.1-1.2-0.3-2.3-0.8-3.2
	c-0.5-0.9-1.1-1.6-1.9-2.2c-0.8-0.6-1.7-1.1-2.7-1.4c-1-0.3-2.1-0.5-3.2-0.5c-1,0-2,0.1-3,0.3c-1,0.2-1.8,0.6-2.5,1.1
	c-0.7,0.5-1.3,1.1-1.7,1.9c-0.4,0.8-0.7,1.8-0.7,3c0,0.7,0.1,1.4,0.4,1.9c0.2,0.5,0.6,1,1,1.4c0.4,0.4,0.9,0.7,1.5,0.9
	c0.6,0.2,1.2,0.4,1.8,0.6l7.7,1.9c1.1,0.3,2.2,0.7,3.2,1.1c1,0.4,1.9,1,2.6,1.6c0.7,0.6,1.3,1.4,1.8,2.3c0.4,0.9,0.6,2,0.6,3.3
	c0,0.4,0,0.8-0.1,1.4c-0.1,0.6-0.3,1.2-0.5,1.9c-0.3,0.7-0.7,1.3-1.2,2c-0.5,0.7-1.2,1.3-2.1,1.8c-0.9,0.5-2,1-3.3,1.3
	c-1.3,0.3-2.9,0.5-4.8,0.5c-1.9,0-3.6-0.2-5.2-0.6c-1.6-0.4-2.9-1.1-4.1-2c-1.1-0.9-2-2-2.6-3.4c-0.6-1.4-0.9-3-0.8-5h3
	C1003.5,545.4,1003.7,546.8,1004.3,547.9 M981.3,551.6c2.3,0,4.2-0.2,5.8-0.7c1.6-0.5,3-1.3,4-2.3s1.8-2.4,2.3-4.1
	c0.5-1.7,0.8-3.7,0.8-6c0-2.4-0.3-4.4-0.8-6c-0.5-1.7-1.3-3-2.3-4.1c-1.1-1.1-2.4-1.8-4-2.3c-1.6-0.5-3.6-0.7-5.8-0.7h-6.4v26.4
	H981.3z M982.8,522.7c4.8,0.1,8.4,1.5,10.8,4c2.4,2.6,3.6,6.5,3.6,11.7c0,5.2-1.2,9.1-3.6,11.7c-2.4,2.6-6,3.9-10.8,4h-10.9v-31.5
	H982.8z"/>
<g>
	<path class="st1" d="M335.8,28.9h30.8c6.9,0,12.2,0.5,15.9,1.6c4.9,1.4,9.1,4,12.6,7.7c3.5,3.7,6.1,8.2,8,13.5
		c1.8,5.3,2.7,11.9,2.7,19.7c0,6.9-0.9,12.8-2.6,17.7c-2.1,6.1-5.1,11-8.9,14.7c-2.9,2.8-6.9,5.1-11.8,6.7
		c-3.7,1.2-8.7,1.8-14.9,1.8h-31.7V28.9z M352.6,43v55.2h12.6c4.7,0,8.1-0.3,10.2-0.8c2.7-0.7,5-1.8,6.8-3.5c1.8-1.6,3.3-4.3,4.4-8
		c1.1-3.7,1.7-8.8,1.7-15.3c0-6.4-0.6-11.4-1.7-14.8c-1.1-3.4-2.7-6.1-4.8-8.1c-2-1.9-4.6-3.2-7.8-3.9c-2.4-0.5-7-0.8-13.8-0.8
		H352.6z"/>
	<path class="st1" d="M419.9,112.3V28.9h61.8V43h-45v18.5h41.8v14h-41.8v22.7h46.6v14H419.9z"/>
	<path class="st1" d="M497.6,112.3V28.9h61.8V43h-45v18.5h41.8v14h-41.8v22.7H561v14H497.6z"/>
	<path class="st1" d="M575.2,112.3V28.9h27c10.2,0,16.9,0.4,20,1.3c4.8,1.3,8.8,4,12,8.2c3.2,4.2,4.8,9.6,4.8,16.2
		c0,5.1-0.9,9.4-2.8,12.9c-1.9,3.5-4.2,6.2-7.1,8.2c-2.9,2-5.8,3.3-8.7,4c-4,0.8-9.8,1.2-17.5,1.2h-11v31.4H575.2z M592.1,43v23.7
		h9.2c6.6,0,11.1-0.4,13.3-1.3c2.2-0.9,4-2.2,5.3-4.1c1.3-1.9,1.9-4,1.9-6.5c0-3-0.9-5.5-2.7-7.5c-1.8-2-4-3.2-6.8-3.7
		c-2-0.4-6-0.6-12.1-0.6H592.1z"/>
	<path class="st1" d="M678.9,85.1l16.4-1.6c1,5.5,3,9.5,6,12.1c3,2.6,7.1,3.9,12.2,3.9c5.4,0,9.5-1.1,12.3-3.4c2.7-2.3,4.1-5,4.1-8
		c0-2-0.6-3.6-1.7-5c-1.2-1.4-3.2-2.6-6.1-3.6c-2-0.7-6.5-1.9-13.5-3.6c-9-2.2-15.4-5-19-8.2c-5.1-4.6-7.7-10.2-7.7-16.8
		c0-4.2,1.2-8.2,3.6-11.9c2.4-3.7,5.9-6.5,10.4-8.4c4.5-1.9,10-2.9,16.4-2.9c10.5,0,18.3,2.3,23.6,6.9c5.3,4.6,8.1,10.7,8.3,18.4
		l-16.8,0.7c-0.7-4.3-2.3-7.4-4.6-9.2c-2.4-1.9-5.9-2.8-10.7-2.8c-4.9,0-8.7,1-11.5,3c-1.8,1.3-2.7,3-2.7,5.2c0,2,0.8,3.7,2.5,5.1
		c2.1,1.8,7.3,3.6,15.5,5.6c8.2,1.9,14.2,3.9,18.2,6c3.9,2.1,7,4.9,9.2,8.5c2.2,3.6,3.3,8,3.3,13.3c0,4.8-1.3,9.2-4,13.4
		c-2.7,4.2-6.4,7.3-11.3,9.3c-4.9,2-10.9,3-18.1,3c-10.5,0-18.6-2.4-24.3-7.3C683.3,101.6,680,94.5,678.9,85.1z"/>
	<path class="st1" d="M760.8,112.3V28.9h61.8V43h-45v18.5h41.8v14h-41.8v22.7h46.6v14H760.8z"/>
	<path class="st1" d="M913.6,112.3h-18.3L888,93.3h-33.3l-6.9,18.9H830l32.5-83.4h17.8L913.6,112.3z M882.6,79.3l-11.5-30.9
		l-11.3,30.9H882.6z"/>
	<path class="st1" d="M335.8,222.2v-83.4h61.8v14.1h-45v18.5h41.8v14h-41.8v22.7h46.6v14H335.8z"/>
	<path class="st1" d="M413.9,222.2v-82.7h16.8v68.6h41.8v14H413.9z"/>
	<path class="st1" d="M484.6,222.2v-83.4h61.8v14.1h-45v18.5h41.8v14h-41.8v22.7H548v14H484.6z"/>
	<path class="st1" d="M615.6,191.5l16.3,5.2c-2.5,9.1-6.7,15.9-12.5,20.3c-5.8,4.4-13.2,6.6-22.1,6.6c-11.1,0-20.2-3.8-27.3-11.3
		c-7.1-7.6-10.7-17.9-10.7-31c0-13.9,3.6-24.6,10.7-32.3c7.2-7.7,16.6-11.5,28.3-11.5c10.2,0,18.5,3,24.8,9
		c3.8,3.6,6.6,8.7,8.5,15.4l-16.7,4c-1-4.3-3-7.7-6.2-10.2c-3.1-2.5-6.9-3.8-11.4-3.8c-6.2,0-11.2,2.2-15,6.7
		c-3.8,4.4-5.8,11.6-5.8,21.5c0,10.5,1.9,18,5.7,22.5c3.8,4.5,8.7,6.7,14.8,6.7c4.5,0,8.3-1.4,11.5-4.3
		C611.9,202.1,614.2,197.6,615.6,191.5z"/>
	<path class="st1" d="M665.1,222.2v-69.3h-24.7v-14.1h66.2v14.1h-24.7v69.3H665.1z"/>
	<path class="st1" d="M717.5,222.2v-83.4H753c8.9,0,15.4,0.7,19.4,2.2c4,1.5,7.3,4.2,9.7,8c2.4,3.8,3.6,8.2,3.6,13.1
		c0,6.3-1.8,11.4-5.5,15.5c-3.7,4.1-9.2,6.6-16.5,7.7c3.6,2.1,6.6,4.5,9,7c2.4,2.5,5.6,7.1,9.6,13.5l10.2,16.3h-20.1L760.2,204
		c-4.3-6.5-7.3-10.6-8.9-12.3c-1.6-1.7-3.3-2.8-5.1-3.5c-1.8-0.6-4.6-0.9-8.5-0.9h-3.4v34.8H717.5z M734.4,174.1h12.5
		c8.1,0,13.1-0.3,15.1-1c2-0.7,3.6-1.9,4.7-3.5c1.1-1.7,1.7-3.8,1.7-6.3c0-2.8-0.7-5.1-2.2-6.8c-1.5-1.7-3.6-2.8-6.3-3.3
		c-1.4-0.2-5.5-0.3-12.3-0.3h-13.1V174.1z"/>
	<path class="st1" d="M798.2,181c0-8.5,1.3-15.6,3.8-21.4c1.9-4.2,4.5-8.1,7.8-11.4c3.3-3.4,6.9-5.9,10.8-7.5
		c5.2-2.2,11.2-3.3,18-3.3c12.3,0,22.1,3.8,29.5,11.4c7.4,7.6,11.1,18.2,11.1,31.8c0,13.5-3.7,24-11,31.6
		c-7.3,7.6-17.1,11.4-29.3,11.4c-12.4,0-22.3-3.8-29.6-11.3C801.8,204.7,798.2,194.3,798.2,181z M815.5,180.4
		c0,9.4,2.2,16.6,6.5,21.5c4.4,4.9,9.9,7.3,16.6,7.3c6.7,0,12.2-2.4,16.5-7.2c4.3-4.8,6.5-12.1,6.5-21.7c0-9.6-2.1-16.7-6.3-21.4
		c-4.2-4.7-9.8-7.1-16.7-7.1c-6.9,0-12.5,2.4-16.8,7.1C817.6,163.7,815.5,170.8,815.5,180.4z"/>
	<path class="st1" d="M892.3,222.2v-83.4h16.4l34.1,55.7v-55.7h15.6v83.4h-16.9l-33.6-54.4v54.4H892.3z"/>
	<path class="st1" d="M975.7,222.2v-83.4h16.8v83.4H975.7z"/>
	<path class="st1" d="M1061.9,191.5l16.3,5.2c-2.5,9.1-6.7,15.9-12.5,20.3c-5.8,4.4-13.2,6.6-22.1,6.6c-11.1,0-20.2-3.8-27.3-11.3
		c-7.1-7.6-10.7-17.9-10.7-31c0-13.9,3.6-24.6,10.7-32.3c7.2-7.7,16.6-11.5,28.3-11.5c10.2,0,18.5,3,24.8,9
		c3.8,3.6,6.6,8.7,8.5,15.4l-16.7,4c-1-4.3-3-7.7-6.2-10.2c-3.1-2.5-6.9-3.8-11.4-3.8c-6.2,0-11.2,2.2-15,6.7
		c-3.8,4.4-5.8,11.6-5.8,21.5c0,10.5,1.9,18,5.7,22.5c3.8,4.5,8.7,6.7,14.8,6.7c4.5,0,8.3-1.4,11.5-4.3
		C1058.2,202.1,1060.5,197.6,1061.9,191.5z"/>
	<path class="st1" d="M1088.4,195l16.4-1.6c1,5.5,3,9.5,6,12.1c3,2.6,7.1,3.9,12.2,3.9c5.4,0,9.5-1.1,12.3-3.4c2.7-2.3,4.1-5,4.1-8
		c0-2-0.6-3.6-1.7-5c-1.2-1.4-3.2-2.6-6.1-3.6c-2-0.7-6.5-1.9-13.5-3.6c-9-2.2-15.4-5-19-8.2c-5.1-4.6-7.7-10.2-7.7-16.8
		c0-4.2,1.2-8.2,3.6-11.9c2.4-3.7,5.9-6.5,10.4-8.4c4.5-1.9,10-2.9,16.4-2.9c10.5,0,18.3,2.3,23.6,6.9c5.3,4.6,8.1,10.7,8.3,18.4
		l-16.8,0.7c-0.7-4.3-2.3-7.4-4.6-9.2c-2.4-1.9-5.9-2.8-10.7-2.8c-4.9,0-8.7,1-11.5,3c-1.8,1.3-2.7,3-2.7,5.2c0,2,0.8,3.7,2.5,5.1
		c2.1,1.8,7.3,3.6,15.5,5.6c8.2,1.9,14.2,3.9,18.2,6c3.9,2.1,7,4.9,9.2,8.5c2.2,3.6,3.3,8,3.3,13.3c0,4.8-1.3,9.2-4,13.4
		c-2.7,4.2-6.4,7.3-11.3,9.3c-4.9,2-10.9,3-18.1,3c-10.5,0-18.6-2.4-24.3-7.3C1092.9,211.5,1089.5,204.4,1088.4,195z"/>
</g>
<rect x="0" width="251.1" height="251.1"/>
<polygon class="st1" points="2.1,2.1 2.1,4.1 249.1,4.1 249.1,2.1 247,2.1 247,249.1 249.1,249.1 249.1,247 2.1,247 2.1,249.1 
	4.1,249.1 4.1,2.1 2.1,2.1 2.1,4.1 2.1,2.1 0,2.1 0,249.1 0,251.1 2.1,251.1 249.1,251.1 251.1,251.1 251.1,249.1 251.1,2.1 
	251.1,0 249.1,0 2.1,0 0,0 0,2.1 2.1,2.1 "/>
<polygon class="st1" points="170,240.2 170,153.1 239.3,153.1 239.3,171.8 192.6,171.8 192.6,186.7 235.3,186.7 235.3,204.6 
	192.6,204.6 192.6,220.4 240.5,220.4 240.5,240.2 170,240.2 "/>
<path class="st1" d="M91.1,210.8h22.7c0.5,10.2,6.7,13.5,16.2,13.5c6.7,0,13.7-2.4,13.7-8.9c0-7.7-12.2-9.1-25.1-12.6
	c-12.4-3.5-25.5-9.1-25.5-25.1c0-19.2,19.1-26.7,35.4-26.7c17.3,0,34.7,8.5,34.8,28.3h-22.7c0.4-7.9-7-10.5-14-10.5
	c-4.9,0-10.9,1.7-10.9,7.4c0,6.7,12.5,7.9,25.3,11.4c12.5,3.5,25.2,9.4,25.2,25.1c0,22.2-18.8,29.4-37.6,29.4
	C108.9,242.2,91.2,233.3,91.1,210.8L91.1,210.8L91.1,210.8z"/>
<path class="st1" d="M11,240.2V153h37.4c26.7,0,42.7,16.5,42.7,43.2c0,28.3-16.2,44-42.7,44H11L11,240.2z M33.6,172.9v47.6h10.7
	c17.2-0.4,24-7,24-24.3c0-15.7-8.5-23.3-24-23.3H33.6L33.6,172.9z"/>
<path d="M265.4,11.1V7.9h2.1c1.1,0,2.2,0.2,2.2,1.5c0,1.6-1.2,1.7-2.5,1.7H265.4L265.4,11.1z M265.4,12.4h1.8l2.7,4.5h1.8l-2.9-4.5
	c1.5-0.2,2.7-1,2.7-2.8c0-2-1.2-2.9-3.6-2.9h-3.9v10.3h1.6V12.4L265.4,12.4z M260.1,11.7c0-4.2,3.2-7.4,7.3-7.4c4,0,7.2,3.2,7.2,7.4
	c0,4.3-3.2,7.5-7.2,7.5C263.2,19.2,260.1,16,260.1,11.7L260.1,11.7z M267.3,20.7c4.9,0,9-3.8,9-9c0-5.1-4.2-8.9-9-8.9
	c-4.9,0-9.1,3.8-9.1,8.9C258.3,16.9,262.4,20.7,267.3,20.7L267.3,20.7z"/>
</svg>
