<?xml version="1.0" encoding="utf-8"?>
<!-- Generator: Adobe Illustrator 19.0.0, SVG Export Plug-In . SVG Version: 6.00 Build 0)  -->
<svg version="1.1" id="Layer_1" xmlns="http://www.w3.org/2000/svg" xmlns:xlink="http://www.w3.org/1999/xlink" x="0px" y="0px"
	 viewBox="0 0 941 257" style="enable-background:new 0 0 941 257;" xml:space="preserve">
<style type="text/css">
	.st0{fill:#FFFFFF;}
</style>
<g>
	<polygon class="st0" points="4.5,5.3 4.5,7.3 250.4,7.3 250.4,5.3 248.4,5.3 248.4,251.2 250.4,251.2 250.4,249.1 4.5,249.1 
		4.5,251.2 6.6,251.2 6.6,5.3 4.5,5.3 4.5,7.3 4.5,5.3 2.5,5.3 2.5,251.2 2.5,253.2 4.5,253.2 250.4,253.2 252.5,253.2 252.5,251.2 
		252.5,5.3 252.5,3.2 250.4,3.2 4.5,3.2 2.5,3.2 2.5,5.3 	"/>
	<polygon class="st0" points="171.7,242.4 171.7,155.7 240.7,155.7 240.7,174.2 194.2,174.2 194.2,189.1 236.7,189.1 236.7,206.9 
		194.2,206.9 194.2,222.6 241.9,222.6 241.9,242.4 	"/>
	<path class="st0" d="M93.2,213.1h22.6c0.5,10.2,6.7,13.5,16.1,13.5c6.7,0,13.6-2.4,13.6-8.9c0-7.6-12.2-9.1-25-12.5
		c-12.4-3.5-25.3-9.1-25.3-25c0-19.1,19-26.6,35.2-26.6c17.2,0,34.5,8.5,34.7,28.2h-22.6c0.4-7.9-7-10.4-13.9-10.4
		c-4.8,0-10.9,1.7-10.9,7.4c0,6.7,12.5,7.9,25.2,11.3c12.5,3.5,25.1,9.3,25.1,25c0,22.1-18.7,29.3-37.5,29.3
		C110.9,244.3,93.3,235.5,93.2,213.1"/>
	<path class="st0" d="M13.4,242.4v-86.8h37.3c26.6,0,42.5,16.4,42.5,43c0,28.2-16.1,43.8-42.5,43.8H13.4z M36,175.3v47.3h10.7
		c17.1-0.4,23.9-7,23.9-24.1c0-15.6-8.5-23.2-23.9-23.2H36z"/>
	<path class="st0" d="M266.7,14.3v-3.2h2.1c1.1,0,2.2,0.2,2.2,1.5c0,1.6-1.2,1.7-2.5,1.7H266.7z M266.7,15.6h1.8l2.7,4.4h1.7
		l-2.9-4.5c1.5-0.2,2.7-1,2.7-2.8c0-2-1.2-2.9-3.6-2.9h-3.9V20h1.5V15.6z M261.4,14.9c0-4.2,3.2-7.4,7.2-7.4c4,0,7.2,3.2,7.2,7.4
		c0,4.3-3.2,7.4-7.2,7.4C264.5,22.3,261.4,19.2,261.4,14.9 M268.6,23.8c4.8,0,9-3.8,9-8.9c0-5.1-4.1-8.9-9-8.9c-4.9,0-9,3.8-9,8.9
		C259.6,20,263.7,23.8,268.6,23.8"/>
</g>
<g>
	<path class="st0" d="M342.6,69.2h25c4.9,0,8.9,0.7,11.9,2s5.5,3.3,7.5,5.8c2,2.5,3.4,5.4,4.3,8.7c0.9,3.3,1.3,6.8,1.3,10.5
		c0,5.8-0.7,10.3-2,13.5c-1.3,3.2-3.2,5.9-5.5,8.1c-2.4,2.2-4.9,3.6-7.6,4.3c-3.7,1-7,1.5-10,1.5h-25V69.2z M359.4,81.5v29.7h4.1
		c3.5,0,6-0.4,7.5-1.2s2.6-2.1,3.5-4.1c0.8-1.9,1.3-5.1,1.3-9.4c0-5.8-0.9-9.7-2.8-11.8c-1.9-2.1-5-3.2-9.4-3.2H359.4z"/>
	<path class="st0" d="M401.4,69.2h45v11.6h-28.2v8.6h26.2v11.1h-26.2v10.7h29v12.3h-45.9V69.2z"/>
	<path class="st0" d="M456.3,69.2h45v11.6h-28.2v8.6h26.2v11.1h-26.2v10.7h29v12.3h-45.9V69.2z"/>
	<path class="st0" d="M511.2,69.2h27.9c6.1,0,10.6,1.4,13.7,4.3s4.5,7,4.5,12.4c0,5.5-1.7,9.8-5,12.9c-3.3,3.1-8.3,4.6-15.1,4.6
		h-9.2v20.2h-16.9V69.2z M528.1,92.3h4.1c3.2,0,5.5-0.6,6.8-1.7c1.3-1.1,2-2.6,2-4.3c0-1.7-0.6-3.2-1.7-4.3s-3.3-1.8-6.4-1.8h-4.8
		V92.3z"/>
	<path class="st0" d="M588.5,105.6l16-1c0.3,2.6,1.1,4.6,2.1,5.9c1.7,2.2,4.2,3.3,7.4,3.3c2.4,0,4.2-0.6,5.5-1.7
		c1.3-1.1,1.9-2.4,1.9-3.9c0-1.4-0.6-2.7-1.9-3.8s-4.1-2.2-8.6-3.2c-7.4-1.7-12.6-3.9-15.8-6.6c-3.2-2.7-4.8-6.2-4.8-10.5
		c0-2.8,0.8-5.4,2.4-7.9c1.6-2.5,4.1-4.4,7.3-5.9c3.3-1.4,7.7-2.1,13.4-2.1c7,0,12.3,1.3,15.9,3.9c3.6,2.6,5.8,6.7,6.5,12.3
		l-15.8,0.9c-0.4-2.4-1.3-4.2-2.7-5.3s-3.2-1.7-5.6-1.7c-2,0-3.4,0.4-4.4,1.2c-1,0.8-1.5,1.8-1.5,3c0,0.9,0.4,1.6,1.2,2.3
		c0.8,0.7,2.7,1.4,5.6,2c7.3,1.6,12.6,3.2,15.8,4.8c3.2,1.6,5.5,3.6,6.9,6c1.4,2.4,2.2,5.1,2.2,8.1c0,3.5-1,6.7-2.9,9.6
		c-1.9,2.9-4.6,5.2-8.1,6.7s-7.8,2.3-13.1,2.3c-9.3,0-15.7-1.8-19.2-5.3S589,111,588.5,105.6z"/>
	<path class="st0" d="M646.3,69.2h45v11.6h-28.2v8.6h26.2v11.1h-26.2v10.7h29v12.3h-45.9V69.2z"/>
	<path class="st0" d="M734.7,114.6h-19.1l-2.7,9h-17.2l20.4-54.4h18.3l20.4,54.4h-17.6L734.7,114.6z M731.2,102.8l-6-19.6l-5.9,19.6
		H731.2z"/>
	<path class="st0" d="M342.3,137.2h45v11.6h-28.2v8.6h26.2v11.1h-26.2v10.7h29v12.3h-45.9V137.2z"/>
	<path class="st0" d="M397.2,137.2h16.8v41h26.2v13.4h-43V137.2z"/>
	<path class="st0" d="M447.9,137.2h45v11.6h-28.2v8.6h26.2v11.1h-26.2v10.7h29v12.3h-45.9V137.2z"/>
	<path class="st0" d="M539,169.3l14.7,4.5c-1,4.1-2.5,7.6-4.7,10.4c-2.1,2.8-4.8,4.9-7.9,6.3s-7.2,2.1-12,2.1
		c-5.9,0-10.7-0.9-14.5-2.6s-7-4.7-9.7-9.1c-2.7-4.3-4.1-9.9-4.1-16.6c0-9,2.4-15.9,7.2-20.7s11.6-7.3,20.3-7.3
		c6.9,0,12.2,1.4,16.2,4.2s6.8,7,8.7,12.8l-14.8,3.3c-0.5-1.7-1.1-2.9-1.6-3.6c-0.9-1.3-2.1-2.3-3.5-3s-2.9-1-4.6-1
		c-3.8,0-6.7,1.5-8.8,4.6c-1.5,2.3-2.3,5.8-2.3,10.7c0,6,0.9,10.2,2.7,12.4c1.8,2.2,4.4,3.4,7.7,3.4c3.2,0,5.6-0.9,7.3-2.7
		C537.1,175.4,538.3,172.7,539,169.3z"/>
	<path class="st0" d="M558.1,137.2h51.1v13.4h-17.1v41h-16.8v-41h-17.1V137.2z"/>
	<path class="st0" d="M617,191.6v-54.4h28c5.2,0,9.2,0.4,11.9,1.3s5,2.5,6.6,5s2.5,5.3,2.5,8.8c0,3-0.6,5.6-1.9,7.8
		c-1.3,2.2-3.1,4-5.3,5.3c-1.4,0.9-3.4,1.6-5.9,2.2c2,0.7,3.5,1.3,4.4,2c0.6,0.4,1.5,1.4,2.7,2.9c1.2,1.5,2,2.6,2.4,3.4l8.1,15.8
		h-19l-9-16.6c-1.1-2.2-2.2-3.5-3-4.2c-1.2-0.8-2.6-1.3-4.1-1.3h-1.5v22.1H617z M633.9,159.2h7.1c0.8,0,2.3-0.2,4.5-0.7
		c1.1-0.2,2-0.8,2.7-1.7s1.1-2,1.1-3.2c0-1.8-0.6-3.1-1.7-4s-3.2-1.4-6.3-1.4h-7.4V159.2z"/>
	<path class="st0" d="M672.5,164.4c0-8.9,2.5-15.8,7.4-20.7c4.9-4.9,11.8-7.4,20.7-7.4c9.1,0,16,2.4,20.9,7.3s7.3,11.7,7.3,20.4
		c0,6.4-1.1,11.6-3.2,15.6c-2.1,4.1-5.2,7.2-9.3,9.5s-9.1,3.4-15.1,3.4c-6.1,0-11.2-1-15.2-2.9c-4-2-7.3-5-9.8-9.3
		C673.8,176,672.5,170.8,672.5,164.4z M689.3,164.5c0,5.5,1,9.4,3.1,11.8c2,2.4,4.8,3.6,8.3,3.6c3.6,0,6.4-1.2,8.4-3.5
		c2-2.3,3-6.6,3-12.7c0-5.1-1-8.9-3.1-11.2s-4.9-3.5-8.4-3.5c-3.4,0-6.1,1.2-8.2,3.6C690.4,155,689.3,158.9,689.3,164.5z"/>
	<path class="st0" d="M738.1,137.2h15.7l20.5,30.1v-30.1h15.8v54.4h-15.8l-20.4-29.9v29.9h-15.8V137.2z"/>
	<path class="st0" d="M801.9,137.2h16.8v54.4h-16.8V137.2z"/>
	<path class="st0" d="M867,169.3l14.7,4.5c-1,4.1-2.5,7.6-4.7,10.4c-2.1,2.8-4.8,4.9-7.9,6.3s-7.2,2.1-12,2.1
		c-5.9,0-10.7-0.9-14.5-2.6s-7-4.7-9.7-9.1c-2.7-4.3-4.1-9.9-4.1-16.6c0-9,2.4-15.9,7.2-20.7s11.6-7.3,20.3-7.3
		c6.9,0,12.2,1.4,16.2,4.2s6.8,7,8.7,12.8l-14.8,3.3c-0.5-1.7-1.1-2.9-1.6-3.6c-0.9-1.3-2.1-2.3-3.5-3s-2.9-1-4.6-1
		c-3.8,0-6.7,1.5-8.8,4.6c-1.5,2.3-2.3,5.8-2.3,10.7c0,6,0.9,10.2,2.7,12.4c1.8,2.2,4.4,3.4,7.7,3.4c3.2,0,5.6-0.9,7.3-2.7
		C865.1,175.4,866.3,172.7,867,169.3z"/>
	<path class="st0" d="M887,173.6l16-1c0.3,2.6,1.1,4.6,2.1,5.9c1.7,2.2,4.2,3.3,7.4,3.3c2.4,0,4.2-0.6,5.5-1.7
		c1.3-1.1,1.9-2.4,1.9-3.9c0-1.4-0.6-2.7-1.9-3.8s-4.1-2.2-8.6-3.2c-7.4-1.7-12.6-3.9-15.8-6.6c-3.2-2.7-4.8-6.2-4.8-10.5
		c0-2.8,0.8-5.4,2.4-7.9c1.6-2.5,4.1-4.4,7.3-5.9c3.3-1.4,7.7-2.1,13.4-2.1c7,0,12.3,1.3,15.9,3.9s5.8,6.7,6.5,12.3l-15.8,0.9
		c-0.4-2.4-1.3-4.2-2.7-5.3s-3.2-1.7-5.6-1.7c-2,0-3.4,0.4-4.4,1.2c-1,0.8-1.5,1.8-1.5,3c0,0.9,0.4,1.6,1.2,2.3
		c0.8,0.7,2.7,1.4,5.6,2c7.3,1.6,12.6,3.2,15.8,4.8s5.5,3.6,6.9,6c1.4,2.4,2.2,5.1,2.2,8.1c0,3.5-1,6.7-2.9,9.6
		c-1.9,2.9-4.6,5.2-8.1,6.7s-7.8,2.3-13.1,2.3c-9.3,0-15.7-1.8-19.2-5.3S887.5,179,887,173.6z"/>
</g>
</svg>
