<?xml version="1.0" encoding="utf-8"?>
<!-- Generator: Adobe Illustrator 19.0.0, SVG Export Plug-In . SVG Version: 6.00 Build 0)  -->
<svg version="1.1" id="Layer_1" xmlns="http://www.w3.org/2000/svg" xmlns:xlink="http://www.w3.org/1999/xlink" x="0px" y="0px"
	 viewBox="0 0 96.7 96.7" style="enable-background:new 0 0 96.7 96.7;" xml:space="preserve">
<style type="text/css">
	.st0{clip-path:url(#XMLID_236_);}
	.st1{stroke:#000000;stroke-miterlimit:10;}
	.st2{clip-path:url(#XMLID_237_);fill:url(#XMLID_238_);}
	.st3{clip-path:url(#XMLID_239_);fill:url(#XMLID_240_);}
	.st4{clip-path:url(#XMLID_241_);fill:url(#XMLID_242_);}
	.st5{clip-path:url(#XMLID_243_);fill:url(#XMLID_244_);}
	.st6{clip-path:url(#XMLID_245_);fill:url(#XMLID_246_);}
	.st7{fill:#FFFFFF;stroke:#010101;stroke-miterlimit:10;}
	.st8{fill:url(#XMLID_247_);}
</style>
<g id="XMLID_156_">
	<g id="XMLID_21_">
		<defs>
			<rect id="XMLID_20_" x="-0.4" y="-0.8" width="98" height="98"/>
		</defs>
		<clipPath id="XMLID_236_">
			<use xlink:href="#XMLID_20_"  style="overflow:visible;"/>
		</clipPath>
		<g id="XMLID_2_" class="st0">
			<path id="XMLID_3_" class="st1" d="M91.6,95.7H5.3c-2.4,0-4.4-2-4.4-4.4v-86c0-2.4,2-4.4,4.4-4.4h86.2c2.4,0,4.4,2,4.4,4.4v86
				C96,93.7,94,95.7,91.6,95.7z"/>
			<g id="XMLID_4_">
				<g id="XMLID_35_">
					<defs>
						<path id="XMLID_14_" d="M59.8,23.1l-7.4,9.5h19.5c0,0,0,0,0,0c1.3,0,12.4,1.5,12.4,15.4c0,13.9-11.8,14.5-11.8,14.5H48.9
							l-11.1,9.3h32.8c0,0,22.1,0.8,22.1-24.9c0-23.8-22.2-23.8-22.2-23.8H59.8z"/>
					</defs>
					<clipPath id="XMLID_237_">
						<use xlink:href="#XMLID_14_"  style="overflow:visible;"/>
					</clipPath>
					
						<linearGradient id="XMLID_238_" gradientUnits="userSpaceOnUse" x1="-370.5366" y1="355.2525" x2="-369.8385" y2="355.2525" gradientTransform="matrix(60.6369 -41.1744 -41.1744 -60.6369 37140.3125 6346.5562)">
						<stop  offset="0" style="stop-color:#F2F2F2"/>
						<stop  offset="0.453" style="stop-color:#F2F2F2"/>
						<stop  offset="1" style="stop-color:#818285"/>
					</linearGradient>
					<polygon id="XMLID_15_" class="st2" points="14.7,38.8 75.4,-2.3 115.8,57 55.1,98.1 					"/>
				</g>
				<g id="XMLID_32_">
					<defs>
						<path id="XMLID_12_" d="M59.9,23.1L52,32.7h19.5c0,0,0,0,0,0c0.2,0,0.6,0,1.1,0.1c4,0.4,16,2.6,19.7,15.2c0-0.3,0-0.7,0-1
							c0-23.8-22.2-23.8-22.2-23.8H59.9z"/>
					</defs>
					<clipPath id="XMLID_239_">
						<use xlink:href="#XMLID_12_"  style="overflow:visible;"/>
					</clipPath>
					
						<linearGradient id="XMLID_240_" gradientUnits="userSpaceOnUse" x1="-377.5241" y1="367.0382" x2="-376.8262" y2="367.0382" gradientTransform="matrix(-28.4675 19.3304 19.3304 28.4675 -17761.9238 -3120.918)">
						<stop  offset="0" style="stop-color:#F2F2F2"/>
						<stop  offset="0.453" style="stop-color:#F2F2F2"/>
						<stop  offset="1" style="stop-color:#818285"/>
					</linearGradient>
					<polygon id="XMLID_13_" class="st3" points="103.9,40.1 64.7,66.7 40.4,31 79.6,4.4 					"/>
				</g>
				<g id="XMLID_29_">
					<defs>
						<polygon id="XMLID_10_" points="37.5,41.3 30.3,49.9 56.6,49.9 66.7,41.3 						"/>
					</defs>
					<clipPath id="XMLID_241_">
						<use xlink:href="#XMLID_10_"  style="overflow:visible;"/>
					</clipPath>
					
						<linearGradient id="XMLID_242_" gradientUnits="userSpaceOnUse" x1="-377.16" y1="366.1049" x2="-376.4621" y2="366.1049" gradientTransform="matrix(-32.9604 22.3812 22.3812 32.9604 -20567.3906 -3586.4043)">
						<stop  offset="0" style="stop-color:#F2F2F2"/>
						<stop  offset="0.453" style="stop-color:#F2F2F2"/>
						<stop  offset="1" style="stop-color:#818285"/>
					</linearGradient>
					<polygon id="XMLID_11_" class="st4" points="70.7,47.2 41.8,66.8 26.3,44 55.2,24.4 					"/>
				</g>
				<g id="XMLID_26_">
					<defs>
						<polygon id="XMLID_8_" points="44.9,49.9 30.2,72.4 56.6,49.9 						"/>
					</defs>
					<clipPath id="XMLID_243_">
						<use xlink:href="#XMLID_8_"  style="overflow:visible;"/>
					</clipPath>
					
						<linearGradient id="XMLID_244_" gradientUnits="userSpaceOnUse" x1="-362.7587" y1="354.6882" x2="-362.0609" y2="354.6882" gradientTransform="matrix(30.0757 0 0 -30.0757 10945.1426 10728.623)">
						<stop  offset="0" style="stop-color:#F2F2F2"/>
						<stop  offset="0.453" style="stop-color:#F2F2F2"/>
						<stop  offset="1" style="stop-color:#818285"/>
					</linearGradient>
					<rect id="XMLID_9_" x="30.2" y="49.9" class="st5" width="26.4" height="22.5"/>
				</g>
				<g id="XMLID_23_">
					<defs>
						<polygon id="XMLID_6_" points="39.1,22.6 18.9,49.9 30.3,49.9 55.1,22.6 						"/>
					</defs>
					<clipPath id="XMLID_245_">
						<use xlink:href="#XMLID_6_"  style="overflow:visible;"/>
					</clipPath>
					
						<linearGradient id="XMLID_246_" gradientUnits="userSpaceOnUse" x1="-365.4183" y1="355.5921" x2="-364.7205" y2="355.5921" gradientTransform="matrix(41.2343 0 0 -41.2343 15093.1094 14698.834)">
						<stop  offset="0" style="stop-color:#F2F2F2"/>
						<stop  offset="0.453" style="stop-color:#F2F2F2"/>
						<stop  offset="1" style="stop-color:#818285"/>
					</linearGradient>
					<rect id="XMLID_7_" x="18.9" y="22.6" class="st6" width="36.2" height="27.3"/>
				</g>
				<path id="XMLID_5_" class="st7" d="M25.9,53.6"/>
				<g id="XMLID_16_">
					<linearGradient id="XMLID_247_" gradientUnits="userSpaceOnUse" x1="3.8533" y1="62.1143" x2="27.4823" y2="62.1143">
						<stop  offset="0" style="stop-color:#F2F2F2"/>
						<stop  offset="0.453" style="stop-color:#F2F2F2"/>
						<stop  offset="1" style="stop-color:#818285"/>
					</linearGradient>
					<path id="XMLID_17_" class="st8" d="M3.9,71.8l13.7-19.4h10L3.9,71.8z M17.9,53.1L7.4,68l18.2-14.9H17.9z"/>
				</g>
			</g>
		</g>
	</g>
</g>
</svg>
