<?xml version="1.0" encoding="utf-8"?>
<!-- Generator: Adobe Illustrator 26.5.3, SVG Export Plug-In . SVG Version: 6.00 Build 0)  -->
<svg version="1.1" id="Layer_1" xmlns="http://www.w3.org/2000/svg" xmlns:xlink="http://www.w3.org/1999/xlink" x="0px" y="0px"
	 viewBox="0 0 602.2 554.8" style="enable-background:new 0 0 602.2 554.8;" xml:space="preserve">
<style type="text/css">
	.st0{fill:#FFFFFF;}
	.st1{fill:url(#SVGID_1_);}
	.st2{fill:url(#SVGID_00000124125516833877768920000016164727241766757551_);}
	.st3{fill:url(#SVGID_00000107575533234869128830000010966833576192820158_);}
	.st4{fill:#496A98;}
</style>
<path class="st0" d="M299.4,297.5l3.2,11.1l50.5-26.5l52.9-7.2c0,0-8.8-4-9.1-4c-0.3,0-33.2-0.9-33.2-0.9s-24.7,6.7-25.2,6.8
	c-0.5,0.1-25.3,10.4-25.8,10.5C312.1,287.5,299.4,297.5,299.4,297.5z"/>
<linearGradient id="SVGID_1_" gradientUnits="userSpaceOnUse" x1="251.3658" y1="107.2447" x2="-161.6062" y2="107.2447">
	<stop  offset="0.3292" style="stop-color:#FF0302"/>
	<stop  offset="0.6947" style="stop-color:#000000"/>
</linearGradient>
<path class="st1" d="M251.4,0.4c-4.8,23.9-9.6,47.8-14.3,71.6c-1.7,0-3.3,0-5.1,0c-0.5-2.7-1-5.5-1.6-8.2
	c-2.7-12.4-7.5-23.9-16.3-33.3c-12.4-13.2-27.8-19.4-45.9-19.2c-25.3,0.3-44.4,12-59.1,31.9C100.3,54.9,94.7,68.3,90,82
	c-7.4,21.5-11.4,43.7-11.3,66.5c0,7.6,0.7,15.1,2.8,22.4c4.6,16.7,15.8,26.5,32.4,30.5c14.1,3.4,28.1,1.9,41.8-2.1
	c2.3-0.7,5.3-0.9,6.8-2.5c1.4-1.6,1.3-4.6,1.8-7c2.7-13.7,5.5-27.4,8.1-41.1c0.5-2.5,0.6-5,0.8-7.5c0.3-3.2-1.1-5.6-3.4-7.7
	c-3.2-2.8-7-4.3-11.2-4.5c-2.7-0.2-5.4,0-8.4,0c0.4-2,0.7-3.6,1-5.3c24.9,0,49.7,0,74.8,0c-0.4,0.7-0.6,1.2-1,1.7
	c-17.8,27.5-35.7,55.1-53.6,82.6c-0.6,0.9-1.7,1.7-2.8,1.9c-22.5,4.4-45.2,6.1-68.1,3c-26.9-3.6-48.3-16.6-63.3-39.3
	c-9.3-14.1-12.5-29.9-11.3-46.5c3-43.9,24.5-77.2,59.8-102.2C104.3,11.7,125,3.7,147.7,1.1c15.3-1.7,30.7-1.7,45.7,2
	c6.9,1.7,13.5,4.7,20.2,7.2c3.8,1.4,7.6,2.8,11.3,4.3c3.8,1.5,7.3,0.7,10.6-1.3c3.9-2.3,6.7-5.8,8.6-9.7
	C245.8,0.1,248.1-0.3,251.4,0.4z M145.8,3.2c-29.1,5.1-54.6,16.9-75.4,37.7C52,59.3,39.8,81.3,33.3,106.4c0.5-0.5,0.9-1.1,1.2-1.8
	c6.6-14.1,14.5-27.4,24-39.8c18.4-24,40.9-42.9,68.9-54.9C133.2,7.4,139.4,5.5,145.8,3.2z M166.6,198.2c0.1,0,0.2,0,0.3,0.1
	c0.2-0.6,0.4-1.1,0.6-1.7c4.2-15.1,8.5-30.2,12.7-45.3c1-3.6,2.1-7.1,2.5-10.8c0.8-6.8-4.9-12.4-11.5-11.6c3.5,1.9,5.6,4.8,6,8.5
	c0.3,2.5,0.4,5.1-0.1,7.5c-2.6,13.5-5.3,27-8,40.5C168.2,189.7,167.4,193.9,166.6,198.2z"/>
<linearGradient id="SVGID_00000137828679134797726680000002286064843983671732_" gradientUnits="userSpaceOnUse" x1="226.4279" y1="233.8159" x2="8.4524" y2="233.8159">
	<stop  offset="0.3292" style="stop-color:#FF0302"/>
	<stop  offset="0.6947" style="stop-color:#000000"/>
</linearGradient>
<path style="fill:url(#SVGID_00000137828679134797726680000002286064843983671732_);" d="M158.8,333.7c-0.6,5-0.6,5-5.6,5
	c-20.3,0-40.6,0-60.9,0c-0.8,0-1.5,0-2.5,0c0.3-1.6,0.4-2.9,0.8-4.1c0.2-0.5,0.8-1.2,1.4-1.3c10.4-1.9,18.7-7.5,24.9-15.8
	c6.6-8.8,13-17.8,18.9-27c34.6-53.2,69-106.4,103.5-159.6c0.4-0.6,0.9-1.5,1.5-1.7c1.4-0.4,2.5-0.3,3,1.7
	c9.8,41.8,19.7,83.5,29.7,125.3c4.2,17.6,8.4,35.2,12.8,52.7c1.2,4.6,3,9,4.8,13.5c2.7,6.9,8.1,10.2,15.3,11c0.4,0,0.8,0.1,1.4,0.2
	c-0.3,1.5-0.5,2.9-0.9,4.3c-0.1,0.4-0.7,0.7-1.1,0.8c-0.3,0.1-0.8,0-1.2,0c-31.3,0-62.6,0-93.9,0c-0.7,0-1.4,0-2.5,0
	c0.4-1.9,0.7-3.5,1-5c4.2-0.2,8.2-0.4,12.1-0.7c1.3-0.1,2.6-0.4,3.9-0.7c8.4-1.9,11.9-7.3,10.4-16c-2.2-11.9-5.1-23.7-7.7-35.5
	c-0.3-1.5-1.3-1.2-2.3-1.2c-13.1,0-26.3,0-39.4,0c-9.6,0-19.1,0-28.7,0c-0.7,0-1.8,0.3-2.1,0.9c-5.2,8.1-10.5,16.2-15.5,24.5
	c-2.6,4.3-4.5,8.9-5,13.9c-0.6,6.3,2.4,11,8.6,12.3C148.6,332.3,153.6,332.8,158.8,333.7z M208.8,198
	c-15.4,23.7-30.4,46.9-45.5,70.3c20.8,0,41.2,0,61.8,0C219.6,244.9,214.3,221.7,208.8,198z"/>
<linearGradient id="SVGID_00000059269858426079189260000015825030080060386445_" gradientUnits="userSpaceOnUse" x1="377.0333" y1="375.1607" x2="158.1121" y2="375.1607">
	<stop  offset="0.2428" style="stop-color:#FF0302"/>
	<stop  offset="0.7869" style="stop-color:#000000"/>
</linearGradient>
<path style="fill:url(#SVGID_00000059269858426079189260000015825030080060386445_);" d="M421.4,432.5c0.5-0.4,0.9-0.9,1.8-1.7
	c-0.9,4.4-1.9,8.2-2.3,12.1c-0.5,4.2-2.6,6.8-5.8,9.3c-13.1,10.3-26.9,19.1-42.8,24.3c-14.7,4.7-29.8,6.3-45.2,5.6
	c-13.6-0.5-26.9-2.8-39.5-8.1c-26-10.9-40.9-30.5-45.7-58c-3.7-21.1-0.2-41.3,8.2-60.8c0.3-0.6,1.2-1.2,1.8-1.2
	c16.8-0.1,33.6,0,50.4,0c0.2,0,0.4,0.1,0.7,0.1c-1.5,5.9-3.1,11.6-4.3,17.4c-3.5,16.4-5.1,33-3.3,49.8c0.6,5.9,1.8,11.8,3.7,17.4
	c5.6,16.5,17.4,25.9,34.5,28.5c23.6,3.6,45.1-2.2,64.3-15.9C406,445.6,413.6,438.9,421.4,432.5z M456.2,268
	c-1.5-0.2-2.2,0.3-2.8,1.8c-0.8,2-1.8,3.9-3,5.6c-4,5.8-10,7.9-16.7,5.9c-4.2-1.3-8.3-2.8-12.4-4.4c-18.7-7.4-38-10.5-58.1-8
	c-22.5,2.8-42.8,11.1-61.5,23.8c-3.2,2.2-3.2,2.2-2,6.2c0.5-0.3,0.9-0.5,1.3-0.8c10-6.9,20.6-12.6,31.8-17.2
	c18.3-7.4,37.2-11.7,57.1-9.3c3.7,0.4,7.3,1.2,11,1.9c-0.5,0.5-0.9,0.5-1.2,0.5c-7.9-1.1-15.9-0.9-23.8,0.2
	c-27.3,3.7-51.1,15.3-72.9,31.5c-0.5,0.4-0.8,1.5-0.7,2.1c0.9,2.7,2,5.3,2.9,8c0.5,1.3,1.3,2,2.8,2.1c3.3,0.2,6.6,0.5,9.9,0.9
	c1.5,0.2,2.3-0.2,3.2-1.5c10.6-15.1,24.6-25.9,42-32c14.8-5.1,29.9-5.7,44.5,0.5c17.7,7.5,27.4,21.5,30.9,40.1
	c0.8,4.2,1.2,8.5,1.7,12.9c1.6,0,3.2,0,5,0c4.7-23.5,9.4-47,14.2-70.7C458.1,268,457.1,268.1,456.2,268z"/>
<path class="st4" d="M235.6,465c1.3,6.6,2.6,12.8,3.8,18.9c0.3,1.3,0.7,2.1,2.2,2.2c8.9,0.5,17.9,1.1,27.1,1.7
	c-0.6,0.4-1,0.6-1.4,0.8c-7.6,3.6-15.2,7.2-22.8,10.8c-1.4,0.7-1.7,1.4-1.4,2.9c1.7,7.9,3.2,15.8,4.9,24.1c-0.7-0.5-1.2-0.8-1.6-1.2
	c-6.3-5.3-12.7-10.7-19-16c-0.9-0.8-1.7-0.9-2.8-0.4c-7.8,3.7-15.6,7.4-23.4,11.1c-0.6,0.3-1.2,0.5-2.2,1
	c5.1-7.8,9.9-15.2,14.9-22.9c-5.8-4.9-11.5-9.7-17.6-14.9c4.6,0.3,8.8,0.6,13,0.8c4,0.3,8.1,0.6,12.1,0.8c0.6,0,1.6-0.6,2-1.2
	c3.6-5.5,7.2-11,10.8-16.5C234.7,466.4,235,465.9,235.6,465z"/>
<path class="st4" d="M129.3,554.7c-0.7-8.3-1.4-16.6-2.2-25.2c-8.5,0.7-16.8,1.4-25.6,2.2c0.8-0.6,1.3-1,1.9-1.4
	c7-4.7,14-9.4,21-14.1c1.1-0.7,1.5-1.4,1.4-2.8c-0.5-5.6-1-11.2-1.5-16.8c-0.1-0.6-0.1-1.3-0.1-2.2c4,2.7,7.7,5.2,11.5,7.6
	c1.6,1.1,3.4,2.9,5,2.9c1.6,0,3.2-1.9,4.8-2.9c5.8-3.9,11.5-7.8,17.8-12c-4,7.8-7.8,15.1-11.7,22.6c6.4,4.3,12.7,8.5,19.4,13
	c-3.4,0.3-6.3,0.6-9.2,0.9c-5.4,0.5-10.7,0.9-16.1,1.3c-1.5,0.1-2.5,0.7-3.2,2.1c-4.2,8.3-8.6,16.6-12.8,24.9
	C129.5,554.8,129.4,554.8,129.3,554.7z"/>
<path class="st0" d="M327.7,227.8c2.8-12.5,5.6-24.6,8.3-37c-0.3,0.4-0.6,0.7-0.7,1c-6.8,11.4-13.6,22.8-20.3,34.2
	c-0.6,1-1.2,1.4-2.4,1.3c-1.5-0.1-3,0-4.9,0c-0.3-12.1-0.7-24.1-1-35.9c-0.1,0.2-0.3,0.7-0.4,1.1c-3.6,11.2-7.1,22.3-10.7,33.5
	c-0.4,1.3-0.9,1.9-2.3,1.8c-1.8-0.1-3.7,0-5.8,0c1-3,1.8-5.7,2.7-8.4c3.9-11.7,7.8-23.4,11.7-35.1c0.4-1.3,1-1.9,2.5-1.9
	c3,0.1,5.9,0,9.2,0c0.4,11.4,0.8,22.5,1.2,33.6c0.2-0.3,0.5-0.8,0.8-1.2c6.1-10.4,12.2-20.8,18.4-31.2c0.3-0.5,0.9-1.1,1.4-1.1
	c3.2-0.1,6.5-0.1,9.9-0.1c-1.2,5.9-2.4,11.6-3.6,17.3c-1.8,8.7-3.7,17.4-5.5,26.1c-0.3,1.4-0.8,2-2.3,1.9
	C331.9,227.7,330,227.8,327.7,227.8z"/>
<path class="st0" d="M453.6,101.3c-2.6,0-5.1,0.1-7.7-0.1c-0.4,0-1.1-0.7-1.2-1.2c-3.5-11-7.8-21.7-9.9-33.1c0-0.2-0.2-0.5-0.4-1
	c-1.2,4.8-2.3,9.4-3.5,13.8c-1.7,6.6-3.6,13.2-5.3,19.8c-0.4,1.5-1,1.9-2.4,1.8c-1.7-0.1-3.4,0-5.4,0c0.2-0.9,0.3-1.5,0.5-2.2
	c3.7-13.8,7.4-27.5,11-41.3c0.4-1.5,1-1.9,2.4-1.8c1.9,0.1,3.9,0.1,5.8,0c1.3-0.1,1.9,0.4,2.2,1.6c3.3,10.6,7.6,20.9,9.5,32
	c0,0.2,0.1,0.3,0.3,0.7c1.2-5,2.2-9.8,3.4-14.6c1.5-6.1,3.2-12.2,4.8-18.3c0.3-1.1,0.7-1.5,1.9-1.5c2,0.1,3.9,0,6.1,0
	C461.6,71.2,457.6,86.2,453.6,101.3z"/>
<path class="st4" d="M41,537.5c4.1-7.5,8.1-15,12.3-22.7c-5.1-2.1-9.9-4-15.2-6.2c5.1-1.6,9.8-3.5,14.7-4.5c5.7-1.2,9.5-4,11.7-9.5
	c1.7-4.2,4.3-8.1,6.7-12.5c1.2,5.2,2.3,10,3.4,15.1c7.4-2.3,14.5-4.5,21.6-6.7c0.1,0.1,0.1,0.2,0.2,0.2c-0.5,0.4-0.9,0.8-1.4,1.3
	c-5.6,4.8-11.2,9.6-16.8,14.3c-1,0.8-1.3,1.6-1,2.9c1.3,5.4,2.4,10.8,3.6,16.6c-0.7-0.2-1.3-0.4-1.8-0.6c-4.7-1.9-9.4-3.7-14-5.7
	c-1.2-0.5-2-0.3-3,0.5c-6.9,5.9-13.8,11.8-20.7,17.7C41.2,537.6,41.1,537.5,41,537.5z"/>
<path class="st0" d="M460.3,450.8c-11.1,0.4-17.8-6.6-16.7-16.9c1.4-13.2,7.6-23.1,20.3-28.3c4.5-1.8,9.2-2.1,13.9-0.9
	c5.8,1.4,9.6,5.7,10.4,11.7c2.2,14.9-9.3,31.1-24.1,34C462.7,450.6,461.1,450.7,460.3,450.8z M452.4,432.5c0,9.9,6.3,14.1,14.3,10.6
	c0.5-0.2,1.1-0.5,1.6-0.8c7.4-4.3,12.6-16.4,10.8-24.7c-1.1-4.8-4.5-7.3-9.4-7c-4.1,0.3-7.4,2.1-10,5
	C455,420.7,452.8,426.9,452.4,432.5z"/>
<path class="st0" d="M481.6,102.1c-10.6-0.1-16.9-6.9-15.7-17.5c1.5-12.9,7.7-22.6,20-27.7c4.4-1.8,9.1-2.2,13.9-1.1
	c6.1,1.4,10,5.8,10.8,12c1.9,15.6-9.8,31.3-25.2,33.9C484.1,102,482.8,102,481.6,102.1z M474.8,84.9c0,0.7-0.1,1.5,0,2.2
	c0.6,5.5,4.4,9,9.6,8.4c2.2-0.2,4.5-0.9,6.4-2c7.3-4.2,12.5-16.2,10.7-24.5c-1.1-4.9-4.9-7.6-9.9-7.1c-3.7,0.4-6.8,2.1-9.3,4.8
	C477.4,71.8,475.1,78,474.8,84.9z"/>
<path class="st0" d="M287.6,55.3c11.5,0,17.8,7.2,16.5,17.9c-1.1,9-4.8,16.8-11.9,22.7c-6.2,5.1-13.4,7.2-21.4,5.8
	c-6.5-1.2-10.6-5.6-11.3-12.1c-1.5-12.7,7.4-30.5,24-33.7C285.1,55.5,286.7,55.4,287.6,55.3z M295.2,73.8
	c0.1-10.4-6.7-14.6-14.9-10.6c-0.3,0.1-0.6,0.3-0.9,0.5c-7.3,4.3-12.7,16.3-10.9,24.6c1,4.8,4.8,7.6,9.7,7.1
	c3.6-0.3,6.6-1.9,9.1-4.4C292.5,86,294.8,79.7,295.2,73.8z"/>
<path class="st0" d="M516.4,428.6c3.4,2,3.9,5.2,3.9,8.5c0,4.2,0,8.5,0,12.9c-2.5,0-5,0.1-7.4-0.1c-0.4,0-1-1-1-1.5
	c-0.1-2.9,0-5.8,0-8.7c0-0.9,0-1.7,0-2.6c-0.2-3.9-1.8-5.5-5.7-5.7c-4.6-0.2-4.6-0.2-5.7,4.2c-1.2,4.3-2.4,8.6-3.4,12.9
	c-0.3,1.3-0.9,1.7-2.2,1.6c-2-0.1-4,0-6.2,0c0.1-0.8,0.2-1.3,0.3-1.9c3.7-13.8,7.3-27.5,11-41.3c0.3-1.1,0.7-1.8,1.9-1.8
	c5.8-0.1,11.5-0.2,17.3-0.3c0.8,0,1.6,0.3,2.3,0.5c5.2,1.5,7.5,5.3,6.4,10.6c-1.1,5.4-4.4,9.1-9.2,11.5c-0.4,0.2-0.7,0.3-1.1,0.5
	C517.3,428.2,516.9,428.3,516.4,428.6z M503.2,425.7c3.1-0.2,5.9-0.2,8.6-0.7c4.4-0.9,7.3-4.3,7.8-8.5c0.3-2.5-0.8-4.5-3.2-5.2
	c-1.7-0.5-3.5-0.6-5.3-0.6c-3.9,0.1-3.9,0.1-4.9,3.9c-0.7,2.7-1.5,5.4-2.2,8C503.7,423.4,503.5,424.3,503.2,425.7z"/>
<path class="st0" d="M592,415.3c0.7,0.4,0.8,1.1,0.8,1.8c0,0.9,0,1.8,0,2.8c-0.5,0-1.1,0-1.6,0c-0.1,0-0.2-0.2-0.2-0.3
	c0-0.6,0-1.2,0-1.9c0-0.2,0-0.4,0-0.6c0-0.8-0.4-1.2-1.2-1.2c-1,0-1,0-1.2,0.9c-0.2,0.9-0.5,1.8-0.7,2.7c-0.1,0.3-0.2,0.4-0.5,0.3
	c-0.4,0-0.8,0-1.3,0c0-0.2,0-0.3,0.1-0.4c0.8-2.9,1.6-5.9,2.3-8.8c0.1-0.2,0.1-0.4,0.4-0.4c1.2,0,2.4,0,3.7-0.1
	c0.2,0,0.3,0.1,0.5,0.1c1.1,0.3,1.6,1.1,1.4,2.3c-0.2,1.1-0.9,1.9-2,2.5c-0.1,0-0.2,0.1-0.2,0.1C592.2,415.2,592.1,415.3,592,415.3z
	 M589.2,414.7c0.7-0.1,1.3,0,1.8-0.2c0.9-0.2,1.6-0.9,1.7-1.8c0.1-0.5-0.2-1-0.7-1.1c-0.4-0.1-0.7-0.1-1.1-0.1c-0.8,0-0.8,0-1.1,0.8
	c-0.2,0.6-0.3,1.1-0.5,1.7C589.3,414.2,589.3,414.4,589.2,414.7z"/>
<path class="st0" d="M379.3,101.3c2-7.6,3.9-14.8,5.9-22c1.9-7,3.7-14,5.6-20.9c0.2-0.7,1-1.7,1.6-1.8c6.1-0.8,12.3-1.3,18.4-0.2
	c6.8,1.2,9.5,5.8,7.6,12.4c-1.5,5.1-5.1,8.4-9.8,10.6c-0.4,0.2-0.7,0.3-1.3,0.6c3.7,2.3,3.9,5.8,3.9,9.5c0,3.9,0,7.8,0,11.8
	c-2.8,0-5.4,0-8.4,0c0-3.2,0-6.3,0-9.4c0-1.7,0-3.4-0.3-5.1c-0.3-2.2-1.8-3.3-3.9-3.7c-5.5-1-6-0.7-7.4,4.6c-1.1,4-2.2,8-3.2,12.1
	c-0.3,1.4-0.9,1.8-2.3,1.7C383.6,101.2,381.6,101.3,379.3,101.3z M394.1,76.5c2.7,0,5.2,0.3,7.6-0.1c4.7-0.7,8-4,8.7-8.1
	c0.5-3.3-0.8-5.6-4.1-6.1c-2.4-0.4-4.9-0.2-7.3-0.1c-0.4,0-1.1,0.6-1.2,1C396.4,67.5,395.3,71.9,394.1,76.5z"/>
<path class="st0" d="M406.9,206.5c3.4,2,3.9,5.1,4,8.4c0.1,4.2,0,8.5,0,12.8c-2.7,0-5.4,0-8.3,0c-0.1-1.4-0.2-2.8-0.2-4.1
	c0-3,0.1-6.1,0-9.1c-0.1-3.3-1.9-4.9-5.2-5.1c-4.9-0.3-4.9-0.3-6.2,4.3c-1.1,4.2-2.3,8.4-3.4,12.7c-0.3,1.2-0.9,1.6-2,1.5
	c-2-0.1-4.1,0-6.4,0c0.9-3.3,1.7-6.4,2.5-9.4c3-11.2,6-22.4,9-33.6c0.2-0.7,1-1.7,1.6-1.8c6.1-0.8,12.1-1.3,18.2-0.3
	c7,1.2,9.8,5.9,7.7,12.6c-1.5,4.7-4.7,7.9-9.1,10C408.4,205.8,407.8,206,406.9,206.5z M393.7,203.6c3.4-0.3,6.5-0.3,9.4-1
	c3.7-0.9,6.1-3.5,7-7.4c0.7-3.4-0.8-5.9-4.2-6.3c-2.3-0.3-4.7-0.2-7.1-0.1c-0.5,0-1.2,0.7-1.3,1.1
	C396.2,194.2,395,198.5,393.7,203.6z"/>
<path class="st0" d="M538.9,80c3.4,2,3.7,5.4,3.7,8.8c0,4,0,8.1,0,12.3c-2.7,0-5.4,0-8.5,0c0-2.3,0-4.6,0-6.8c0-2.1,0.1-4.2,0-6.4
	c-0.2-3.2-1.7-4.8-5-5.1c-5.1-0.6-5.1-0.6-6.5,4.4c-1.1,4.2-2.3,8.3-3.3,12.5c-0.3,1.3-0.9,1.7-2.2,1.6c-2-0.1-4.1,0-6.4,0
	c1.5-5.5,2.8-10.7,4.2-16c2.4-9,4.8-18.1,7.3-27.1c0.2-0.7,1-1.7,1.7-1.7c6.1-0.8,12.2-1.3,18.2-0.2c6.9,1.2,9.7,5.8,7.6,12.5
	c-1.5,5-5,8.3-9.7,10.4c-0.4,0.2-0.7,0.3-1.1,0.5C539,79.7,539,79.8,538.9,80z M525.5,76.5c2.7,0,5,0.2,7.3,0c4.8-0.6,8.3-3.9,9-8.2
	c0.5-3.2-0.8-5.5-4-6c-2.4-0.4-5-0.2-7.5-0.1c-0.4,0-1,0.5-1.1,0.8C527.9,67.4,526.7,71.9,525.5,76.5z"/>
<path class="st0" d="M509.2,182.6c0.9,15.1,1.7,30,2.5,45.1c-2.9,0-5.7,0-8.7,0c-0.2-4.1-0.5-8.3-0.8-12.6c-4.7,0-9.3,0-13.8,0.1
	c-0.5,0-1,0.7-1.3,1.2c-2,3.4-4,6.7-5.8,10.2c-0.6,1-1.2,1.4-2.3,1.4c-2.2-0.1-4.3,0-6.7,0c0.5-0.9,0.8-1.6,1.2-2.2
	c8.1-13.8,16.2-27.5,24.3-41.3c0.8-1.3,1.6-1.9,3.1-1.8C503.4,182.7,506.1,182.6,509.2,182.6z M501.7,189.5
	c-3.7,6.6-7.2,12.8-10.8,19.2c4,0,7.7,0,11.5,0C502.2,202.3,502,196.1,501.7,189.5z"/>
<path class="st0" d="M383,56c-0.6,2.4-1.2,4.5-1.8,6.7c-5.5,0-10.9,0.1-16.2,0c-1.5,0-2.1,0.4-2.4,1.8c-0.8,3.3-1.7,6.5-2.6,10
	c5.8,0,11.3,0,17.1,0c-0.6,2.3-1.2,4.4-1.8,6.7c-4.3,0-8.6,0-12.9,0c-4.2,0-4.2,0-5.3,4c-0.8,3-1.6,6-2.5,9.3c6.4,0,12.7,0,18.8,0
	c0.1,0.4,0.1,0.6,0.1,0.7c-1.4,6-1.4,6-7.5,6c-7,0-14,0-21.4,0c1-3.7,1.9-7.1,2.8-10.6c2.9-10.9,5.9-21.9,8.8-32.8
	c0.4-1.4,0.9-1.9,2.4-1.9C366.6,56.1,374.6,56,383,56z"/>
<path class="st0" d="M382.8,182.7c-0.7,2.3-0.7,5-2,6.1c-1.2,1-3.9,0.4-5.9,0.5c-3.4,0-6.8,0.1-10.1,0c-1.3,0-2,0.3-2.3,1.7
	c-0.7,3.1-1.6,6.1-2.4,9.2c0,0.2-0.1,0.4-0.1,0.8c5.6,0,11.2,0,16.8,0c0,0.4,0.1,0.5,0.1,0.6c-1.3,6.1-1.3,6.1-7.6,6.1
	c-3.2,0-6.5,0-9.7,0c-0.6,0-1.5,0.5-1.6,0.9c-1.2,4-2.2,8-3.4,12.3c6.4,0,12.5,0,19.2,0c-0.6,2.3-1.1,4.2-1.8,6.1
	c-0.1,0.3-0.7,0.6-1.1,0.6c-8.6,0-17.2,0-25.8-0.1c-0.1,0-0.1-0.1-0.3-0.2c1.1-4.1,2.2-8.4,3.3-12.6c2.7-10.2,5.5-20.3,8.1-30.5
	c0.4-1.4,0.9-1.9,2.4-1.9c7.5,0.1,15,0,22.5,0C381.4,182.6,381.9,182.7,382.8,182.7z"/>
<path class="st0" d="M526.8,450.1c2-7.3,3.8-14.3,5.7-21.2c2-7.3,3.9-14.6,5.8-21.9c0.3-1.2,0.8-1.8,2.1-1.9
	c5.6-0.1,11.3-0.7,16.8-0.1c7.4,0.8,10.5,6,8.6,13.3c-2.3,8.4-9.4,14-18.9,14.8c-1.8,0.2-3.7,0.2-5.6,0.1c-1.4-0.1-2,0.2-2.3,1.6
	c-1.2,4.6-2.5,9.2-3.7,13.8c-0.3,1.2-0.8,1.6-2,1.6C531.3,450,529.2,450.1,526.8,450.1z M541.2,426.6c2.5,0,4.8,0.3,7-0.1
	c5.3-0.8,8.8-4.4,9.6-9.3c0.5-3.1-0.8-5.4-3.8-6c-2.5-0.5-5.1-0.3-7.7-0.3c-0.4,0-1,0.6-1.1,1.1
	C543.9,416.8,542.6,421.5,541.2,426.6z"/>
<path class="st0" d="M311.8,56.1c3.1,0,5.8,0,9,0c0.3,12.1,0.6,24.3,0.9,36.6c0.3-0.5,0.6-0.8,0.8-1.3c6.6-11.4,13.1-22.9,19.7-34.3
	c0.3-0.5,0.8-1,1.3-1.1c2.6-0.1,5.1,0,8,0c-0.5,0.9-0.8,1.4-1.1,2c-8.5,13.8-17,27.7-25.5,41.5c-0.8,1.3-1.6,1.9-3.1,1.8
	c-2.4-0.1-4.8,0-7.4,0C313.6,86.2,312.7,71.3,311.8,56.1z"/>
<path class="st0" d="M586.4,57.6c-1.2,2.2-2.5,4.3-3.7,6.5c-3.3-1.8-6.7-2.4-10.3-2c-2.8,0.3-5.1,1.5-6.6,3.9
	c-1.5,2.4-1.1,4.7,1.3,6.4c0.7,0.5,1.6,1,2.4,1.4c1.1,0.5,2.2,1,3.2,1.5c9.9,4.2,9,11.7,5,17.9c-3.7,5.7-9.5,8-16.1,8.6
	c-3.9,0.4-7.8-0.1-11.5-1.5c-0.8-0.3-1.5-0.7-2.4-1.1c1.2-2.3,2.4-4.5,3.6-6.8c3.5,2,7.2,3,11.2,2.8c2.6-0.2,5-0.9,6.9-2.7
	c3.5-3.3,3-7.5-1.2-9.8c-1.9-1-3.9-1.7-5.7-2.7c-6.3-3.4-8-8.7-4.5-15c4.1-7.2,10.8-9.8,18.7-9.8C580,55.3,583.3,55.7,586.4,57.6z"
	/>
<path class="st0" d="M468.4,220.8c-0.1,1.4-0.1,3.1-0.4,4.8c-0.1,0.5-0.6,1.2-1.1,1.3c-6.6,1.9-13.3,2.5-19.9,0.1
	c-6.8-2.4-10-8.6-9-16.7c2.2-18.7,19.2-31.3,37.7-27.9c1.4,0.3,2.8,0.8,4.4,1.3c-1.3,2.3-2.4,4.4-3.6,6.6c-4.1-1.7-8.2-2.1-12.5-1.3
	c-10.6,2.1-18.7,13.5-17,24.2c0.8,4.9,4.7,8.3,10.5,8.5C460.9,221.8,464.5,221.2,468.4,220.8z"/>
<path class="st4" d="M36.7,467.5c5.4,0,10.4,0,15.4,0c0,0.1,0.1,0.2,0.1,0.3c-2,1-3.9,1.9-5.9,2.9c-4.1,2-8.1,3.9-12.1,5.9
	c-0.8,0.4-1.7,1.3-2.1,2.2c-2.2,5.2-4.3,10.4-6.6,15.9c-1.9-3.8-3.8-7.4-5.7-11.1c-6.6,3.2-13.1,6.3-19.6,9.5
	c-0.1-0.1-0.1-0.1-0.2-0.2c0.4-0.4,0.7-0.8,1.1-1.2c4.8-4.4,9.5-8.9,14.3-13.2c0.9-0.9,1.1-1.5,0.5-2.7c-1.4-2.5-2.6-5.2-4.1-8.1
	c4.5,0,8.6-0.1,12.6,0c1.8,0,3.1-0.5,4.4-1.7c3.8-3.7,7.6-7.2,11.5-10.7c0.6-0.5,1.2-1,2-1.4C40.4,458.3,38.6,462.7,36.7,467.5z"/>
<path class="st0" d="M437.7,182.6c-4,14.9-7.9,29.3-11.7,43.7c-0.3,1.2-0.9,1.6-2.1,1.5c-2.1-0.1-4.2,0-6.5,0
	c2.2-8.3,4.3-16.2,6.4-24.2c1.7-6.4,3.5-12.8,5.1-19.2c0.4-1.4,0.9-2,2.4-1.9C433.4,182.7,435.5,182.6,437.7,182.6z"/>
<path class="st4" d="M41,420.1c-3.2,3.5-6.3,7.1-9.8,10.9c2.9,1.4,5.6,2.7,8.8,4.2c-4.4,1.1-8.4,2.2-12.5,2.9
	c-2.4,0.5-4.2,1.6-5.8,3.4c-3,3.5-6.1,6.9-9.6,10.2c0.7-3.3,1.4-6.7,2.2-10.5c-5,1.2-9.6,2.2-14.1,3.3c0-0.1-0.1-0.2-0.1-0.2
	c4.6-2.8,9.1-5.6,13.8-8.2c1.4-0.8,2.1-1.8,2.3-3.4c0.4-2.5,1-4.9,1.7-7.7c2.2,1,4.4,1.9,6.5,3c1.2,0.6,2.1,0.5,3.3-0.2
	c4.4-2.7,8.8-5.3,13.2-8C40.9,419.9,41,420,41,420.1z"/>
<path class="st4" d="M59.1,385.7c-3,2.1-6,4.3-9,6.3c-1.3,0.8-1.7,1.6-0.9,3c0.7,1.3,1.1,2.7,1.7,4c-3.1,0-6-0.1-8.9,0
	c-1,0-2.2,0.4-3.1,0.9c-3.7,2.5-7.4,5.1-11.2,7.5c2-2.8,4.1-5.6,6.4-8.8c-3.2-0.2-6-0.3-9.3-0.5c2.7-1,5-2.1,7.4-2.8
	c4.3-1.1,7.6-3.5,9.8-7.4c0.7-1.2,1.6-2.2,2.6-3.6c0.9,1.9,1.6,3.6,2.4,5.4c4.1-1.5,8-3,11.9-4.4C59,385.5,59.1,385.6,59.1,385.7z"
	/>
<path class="st0" d="M593.3,404c6.4,0,10.2,4.8,8.6,11c-1.6,6.4-7.9,11.5-14.5,11.6c-6.6,0.1-10.6-5-8.9-11.4
	C580.2,409,586.7,404,593.3,404z M599,413c0-4.2-3.1-6.9-7.3-6.4c-4.8,0.6-9.2,4.5-10.2,9.3c-1,4.8,1.8,8.4,6.5,8.3
	C593.6,424,599,418.6,599,413z"/>
<path class="st4" d="M81.3,352.3c-0.4,1.6-0.8,3.2-1.4,5.1c1.8-0.3,3.3-0.5,4.8-0.8c1.4-0.2,2.8-0.5,4.4-0.5
	c-2.6,1.3-5.2,2.6-7.9,3.7c-1.9,0.8-3,1.9-3.4,4c-0.2,1.3-0.8,2.5-1.2,4c-1.6-0.8-3-1.6-4.6-2.2c-0.8-0.3-2-0.3-2.7,0
	c-3.3,1.4-6.5,3-9.9,4.4c2.5-2.1,5-4.2,7.8-6.6c-1.7-0.9-3.1-1.7-4.6-2.5c-0.1-0.2-0.1-0.3-0.2-0.5c7.5,0,13.6-2.9,18.3-8.7
	C81.1,352,81.2,352.2,81.3,352.3z"/>
<path class="st0" d="M561.2,440.3c2.7,0,4.2,1.6,3.9,4.3c-0.4,3.6-3.6,6.5-7,6.2c-2.2-0.2-3.4-1.5-3.5-3.6
	C554.5,443.7,557.7,440.3,561.2,440.3z"/>
<path class="st0" d="M145.8,3.2c-6.4,2.3-12.6,4.2-18.5,6.8c-28,11.9-50.5,30.8-68.9,54.9c-9.5,12.4-17.3,25.7-24,39.8
	c-0.3,0.6-0.6,1.3-1.2,1.8C39.8,81.3,52,59.3,70.4,40.9C91.3,20.1,116.7,8.3,145.8,3.2z"/>
<path class="st0" d="M166.6,198.2c0.8-4.3,1.7-8.5,2.5-12.8c2.7-13.5,5.4-27,8-40.5c0.5-2.4,0.4-5,0.1-7.5c-0.5-3.7-2.5-6.6-6-8.5
	c6.6-0.8,12.2,4.8,11.5,11.6c-0.4,3.6-1.5,7.2-2.5,10.8c-4.2,15.1-8.4,30.2-12.7,45.3c-0.2,0.6-0.4,1.1-0.6,1.7
	C166.8,198.2,166.7,198.2,166.6,198.2z"/>
</svg>
