<?xml version="1.0" encoding="utf-8"?>
<!-- Generator: Adobe Illustrator 26.5.1, SVG Export Plug-In . SVG Version: 6.00 Build 0)  -->
<svg version="1.1" id="Layer_1" xmlns="http://www.w3.org/2000/svg" xmlns:xlink="http://www.w3.org/1999/xlink" x="0px" y="0px"
	 viewBox="0 0 315.8 53.2" style="enable-background:new 0 0 315.8 53.2;" xml:space="preserve">
<style type="text/css">
	.st0{fill:#FFFFFF;}
	.st1{fill:#00DA00;}
</style>
<g>
	<path class="st0" d="M197.7,18.5c-7.3,0-12.3,5.5-12.3,12.7c0,7.5,4.7,12.7,12.3,12.7c5.5,0,9.4-2.4,11.3-8.1h-5.8
		c-0.4,1.5-2.6,3.1-5.2,3.1c-3.7,0-5.7-1.9-5.9-6.1h17.3C209.8,25.4,205.9,18.5,197.7,18.5z M192,28.6c0.1-1.9,1.3-5.1,5.5-5.1
		c3.2,0,4.7,1.8,5.3,5.1H192z"/>
	<path class="st0" d="M167.8,30.7h7.4c-0.4,4.6-3.2,7.2-7.9,7.2c-6.6,0-9-5.6-9-11.1c0-5.8,2.5-11.4,9-11.4c3.4,0,6.2,1.9,7,5.6h7
		c-0.8-7.5-7.2-11.7-14-11.7C157,9.3,151,17,151,26.9c0,9.6,6.1,17.3,16.3,17.3c3.2,0,6.6-1.3,9.1-4.6l0.7,3.8h4.7v-18h-14V30.7z"/>
	<path class="st0" d="M226.6,18.5c-2.8,0-5.7,1.3-7.4,4h-0.1v-3.4h-6.3v24.1h6.6V30.6c0-4.9,1.5-6.9,5.1-6.9c3.1,0,4.2,2,4.2,5.9
		v13.6h6.6V28.4C235.4,22.4,233.6,18.5,226.6,18.5z"/>
	<path class="st0" d="M299.2,11.9h-6.6v7.2h-4v4.4h4v14.2c0,4.8,3.5,5.7,7.6,5.7c1.3,0,2.7,0,3.9-0.2V38c-0.7,0.1-1.4,0.2-2.1,0.2
		c-2.2,0-2.8-0.6-2.8-2.8V23.5h4.8v-4.4h-4.8C299.2,19.1,299.2,11.9,299.2,11.9z"/>
	<path class="st0" d="M275.6,18.5c-7.3,0-12.3,5.5-12.3,12.7c0,7.5,4.7,12.7,12.3,12.7c5.5,0,9.4-2.4,11.3-8.1h-5.8
		c-0.4,1.5-2.6,3.1-5.2,3.1c-3.7,0-5.7-1.9-5.9-6.1h17.4C287.8,25.4,283.8,18.5,275.6,18.5z M270,28.6c0.1-1.9,1.3-5.1,5.5-5.1
		c3.2,0,4.7,1.8,5.3,5.1H270z"/>
	<path class="st0" d="M313.1,15.9c0-1.2-0.8-1.6-2.2-1.6h-2.1v5.5h1.1v-2.4h0.7l1.3,2.4h1.1l-1.5-2.4
		C312.4,17.3,313.1,16.9,313.1,15.9z M309.9,16.6v-1.5h0.9c0.5,0,1.1,0.1,1.1,0.7c0,0.7-0.5,0.8-1.1,0.8H309.9L309.9,16.6z"/>
	<path class="st0" d="M310.8,12.1c-2.7,0-5.1,1.9-5.1,4.9s2.4,4.9,5.1,4.9c2.7,0,5.1-1.9,5.1-4.9C315.8,14,313.5,12.1,310.8,12.1z
		 M310.8,20.9c-2.1,0-3.7-1.6-3.7-3.9c0-2.2,1.6-3.9,3.7-3.9c2,0,3.7,1.6,3.7,3.9S312.8,20.9,310.8,20.9z"/>
	<path class="st0" d="M253.5,28.7c-3.8-0.9-7.5-1.2-7.5-3.6c0-2,2.2-2.2,3.7-2.2c2.4,0,4.3,0.7,4.5,3.3h6.3
		c-0.5-5.9-5.4-7.7-10.6-7.7s-10.5,1.6-10.5,7.7c0,4.2,3.8,5.6,7.6,6.4c4.8,1,7.5,1.7,7.5,3.7c0,2.3-2.4,3.1-4.3,3.1
		c-2.6,0-5-1.2-5.1-4.1h-6.3c0.3,6.4,5.7,8.5,11.3,8.5c5.5,0,11-2,11-8.4C261.1,31,257.3,29.6,253.5,28.7z"/>
</g>
<g>
	<path class="st1" d="M77.9,10.1H66.4v33.3h11.5c10-0.2,15.3-5.7,15.3-16.6S87.9,10.4,77.9,10.1z M76.3,40.7h-6.8V12.8h6.8
		c9.6,0,13.7,4,13.7,13.9S85.9,40.8,76.3,40.7z"/>
	<polygon class="st1" points="129,40.7 129,27.6 147.5,27.6 147.5,24.9 129,24.9 129,12.8 148.8,12.8 148.8,10.1 125.8,10.1 
		125.8,43.4 149,43.4 149,40.7 	"/>
	<path class="st1" d="M113.1,25.8l-8.1-2c-2.7-0.7-5-2-5-5.1c0-4.9,4-6.6,8.3-6.6c4.7,0,8.9,2.6,9.1,7.6h3.2
		c0-6.8-5.7-10.3-12.3-10.3c-9.4,0-11.5,6.1-11.5,9.4c0,5.2,3.6,7,7.5,8l7.4,1.8c3.1,0.7,6.8,2.2,6.8,6c0,4.8-5.3,6.8-8.8,6.8
		c-6.1,0-11-2.1-10.9-8.9h-3.2c-0.4,8.1,5.4,11.6,13.3,11.6c11.8,0,12.7-7.2,12.7-9.5C121.7,29.2,117.8,27.1,113.1,25.8z"/>
</g>
<path class="st1" d="M18.8,34.2c-1.8-1.9-2.9-4.5-2.9-7.3c0-2.9,1.2-5.6,3.1-7.5c1.9-1.9,4.6-3.1,7.5-3.1c0.6,0,1.1-0.2,1.5-0.6
	l5.8-5.8c0.8-0.8,0.8-2.1,0-2.9L28,0.9c-0.4-0.4-1-0.6-1.6-0.6C11.8,0.4,0,12.2,0,26.8c0,7.7,3.3,14.7,8.6,19.6
	c0.8,0.8,2.2,0.7,2.9-0.1c0.8-0.8,0.7-2.2-0.1-2.9C7,39.2,4.2,33.3,4.2,26.8c0-6.2,2.5-11.7,6.5-15.8c3.9-3.9,9.1-6.3,15-6.5
	l3.7,3.7L25.6,12c-7.8,0.5-13.9,6.9-13.9,14.8c0,3.9,1.6,7.6,4.1,10.2c0.8,0.8,2.1,0.9,2.9,0.1C19.5,36.3,19.6,35,18.8,34.2
	 M44.1,7.1c-0.8-0.8-2.2-0.7-2.9,0.1c-0.8,0.8-0.7,2.2,0.1,2.9c4.5,4.1,7.3,9.9,7.3,16.5c0,6.2-2.5,11.7-6.5,15.8
	c-3.9,3.9-9.1,6.3-15,6.5l-3.7-3.7l3.8-3.8C34.9,41,41,34.5,41,26.7c0-4-1.6-7.6-4.1-10.2c-0.8-0.8-2.1-0.9-2.9-0.1
	c-0.8,0.8-0.9,2.1-0.1,2.9c1.8,1.9,2.9,4.5,2.9,7.3c0,2.9-1.2,5.6-3.1,7.5c-1.9,1.9-4.6,3.1-7.5,3.1c-0.6,0-1.1,0.2-1.5,0.6
	c0,0,0,0,0,0h0l-5.8,5.8c-0.8,0.8-0.8,2.1,0,2.9l5.7,5.9c0.5,0.5,1.1,0.7,1.7,0.6C40.9,53,52.7,41.2,52.7,26.7
	C52.7,18.9,49.4,12,44.1,7.1 M23.6,26.7c0,1.5,1.2,2.7,2.7,2.7c1.5,0,2.7-1.2,2.7-2.7c0-1.5-1.2-2.7-2.7-2.7
	C24.8,24,23.6,25.2,23.6,26.7"/>
</svg>
