<?xml version="1.0" encoding="utf-8"?>
<!-- Generator: Adobe Illustrator 26.5.1, SVG Export Plug-In . SVG Version: 6.00 Build 0)  -->
<svg version="1.1" id="Layer_1" xmlns="http://www.w3.org/2000/svg" xmlns:xlink="http://www.w3.org/1999/xlink" x="0px" y="0px"
	 viewBox="0 0 500 500" style="enable-background:new 0 0 500 500;" xml:space="preserve">
<style type="text/css">
	.st0{fill:#00DA00;}
</style>
<path class="st0" d="M182.1,316.6c-16.4-17.2-26.4-40.4-26.4-66.1c0-26.5,10.7-50.4,28.1-67.8c17.3-17.3,41-27.9,67.4-28
	c5,0.1,10.1-1.7,13.9-5.5L317,96.7c7.2-7.3,7.2-19,0-26.3l-51.8-52.7c-3.9-4-9.1-5.8-14.3-5.5C119.5,12.4,13.1,119,13.1,250.6
	c0,69.6,29.9,132.5,77.6,176c7.6,7,19.5,6.5,26.5-1.2c7-7.6,6.5-19.5-1.2-26.5C75.8,362,50.7,309.3,50.7,250.5
	c0-55.5,22.4-105.7,58.9-142.1c34.8-34.8,82.1-56.8,134.7-58.7l33.1,33.7l-33.6,34.1c-69.9,4.1-125.4,62-125.4,133
	c0,35.6,14,68.1,36.7,91.9c7.1,7.5,19,7.8,26.6,0.7C189,336,189.3,324.1,182.1,316.6 M409.8,73.1c-7.6-7-19.5-6.5-26.5,1.2
	c-7,7.6-6.5,19.5,1.2,26.5c40.2,36.8,65.3,89.6,65.4,148.3c0,55.5-22.5,105.7-58.9,142.1c-34.8,34.8-82.2,56.8-134.8,58.7
	l-32.9-33.6l33.9-34.2c69.8-4.3,125.1-62.1,125.1-133c0-35.6-14-68.1-36.7-91.9c-7.1-7.5-19-7.8-26.5-0.7c-7.5,7.1-7.8,19-0.7,26.6
	c16.4,17.2,26.4,40.4,26.4,66.1c0,26.5-10.7,50.4-28.1,67.8c-17.4,17.4-41.2,28-67.8,28c-5.3,0-10,2.2-13.4,5.7c0,0,0,0,0,0h0
	L183.5,403c-7.2,7.3-7.2,19-0.1,26.4l51.8,52.8c4.2,4.3,9.9,6.1,15.5,5.5c130.9-1,236.7-107.3,236.7-238.5
	C487.4,179.5,457.4,116.7,409.8,73.1 M225.1,249.5c0,13.6,11.1,24.7,24.7,24.7c13.7,0,24.7-11.1,24.7-24.7
	c0-13.7-11.1-24.7-24.7-24.7C236.2,224.7,225.1,235.8,225.1,249.5"/>
</svg>
