<?xml version="1.0" encoding="utf-8"?>
<!-- Generator: Adobe Illustrator 19.0.0, SVG Export Plug-In . SVG Version: 6.00 Build 0)  -->
<svg version="1.1" id="Layer_1" xmlns="http://www.w3.org/2000/svg" xmlns:xlink="http://www.w3.org/1999/xlink" x="0px" y="0px"
	 viewBox="-180 379.2 249.4 34.8" style="enable-background:new -180 379.2 249.4 34.8;" xml:space="preserve">
<style type="text/css">
	.st0{fill:#FFFFFF;}
	.st1{fill:#00DA00;}
</style>
<g>
	<path class="st0" d="M-48.7,388.5c-7.3,0-12.3,5.5-12.3,12.7c0,7.5,4.7,12.7,12.3,12.7c5.5,0,9.4-2.4,11.3-8.1h-5.8
		c-0.4,1.5-2.6,3.1-5.2,3.1c-3.7,0-5.7-1.9-5.9-6.1H-37C-36.6,395.4-40.5,388.5-48.7,388.5z M-54.4,398.6c0.1-1.9,1.3-5.1,5.5-5.1
		c3.2,0,4.7,1.8,5.3,5.1H-54.4z"/>
	<path class="st0" d="M-78.6,400.7h7.4c-0.4,4.6-3.2,7.2-7.9,7.2c-6.6,0-9-5.6-9-11.1c0-5.8,2.5-11.4,9-11.4c3.4,0,6.2,1.9,7,5.6h7
		c-0.8-7.5-7.2-11.7-14-11.7c-10.3,0-16.3,7.7-16.3,17.6c0,9.6,6.1,17.3,16.3,17.3c3.2,0,6.6-1.3,9.1-4.6l0.7,3.8h4.7v-18h-14V400.7
		z"/>
	<path class="st0" d="M-19.8,388.5c-2.8,0-5.7,1.3-7.4,4h-0.1v-3.4h-6.3v24.1h6.6v-12.6c0-4.9,1.5-6.9,5.1-6.9c3.1,0,4.2,2,4.2,5.9
		v13.6h6.6v-14.8C-11,392.4-12.8,388.5-19.8,388.5z"/>
	<path class="st0" d="M52.8,381.9h-6.6v7.2h-4v4.4h4v14.2c0,4.8,3.5,5.7,7.6,5.7c1.3,0,2.7,0,3.9-0.2v-5.2c-0.7,0.1-1.4,0.2-2.1,0.2
		c-2.2,0-2.8-0.6-2.8-2.8v-11.9h4.8v-4.4h-4.8V381.9z"/>
	<path class="st0" d="M29.2,388.5c-7.3,0-12.3,5.5-12.3,12.7c0,7.5,4.7,12.7,12.3,12.7c5.5,0,9.4-2.4,11.3-8.1h-5.8
		c-0.4,1.5-2.6,3.1-5.2,3.1c-3.7,0-5.7-1.9-5.9-6.1h17.4C41.4,395.4,37.4,388.5,29.2,388.5z M23.6,398.6c0.1-1.9,1.3-5.1,5.5-5.1
		c3.2,0,4.7,1.8,5.3,5.1H23.6z"/>
	<path class="st0" d="M66.7,385.9c0-1.2-0.8-1.6-2.2-1.6h-2.1v5.5h1.1v-2.4h0.7l1.3,2.4h1.1l-1.5-2.4
		C66,387.3,66.7,386.9,66.7,385.9z M63.5,386.6v-1.5h0.9c0.5,0,1.1,0.1,1.1,0.7c0,0.7-0.5,0.8-1.1,0.8L63.5,386.6L63.5,386.6z"/>
	<path class="st0" d="M64.4,382.1c-2.7,0-5.1,1.9-5.1,4.9c0,3,2.4,4.9,5.1,4.9c2.7,0,5.1-1.9,5.1-4.9
		C69.4,384,67.1,382.1,64.4,382.1z M64.4,390.9c-2.1,0-3.7-1.6-3.7-3.9c0-2.2,1.6-3.9,3.7-3.9c2,0,3.7,1.6,3.7,3.9
		C68.1,389.3,66.4,390.9,64.4,390.9z"/>
	<path class="st0" d="M7.1,398.7c-3.8-0.9-7.5-1.2-7.5-3.6c0-2,2.2-2.2,3.7-2.2c2.4,0,4.3,0.7,4.5,3.3h6.3
		c-0.5-5.9-5.4-7.7-10.6-7.7c-5.2,0-10.5,1.6-10.5,7.7c0,4.2,3.8,5.6,7.6,6.4c4.8,1,7.5,1.7,7.5,3.7c0,2.3-2.4,3.1-4.3,3.1
		c-2.6,0-5-1.2-5.1-4.1h-6.3c0.3,6.4,5.7,8.5,11.3,8.5c5.5,0,11-2,11-8.4C14.7,401,10.9,399.6,7.1,398.7z"/>
</g>
<g>
	<path class="st1" d="M-168.5,379.9H-180v33.3h11.5c10-0.2,15.3-5.7,15.3-16.6S-158.5,380.2-168.5,379.9z M-170.1,410.5h-6.8v-27.9
		h6.8c9.6,0,13.7,4,13.7,13.9S-160.5,410.6-170.1,410.5z"/>
	<polygon class="st1" points="-117.4,410.5 -117.4,397.4 -98.9,397.4 -98.9,394.7 -117.4,394.7 -117.4,382.6 -97.6,382.6 
		-97.6,379.9 -120.6,379.9 -120.6,413.2 -97.4,413.2 -97.4,410.5 	"/>
	<path class="st1" d="M-133.3,395.6l-8.1-2c-2.7-0.7-5-2-5-5.1c0-4.9,4-6.6,8.3-6.6c4.7,0,8.9,2.6,9.1,7.6h3.2
		c0-6.8-5.7-10.3-12.3-10.3c-9.4,0-11.5,6.1-11.5,9.4c0,5.2,3.6,7,7.5,8l7.4,1.8c3.1,0.7,6.8,2.2,6.8,6c0,4.8-5.3,6.8-8.8,6.8
		c-6.1,0-11-2.1-10.9-8.9h-3.2c-0.4,8.1,5.4,11.6,13.3,11.6c11.8,0,12.7-7.2,12.7-9.5C-124.7,399-128.6,396.9-133.3,395.6z"/>
</g>
</svg>
