<?xml version="1.0" encoding="utf-8"?>
<!-- Generator: Adobe Illustrator 26.5.1, SVG Export Plug-In . SVG Version: 6.00 Build 0)  -->
<svg version="1.1" id="Layer_1" xmlns="http://www.w3.org/2000/svg" xmlns:xlink="http://www.w3.org/1999/xlink" x="0px" y="0px"
	 viewBox="0 0 500 500" style="enable-background:new 0 0 500 500;" xml:space="preserve">
<style type="text/css">
	.st0{fill:#0DB04B;}
</style>
<path class="st0" d="M182.14,316.6c-16.36-17.25-26.37-40.39-26.39-66.05c0.02-26.53,10.71-50.39,28.08-67.79
	c17.33-17.29,41.04-27.94,67.41-28.04c5.04,0.15,10.12-1.66,13.95-5.52l51.82-52.54c7.19-7.3,7.21-19.03,0.01-26.35L265.2,17.58
	c-3.9-3.97-9.11-5.77-14.26-5.52C119.51,12.44,13.11,119.04,13.11,250.55c-0.02,69.63,29.91,132.47,77.55,176.02
	c7.64,7,19.53,6.47,26.53-1.17c7-7.65,6.47-19.53-1.19-26.53c-40.19-36.82-65.35-89.55-65.35-148.32
	C50.66,195,73.1,144.87,109.51,108.44c34.8-34.76,82.12-56.76,134.69-58.68l33.09,33.68l-33.64,34.12
	c-69.95,4.14-125.43,61.98-125.45,132.99c0,35.55,14,68.06,36.72,91.91c7.15,7.52,19.04,7.82,26.55,0.68
	C189,336,189.3,324.12,182.14,316.6 M409.81,73.14c-7.64-7-19.53-6.47-26.53,1.17c-6.98,7.64-6.47,19.53,1.19,26.53
	c40.19,36.82,65.33,89.55,65.35,148.32c-0.02,55.55-22.48,105.69-58.86,142.11c-34.83,34.8-82.19,56.78-134.83,58.67l-32.95-33.62
	l33.93-34.17c69.79-4.3,125.12-62.08,125.14-132.99c0-35.56-14-68.06-36.72-91.92c-7.15-7.53-19.04-7.81-26.55-0.68
	c-7.51,7.15-7.82,19.03-0.66,26.55c16.36,17.25,26.37,40.39,26.39,66.05c-0.02,26.53-10.71,50.39-28.08,67.79
	C299.24,334.32,275.39,345,248.86,345c-5.26,0-10.01,2.2-13.42,5.7c-0.02,0-0.02,0-0.02,0.01h-0.01l-51.9,52.3
	c-7.21,7.28-7.25,19.05-0.08,26.37l51.75,52.79c4.2,4.3,9.95,6.06,15.5,5.45c130.89-1.01,236.69-107.34,236.69-238.48
	C487.37,179.53,457.44,116.69,409.81,73.14 M225.11,249.46c0,13.64,11.08,24.73,24.73,24.73c13.66,0,24.72-11.09,24.72-24.73
	c0-13.66-11.06-24.73-24.72-24.73C236.2,224.73,225.11,235.8,225.11,249.46"/>
</svg>
