<?xml version="1.0" encoding="utf-8"?>
<!-- Generator: Adobe Illustrator 16.0.3, SVG Export Plug-In . SVG Version: 6.00 Build 0)  -->
<!DOCTYPE svg PUBLIC "-//W3C//DTD SVG 1.1//EN" "http://www.w3.org/Graphics/SVG/1.1/DTD/svg11.dtd">
<svg version="1.1" id="Layer_1" xmlns="http://www.w3.org/2000/svg" xmlns:xlink="http://www.w3.org/1999/xlink" x="0px" y="0px"
	 width="249.445px" height="34.844px" viewBox="0 0 249.445 34.844" enable-background="new 0 0 249.445 34.844"
	 xml:space="preserve">
<g>
	<path fill="#333333" d="M131.268,9.316c-7.313,0-12.296,5.496-12.296,12.718c0,7.453,4.704,12.67,12.296,12.67
		c5.451,0,9.41-2.422,11.273-8.105h-5.822c-0.42,1.49-2.562,3.121-5.217,3.121c-3.681,0-5.729-1.91-5.917-6.103h17.375
		C143.428,16.211,139.467,9.316,131.268,9.316z M125.585,19.425c0.093-1.863,1.305-5.124,5.497-5.124
		c3.215,0,4.658,1.771,5.264,5.124H125.585z"/>
	<path fill="#333333" d="M101.409,21.521h7.361c-0.42,4.612-3.168,7.175-7.92,7.175c-6.568,0-9.037-5.591-9.037-11.134
		c0-5.822,2.469-11.412,9.037-11.412c3.448,0,6.196,1.909,7.034,5.59h6.988C114.08,4.192,107.652,0,100.85,0
		C90.556,0,84.5,7.686,84.5,17.562c0,9.597,6.056,17.282,16.35,17.282c3.215,0,6.569-1.258,9.131-4.564l0.745,3.772h4.658v-17.98
		h-13.975V21.521z"/>
	<path fill="#333333" d="M160.196,9.316c-2.795,0-5.683,1.305-7.36,4.007h-0.14V9.969h-6.289v24.083h6.615V21.428
		c0-4.891,1.536-6.894,5.124-6.894c3.074,0,4.238,1.956,4.238,5.916v13.602H169V19.239C169,13.276,167.23,9.316,160.196,9.316z"/>
	<path fill="#333333" d="M232.771,2.748h-6.614v7.221h-4.007v4.425h4.007v14.208c0,4.799,3.54,5.729,7.594,5.729
		c1.303,0,2.747-0.046,3.865-0.232v-5.171c-0.699,0.141-1.352,0.187-2.05,0.187c-2.236,0-2.795-0.56-2.795-2.795V14.394h4.845V9.969
		h-4.845V2.748z"/>
	<path fill="#333333" d="M209.246,9.316c-7.313,0-12.297,5.496-12.297,12.718c0,7.453,4.704,12.67,12.297,12.67
		c5.451,0,9.41-2.422,11.274-8.105h-5.823c-0.42,1.49-2.563,3.121-5.218,3.121c-3.681,0-5.729-1.91-5.916-6.103h17.376
		C221.405,16.211,217.445,9.316,209.246,9.316z M203.563,19.425c0.094-1.863,1.305-5.124,5.497-5.124
		c3.214,0,4.658,1.771,5.264,5.124H203.563z"/>
	<path fill="#333333" d="M246.662,6.729c0-1.2-0.777-1.635-2.162-1.635h-2.082v5.526h1.092V8.258h0.687l1.347,2.362h1.146
		l-1.477-2.415C246.03,8.14,246.662,7.745,246.662,6.729z M243.51,7.402V5.95h0.924c0.502,0,1.136,0.092,1.136,0.686
		c0,0.674-0.462,0.767-1.082,0.767H243.51z"/>
	<path fill="#333333" d="M244.381,2.944c-2.677,0-5.063,1.925-5.063,4.919c0,3.008,2.387,4.945,5.063,4.945
		c2.678,0,5.064-1.938,5.064-4.945C249.445,4.869,247.059,2.944,244.381,2.944z M244.381,11.755c-2.069,0-3.72-1.636-3.72-3.892
		c0-2.242,1.65-3.865,3.72-3.865c2.045,0,3.722,1.623,3.722,3.865C248.103,10.119,246.426,11.755,244.381,11.755z"/>
	<path fill="#333333" d="M187.074,19.565c-3.773-0.886-7.5-1.212-7.5-3.588c0-1.957,2.189-2.235,3.68-2.235
		c2.377,0,4.332,0.699,4.519,3.261h6.289c-0.513-5.916-5.357-7.687-10.621-7.687c-5.171,0-10.481,1.584-10.481,7.732
		c0,4.239,3.82,5.59,7.641,6.429c4.75,1.025,7.498,1.724,7.498,3.727c0,2.329-2.422,3.075-4.332,3.075
		c-2.607,0-5.03-1.165-5.076-4.054H172.4c0.279,6.383,5.73,8.479,11.32,8.479c5.496,0,10.992-2.049,10.992-8.385
		C194.713,21.847,190.94,20.45,187.074,19.565z"/>
</g>
<g>
	<path fill="#00DA00" d="M11.506,0.792H0v33.26h11.506c10.016-0.233,15.28-5.729,15.28-16.63S21.521,1.024,11.506,0.792z
		 M9.923,31.351H3.167V3.493h6.755C19.472,3.446,23.618,7.5,23.618,17.422S19.472,31.396,9.923,31.351z"/>
	<polygon fill="#00DA00" points="62.561,31.351 62.561,18.214 81.101,18.214 81.101,15.512 62.561,15.512 62.561,3.493 
		82.358,3.493 82.358,0.792 59.393,0.792 59.393,34.052 82.591,34.052 82.591,31.351 	"/>
	<path fill="#00DA00" d="M46.676,16.49l-8.105-2.003c-2.702-0.652-5.031-1.957-5.031-5.078c0-4.938,4.006-6.614,8.338-6.614
		c4.705,0,8.898,2.562,9.084,7.64h3.168C54.176,3.634,48.4,0.093,41.832,0.093c-9.363,0-11.46,6.103-11.46,9.364
		c0,5.17,3.587,7.033,7.5,8.012l7.407,1.816c3.074,0.745,6.847,2.236,6.847,6.01c0,4.844-5.31,6.754-8.804,6.754
		c-6.055,0-10.993-2.097-10.853-8.944h-3.168c-0.373,8.106,5.403,11.646,13.276,11.646c11.785,0,12.717-7.221,12.717-9.504
		C55.293,19.798,51.381,17.747,46.676,16.49z"/>
</g>
</svg>
