<?xml version="1.0" encoding="utf-8"?>
<!-- Generator: Adobe Illustrator 26.5.3, SVG Export Plug-In . SVG Version: 6.00 Build 0)  -->
<svg version="1.1" id="Layer_1" xmlns="http://www.w3.org/2000/svg" xmlns:xlink="http://www.w3.org/1999/xlink" x="0px" y="0px"
	 viewBox="0 0 555.1 124.1" style="enable-background:new 0 0 555.1 124.1;" xml:space="preserve">
<style type="text/css">
	
		.st0{clip-path:url(#SVGID_00000172400991264908841140000009740339592919303596_);fill:url(#SVGID_00000030480145379981848520000016507768392109422744_);}
	.st1{fill:#FFFFFF;}
	.st2{clip-path:url(#SVGID_00000169544971441898639570000010088482130373442722_);fill:#FFFFFF;}
	
		.st3{clip-path:url(#SVGID_00000025419978649350891310000011474425796539606918_);fill:url(#SVGID_00000075157035347862639240000006893429738136473523_);}
	
		.st4{clip-path:url(#SVGID_00000019644305354996084280000012794101895888273849_);fill:url(#SVGID_00000098216565427272348650000010956154928352235930_);}
	
		.st5{clip-path:url(#SVGID_00000001659716345039845190000010600134392497994880_);fill:url(#SVGID_00000008150087789074302020000011471240598338915224_);}
	
		.st6{clip-path:url(#SVGID_00000059994248342338824190000002009212176342539139_);fill:url(#SVGID_00000106830990793663457310000018440124935610451601_);}
	
		.st7{clip-path:url(#SVGID_00000108309931949880986790000007215855919309991561_);fill:url(#SVGID_00000132073189799192349780000011843580288257212329_);}
	.st8{clip-path:url(#SVGID_00000012469127793486170220000005029515598396848305_);fill:#FFFFFF;}
</style>
<g>
	<defs>
		<path id="SVGID_1_" d="M29.6,79.2h21.6L7.1,115.7L29.6,79.2z M28.6,77.4L0,123.8l56.1-46.4H28.6z"/>
	</defs>
	<clipPath id="SVGID_00000142165278768500683380000004724083654234783381_">
		<use xlink:href="#SVGID_1_"  style="overflow:visible;"/>
	</clipPath>
	
		<linearGradient id="SVGID_00000159456344540637703410000016857104519038666395_" gradientUnits="userSpaceOnUse" x1="-143.41" y1="360.382" x2="-142.41" y2="360.382" gradientTransform="matrix(56.1169 0 0 56.1169 8047.7236 -20122.8984)">
		<stop  offset="0" style="stop-color:#F1F2F2"/>
		<stop  offset="0.453" style="stop-color:#F1F2F2"/>
		<stop  offset="1" style="stop-color:#808285"/>
	</linearGradient>
	
		<rect y="77.4" style="clip-path:url(#SVGID_00000142165278768500683380000004724083654234783381_);fill:url(#SVGID_00000159456344540637703410000016857104519038666395_);" width="56.1" height="46.4"/>
</g>
<path class="st1" d="M245,20.1h8.6v34.2H245V20.1z M249.9,33.2h19.1v7.2h-19.1V33.2z M265.9,20.1h8.6v34.2h-8.6V20.1z"/>
<path class="st1" d="M278.1,54.3l13.3-34.2h8.3l13.1,34.2h-9l-9.9-28.7h3.1L287,54.3H278.1z M286.2,41.5H305v6.8h-18.8V41.5z"/>
<path class="st1" d="M348.8,54.3L362,20.1h8.3l13.1,34.2h-9l-9.9-28.7h3.1l-10.1,28.7H348.8z M356.8,41.5h18.8v6.8h-18.8V41.5z"/>
<g>
	<defs>
		<rect id="SVGID_00000005972366425132246610000001678944855614693809_" x="-143.4" y="-234.9" width="841.9" height="595.3"/>
	</defs>
	<clipPath id="SVGID_00000008109049378250431620000005456772509344765622_">
		<use xlink:href="#SVGID_00000005972366425132246610000001678944855614693809_"  style="overflow:visible;"/>
	</clipPath>
	<path style="clip-path:url(#SVGID_00000008109049378250431620000005456772509344765622_);fill:#FFFFFF;" d="M386.7,20.1h8.6v34.2
		h-8.6V20.1z M393.5,40.4v-6.2h6.5c1.4,0,2.5-0.3,3.3-1c0.8-0.7,1.1-1.6,1.1-2.8c0-1.2-0.4-2.1-1.1-2.8c-0.8-0.7-1.8-1.1-3.3-1.1
		h-6.5v-6.4h7.7c2.3,0,4.3,0.4,6.1,1.3c1.7,0.9,3.1,2.1,4.1,3.6c1,1.5,1.5,3.3,1.5,5.3c0,2-0.5,3.8-1.5,5.3c-1,1.5-2.4,2.7-4.2,3.6
		c-1.8,0.9-3.9,1.3-6.3,1.3H393.5z M405.2,54.3l-9.9-14.6l7.8-1.9l12.1,16.5H405.2z"/>
	<path style="clip-path:url(#SVGID_00000008109049378250431620000005456772509344765622_);fill:#FFFFFF;" d="M246.8,73.8h1.5v32.6
		h-1.5V73.8z M247.3,106.3v-1.4h10.6c2.9,0,5.5-0.6,7.7-1.9c2.2-1.3,4-3,5.2-5.3c1.3-2.2,1.9-4.8,1.9-7.7c0-2.9-0.6-5.4-1.9-7.6
		c-1.3-2.2-3-4-5.2-5.3c-2.2-1.3-4.8-1.9-7.7-1.9h-10.5v-1.4h10.5c2.4,0,4.6,0.4,6.6,1.2c2,0.8,3.7,1.9,5.2,3.4
		c1.5,1.4,2.6,3.2,3.4,5.2c0.8,2,1.2,4.2,1.2,6.6c0,2.3-0.4,4.5-1.2,6.5c-0.8,2-1.9,3.7-3.4,5.2c-1.5,1.5-3.2,2.6-5.2,3.4
		c-2,0.8-4.2,1.2-6.6,1.2H247.3z"/>
	
		<rect x="282.3" y="73.8" style="clip-path:url(#SVGID_00000008109049378250431620000005456772509344765622_);fill:#FFFFFF;" width="1.5" height="32.6"/>
	<path style="clip-path:url(#SVGID_00000008109049378250431620000005456772509344765622_);fill:#FFFFFF;" d="M301.7,106.8
		c-2.5,0-4.7-0.5-6.6-1.5c-1.9-1-3.5-2.3-4.8-4l1.1-1.1c1.3,1.8,2.9,3.1,4.6,3.9c1.7,0.8,3.6,1.2,5.7,1.2c2.4,0,4.3-0.6,5.8-1.7
		c1.5-1.2,2.3-2.8,2.3-4.8c0-1.5-0.3-2.8-0.9-3.8c-0.6-1-1.5-1.8-2.5-2.4c-1-0.6-2.2-1.1-3.4-1.6c-1.2-0.5-2.4-0.9-3.7-1.4
		c-1.2-0.5-2.3-1-3.4-1.7c-1-0.7-1.9-1.6-2.5-2.7c-0.6-1.1-0.9-2.4-0.9-4.1c0-1.6,0.4-2.9,1.1-4.1c0.8-1.2,1.8-2.1,3.2-2.7
		c1.4-0.7,2.9-1,4.7-1c2.1,0,4,0.4,5.6,1.2c1.6,0.8,3,2,4.2,3.5l-1.1,1.1c-1.1-1.4-2.3-2.4-3.7-3.2c-1.4-0.7-3-1.1-4.9-1.1
		c-2.2,0-4,0.6-5.3,1.7c-1.4,1.1-2.1,2.7-2.1,4.7c0,1.4,0.3,2.6,0.9,3.5c0.6,0.9,1.5,1.7,2.5,2.3c1,0.6,2.2,1.1,3.4,1.5
		c1.2,0.4,2.4,0.9,3.7,1.4c1.2,0.5,2.3,1.1,3.4,1.8c1,0.7,1.9,1.6,2.5,2.7c0.6,1.1,0.9,2.5,0.9,4.2c0,2.7-0.9,4.8-2.6,6.2
		C307.1,106.1,304.7,106.8,301.7,106.8"/>
	<path style="clip-path:url(#SVGID_00000008109049378250431620000005456772509344765622_);fill:#FFFFFF;" d="M315,73.8h26.3v1.4H315
		V73.8z M327.4,74.7h1.5v31.7h-1.5V74.7z"/>
	<path style="clip-path:url(#SVGID_00000008109049378250431620000005456772509344765622_);fill:#FFFFFF;" d="M348.4,73.8h1.5v32.6
		h-1.5V73.8z M349.2,91v-1.4h10.7c2.7,0,4.7-0.7,6.1-2c1.4-1.3,2.1-3.1,2.1-5.2c0-2.2-0.7-3.9-2.1-5.3c-1.4-1.3-3.4-2-6.1-2h-10.7
		v-1.4h10.5c2.1,0,4,0.4,5.4,1.1c1.5,0.7,2.6,1.7,3.4,3c0.8,1.3,1.2,2.8,1.2,4.5s-0.4,3.2-1.2,4.5c-0.8,1.3-1.9,2.3-3.4,3
		c-1.5,0.7-3.3,1.1-5.4,1.1H349.2z M370,106.3l-13.1-16l1.7-0.3l13.4,16.3H370z"/>
	
		<rect x="378.5" y="73.8" style="clip-path:url(#SVGID_00000008109049378250431620000005456772509344765622_);fill:#FFFFFF;" width="1.5" height="32.6"/>
	<path style="clip-path:url(#SVGID_00000008109049378250431620000005456772509344765622_);fill:#FFFFFF;" d="M389.5,73.8h1.5v32.6
		h-1.5V73.8z M390.3,106.3v-1.4h11.3c2.6,0,4.7-0.7,6.3-2.1c1.6-1.4,2.4-3.2,2.4-5.5c0-1.5-0.3-2.8-1-3.9c-0.7-1.1-1.6-2-2.9-2.6
		c-1.2-0.6-2.6-1-4.2-1h-11.9v-1.3H402c2.1,0,3.8-0.6,5-1.8c1.2-1.2,1.8-2.8,1.8-4.9c0-2.1-0.7-3.7-2.1-4.9
		c-1.4-1.2-3.2-1.8-5.5-1.8h-10.9v-1.4h10.9c1.9,0,3.5,0.3,4.8,1c1.4,0.6,2.4,1.6,3.2,2.7c0.8,1.2,1.1,2.6,1.1,4.3
		c0,1.9-0.5,3.6-1.4,4.9c-1,1.3-2.4,2.3-4.2,2.8l0.2-0.6c2.2,0.5,3.9,1.5,5.1,3c1.2,1.5,1.9,3.3,1.9,5.4c0,1.8-0.4,3.4-1.3,4.7
		c-0.9,1.3-2.1,2.4-3.7,3.1c-1.6,0.7-3.4,1.1-5.6,1.1H390.3z"/>
	<path style="clip-path:url(#SVGID_00000008109049378250431620000005456772509344765622_);fill:#FFFFFF;" d="M430.9,106.8
		c-2.2,0-4.2-0.5-6-1.5c-1.8-1-3.1-2.4-4.1-4.1c-1-1.7-1.5-3.7-1.5-5.9V73.8h1.5v21.3c0,2.1,0.4,3.9,1.3,5.4
		c0.9,1.5,2.1,2.7,3.6,3.6c1.5,0.8,3.2,1.3,5.1,1.3c1.9,0,3.6-0.4,5.2-1.3c1.5-0.8,2.7-2,3.6-3.6c0.9-1.5,1.3-3.3,1.3-5.4V73.8h1.5
		v21.6c0,2.2-0.5,4.1-1.5,5.9c-1,1.7-2.4,3.1-4.1,4.1C435.1,106.3,433.2,106.8,430.9,106.8"/>
	<path style="clip-path:url(#SVGID_00000008109049378250431620000005456772509344765622_);fill:#FFFFFF;" d="M448.7,73.8H475v1.4
		h-26.3V73.8z M461.1,74.7h1.5v31.7h-1.5V74.7z"/>
	
		<rect x="482.1" y="73.8" style="clip-path:url(#SVGID_00000008109049378250431620000005456772509344765622_);fill:#FFFFFF;" width="1.5" height="32.6"/>
	<path style="clip-path:url(#SVGID_00000008109049378250431620000005456772509344765622_);fill:#FFFFFF;" d="M507.6,106.8
		c-2.3,0-4.4-0.4-6.3-1.3c-1.9-0.9-3.6-2-5.1-3.6c-1.4-1.5-2.6-3.3-3.4-5.4c-0.8-2-1.2-4.2-1.2-6.6c0-2.4,0.4-4.6,1.2-6.6
		c0.8-2,1.9-3.8,3.3-5.3c1.4-1.5,3.1-2.7,5.1-3.5c1.9-0.9,4-1.3,6.3-1.3c2.3,0,4.4,0.4,6.3,1.3c1.9,0.9,3.6,2,5.1,3.5
		c1.4,1.5,2.5,3.3,3.3,5.3c0.8,2,1.2,4.2,1.2,6.6c0,2.3-0.4,4.5-1.2,6.6c-0.8,2-1.9,3.8-3.3,5.3c-1.4,1.5-3.1,2.7-5,3.6
		C512,106.4,509.9,106.8,507.6,106.8 M507.5,105.3c2.7,0,5.2-0.7,7.3-2c2.2-1.3,3.9-3.2,5.1-5.5c1.3-2.3,1.9-4.9,1.9-7.8
		c0-2.2-0.4-4.2-1.1-6c-0.7-1.8-1.7-3.5-3-4.8c-1.3-1.4-2.8-2.5-4.5-3.2c-1.7-0.8-3.6-1.2-5.7-1.2c-2.7,0-5.2,0.7-7.3,2
		c-2.2,1.3-3.8,3.1-5.1,5.4c-1.2,2.3-1.9,4.9-1.9,7.8c0,2.2,0.4,4.2,1.1,6c0.7,1.9,1.7,3.5,3,4.9c1.3,1.4,2.8,2.5,4.5,3.3
		C503.6,104.9,505.5,105.3,507.5,105.3"/>
	<path style="clip-path:url(#SVGID_00000008109049378250431620000005456772509344765622_);fill:#FFFFFF;" d="M531.4,106.3V73.8h1.2
		l0.4,2v30.6H531.4z M553.9,106.3l-21.7-30.5l0.3-2.1l21.7,30.5L553.9,106.3z M553.9,106.3l-0.4-2V73.8h1.5v32.6H553.9z"/>
</g>
<g>
	<defs>
		<path id="SVGID_00000057114430195042857620000009826757586310409873_" d="M135.3,1.4l-18.6,24.1h49c0,0,0.1,0,0.1,0
			c3.4,0.1,31.1,3.7,31.1,38.7c0,35.1-29.8,36.5-29.8,36.5h-59.2l-28,23.4h82.6c0,0,55.7,2.1,55.7-62.7c0-60-55.9-60-55.9-60H135.3z
			"/>
	</defs>
	<clipPath id="SVGID_00000065762090547566708750000006865105687190432946_">
		<use xlink:href="#SVGID_00000057114430195042857620000009826757586310409873_"  style="overflow:visible;"/>
	</clipPath>
	
		<linearGradient id="SVGID_00000022547839133046279660000013367692336656223401_" gradientUnits="userSpaceOnUse" x1="-143.41" y1="360.382" x2="-142.41" y2="360.382" gradientTransform="matrix(106.5057 -72.3208 72.3208 106.5057 -10691.4766 -48655.5742)">
		<stop  offset="0" style="stop-color:#F1F2F2"/>
		<stop  offset="0.453" style="stop-color:#F1F2F2"/>
		<stop  offset="1" style="stop-color:#808285"/>
	</linearGradient>
	
		<polygon style="clip-path:url(#SVGID_00000065762090547566708750000006865105687190432946_);fill:url(#SVGID_00000022547839133046279660000013367692336656223401_);" points="
		123.6,190.5 276.2,86.8 174.5,-62.9 21.9,40.8 	"/>
</g>
<g>
	<defs>
		<path id="SVGID_00000031165699761148509440000010413206149445879732_" d="M135.6,1.4l-19.9,24.1h49c0,0,0.1,0,0.1,0
			c0.5,0,1.4,0.1,2.7,0.3c10.2,1,40.2,6.5,49.6,38.3c0-0.9,0-1.7,0-2.6c0-60-55.9-60-55.9-60H135.6z"/>
	</defs>
	<clipPath id="SVGID_00000084516767730637980060000013505183200016538548_">
		<use xlink:href="#SVGID_00000031165699761148509440000010413206149445879732_"  style="overflow:visible;"/>
	</clipPath>
	
		<linearGradient id="SVGID_00000136406019502410468480000017225389362601068222_" gradientUnits="userSpaceOnUse" x1="-143.41" y1="360.382" x2="-142.41" y2="360.382" gradientTransform="matrix(-50.0019 33.9529 -33.9529 -50.0019 5251.9404 22907.8398)">
		<stop  offset="0" style="stop-color:#F1F2F2"/>
		<stop  offset="0.453" style="stop-color:#F1F2F2"/>
		<stop  offset="1" style="stop-color:#808285"/>
	</linearGradient>
	
		<polygon style="clip-path:url(#SVGID_00000084516767730637980060000013505183200016538548_);fill:url(#SVGID_00000136406019502410468480000017225389362601068222_);" points="
		185.1,-45.8 86.6,21.1 147.7,111.2 246.2,44.2 	"/>
</g>
<g>
	<defs>
		<polygon id="SVGID_00000086663946657729165160000014470887835830334908_" points="79.2,47.1 61,68.8 127.2,68.8 152.7,47.1 		"/>
	</defs>
	<clipPath id="SVGID_00000106124981493652256120000010188528432637961116_">
		<use xlink:href="#SVGID_00000086663946657729165160000014470887835830334908_"  style="overflow:visible;"/>
	</clipPath>
	
		<linearGradient id="SVGID_00000096060755715876312350000006319177470157345439_" gradientUnits="userSpaceOnUse" x1="-143.41" y1="360.382" x2="-142.41" y2="360.382" gradientTransform="matrix(-57.8934 39.3114 -39.3114 -57.8934 5994.8975 26543.4844)">
		<stop  offset="0" style="stop-color:#F1F2F2"/>
		<stop  offset="0.453" style="stop-color:#F1F2F2"/>
		<stop  offset="1" style="stop-color:#808285"/>
	</linearGradient>
	
		<polygon style="clip-path:url(#SVGID_00000106124981493652256120000010188528432637961116_);fill:url(#SVGID_00000096060755715876312350000006319177470157345439_);" points="
		123.8,4.5 50.9,54 90,111.4 162.8,62 	"/>
</g>
<g>
	<defs>
		<polygon id="SVGID_00000014625593334988554430000003132163985063825549_" points="97.7,68.8 60.8,125.5 127.2,68.8 		"/>
	</defs>
	<clipPath id="SVGID_00000080899536021066191430000003285278156689031348_">
		<use xlink:href="#SVGID_00000014625593334988554430000003132163985063825549_"  style="overflow:visible;"/>
	</clipPath>
	
		<linearGradient id="SVGID_00000102512818984956584560000003491446167184476035_" gradientUnits="userSpaceOnUse" x1="-143.41" y1="360.382" x2="-142.41" y2="360.382" gradientTransform="matrix(52.8265 0 0 52.8265 7648.5049 -18940.5605)">
		<stop  offset="0" style="stop-color:#F1F2F2"/>
		<stop  offset="0.453" style="stop-color:#F1F2F2"/>
		<stop  offset="1" style="stop-color:#808285"/>
	</linearGradient>
	
		<rect x="60.8" y="68.8" style="clip-path:url(#SVGID_00000080899536021066191430000003285278156689031348_);fill:url(#SVGID_00000102512818984956584560000003491446167184476035_);" width="66.4" height="56.6"/>
</g>
<g>
	<defs>
		<polygon id="SVGID_00000179637832775113450270000012907905616217091746_" points="83.1,0 32.3,68.8 61,68.8 123.4,0 		"/>
	</defs>
	<clipPath id="SVGID_00000170274375193363587410000008184597769494843836_">
		<use xlink:href="#SVGID_00000179637832775113450270000012907905616217091746_"  style="overflow:visible;"/>
	</clipPath>
	
		<linearGradient id="SVGID_00000004545194518290242120000000925604469780797886_" gradientUnits="userSpaceOnUse" x1="-143.41" y1="360.382" x2="-142.41" y2="360.382" gradientTransform="matrix(72.426 0 0 72.426 10435.1709 -26066.6191)">
		<stop  offset="0" style="stop-color:#F1F2F2"/>
		<stop  offset="0.453" style="stop-color:#F1F2F2"/>
		<stop  offset="1" style="stop-color:#808285"/>
	</linearGradient>
	
		<rect x="32.3" style="clip-path:url(#SVGID_00000170274375193363587410000008184597769494843836_);fill:url(#SVGID_00000004545194518290242120000000925604469780797886_);" width="91.1" height="68.8"/>
</g>
<g>
	<defs>
		<rect id="SVGID_00000145030785262605887110000013963409172627581600_" x="-143.4" y="-234.9" width="841.9" height="595.3"/>
	</defs>
	<clipPath id="SVGID_00000139285552359804937210000008978670949073446820_">
		<use xlink:href="#SVGID_00000145030785262605887110000013963409172627581600_"  style="overflow:visible;"/>
	</clipPath>
	
		<rect x="334.6" y="33.4" style="clip-path:url(#SVGID_00000139285552359804937210000008978670949073446820_);fill:#FFFFFF;" width="14.1" height="7.2"/>
	<path style="clip-path:url(#SVGID_00000139285552359804937210000008978670949073446820_);fill:#FFFFFF;" d="M337.5,44.6
		c-0.5,0.5-1,1-1.7,1.4c-1.4,0.8-3.1,1.3-5,1.3c-1.4,0-2.7-0.2-3.9-0.7c-1.2-0.5-2.2-1.1-3-2c-0.8-0.9-1.5-1.9-1.9-3.2
		c-0.4-1.2-0.7-2.6-0.7-4.2c0-2,0.4-3.7,1.2-5.3c0.8-1.5,1.9-2.7,3.3-3.5c1.4-0.8,3.1-1.2,5-1.2c1.4,0,2.7,0.2,3.9,0.7
		c1,0.4,1.9,1,2.6,1.7h10.1c-0.9-1.9-2.1-3.6-3.5-5.1c-1.6-1.6-3.6-2.9-5.8-3.7c-2.2-0.9-4.6-1.3-7.3-1.3c-2.6,0-5.1,0.4-7.3,1.3
		c-2.2,0.9-4.1,2.1-5.8,3.7c-1.6,1.6-2.9,3.5-3.8,5.6c-0.9,2.1-1.4,4.5-1.4,7c0,2.5,0.5,4.8,1.4,7c0.9,2.2,2.2,4.1,3.9,5.7
		c1.7,1.6,3.6,2.9,5.8,3.8c2.2,0.9,4.6,1.3,7.3,1.3c2.6,0,5-0.4,7.2-1.3c2.2-0.9,4.1-2.1,5.8-3.8c1.5-1.5,2.7-3.3,3.6-5.3H337.5z"/>
</g>
</svg>
