<?xml version="1.0" encoding="utf-8"?>
<!-- Generator: Adobe Illustrator 19.0.0, SVG Export Plug-In . SVG Version: 6.00 Build 0)  -->
<svg version="1.1" id="Layer_1" xmlns="http://www.w3.org/2000/svg" xmlns:xlink="http://www.w3.org/1999/xlink" x="0px" y="0px"
	 viewBox="-180 379.2 229.3 34.8" style="enable-background:new -180 379.2 229.3 34.8;" xml:space="preserve">
<style type="text/css">
	.st0{fill:#EE0000;}
	.st1{fill:#FFFFFF;}
</style>
<g>
	<path class="st0" d="M-168.5,379.9H-180v33.3h11.5c10-0.2,15.3-5.7,15.3-16.6S-158.5,380.2-168.5,379.9z M-170.1,410.5h-6.8v-27.9
		h6.8c9.6,0,13.7,4,13.7,13.9S-160.5,410.6-170.1,410.5z"/>
	<polygon class="st0" points="-117.4,410.5 -117.4,397.4 -98.9,397.4 -98.9,394.7 -117.4,394.7 -117.4,382.6 -97.6,382.6 
		-97.6,379.9 -120.6,379.9 -120.6,413.2 -97.4,413.2 -97.4,410.5 	"/>
	<path class="st0" d="M-133.3,395.6l-8.1-2c-2.7-0.7-5-2-5-5.1c0-4.9,4-6.6,8.3-6.6c4.7,0,8.9,2.6,9.1,7.6h3.2
		c0-6.8-5.7-10.3-12.3-10.3c-9.4,0-11.5,6.1-11.5,9.4c0,5.2,3.6,7,7.5,8l7.4,1.8c3.1,0.7,6.8,2.2,6.8,6c0,4.8-5.3,6.8-8.8,6.8
		c-6.1,0-11-2.1-10.9-8.9h-3.2c-0.4,8.1,5.4,11.6,13.3,11.6c11.8,0,12.7-7.2,12.7-9.5C-124.7,399-128.6,396.9-133.3,395.6z"/>
</g>
<g>
	<path class="st1" d="M45.7,385.9c0-1.2-0.8-1.6-2.2-1.6h-2.1v5.5h1.1v-2.4h0.7l1.3,2.4h1.1l-1.5-2.4
		C45,387.3,45.7,386.9,45.7,385.9z M42.5,386.6v-1.5h0.9c0.5,0,1.1,0.1,1.1,0.7c0,0.7-0.5,0.8-1.1,0.8L42.5,386.6L42.5,386.6z"/>
	<path class="st1" d="M43.4,382.1c-2.7,0-5.1,1.9-5.1,4.9c0,3,2.4,4.9,5.1,4.9c2.7,0,5.1-1.9,5.1-4.9
		C48.4,384,46.1,382.1,43.4,382.1z M43.4,390.9c-2.1,0-3.7-1.6-3.7-3.9c0-2.2,1.6-3.9,3.7-3.9c2,0,3.7,1.6,3.7,3.9
		C47.1,389.3,45.4,390.9,43.4,390.9z"/>
</g>
<g>
	<path class="st1" d="M-95.5,413.4v-33.7h10.7c4.1,0,6.7,0.2,8,0.5c1.9,0.5,3.5,1.6,4.8,3.3c1.3,1.7,1.9,3.9,1.9,6.6
		c0,2.1-0.4,3.8-1.1,5.2c-0.7,1.4-1.7,2.5-2.8,3.3c-1.1,0.8-2.3,1.3-3.5,1.6c-1.6,0.3-3.9,0.5-6.9,0.5h-4.4v12.7H-95.5z
		 M-88.8,385.4v9.6h3.7c2.6,0,4.4-0.2,5.3-0.5c0.9-0.4,1.6-0.9,2.1-1.7c0.5-0.8,0.8-1.6,0.8-2.6c0-1.2-0.4-2.2-1.1-3
		c-0.7-0.8-1.6-1.3-2.7-1.5c-0.8-0.2-2.4-0.2-4.8-0.2L-88.8,385.4L-88.8,385.4z"/>
	<path class="st1" d="M-67,400.9c0-2.1,0.5-4.2,1.6-6.2c1-2,2.5-3.5,4.4-4.6c1.9-1.1,4-1.6,6.4-1.6c3.6,0,6.6,1.2,8.9,3.6
		c2.3,2.4,3.5,5.4,3.5,9.1c0,3.7-1.2,6.8-3.5,9.2c-2.3,2.4-5.3,3.6-8.9,3.6c-2.2,0-4.3-0.5-6.3-1.5c-2-1-3.5-2.5-4.6-4.5
		C-66.4,406.1-67,403.7-67,400.9z M-60.4,401.2c0,2.4,0.6,4.3,1.7,5.6c1.1,1.3,2.5,1.9,4.2,1.9s3-0.6,4.2-1.9
		c1.1-1.3,1.7-3.2,1.7-5.6c0-2.4-0.6-4.2-1.7-5.5c-1.1-1.3-2.5-1.9-4.2-1.9c-1.7,0-3.1,0.6-4.2,1.9C-59.9,397-60.4,398.8-60.4,401.2
		z"/>
	<path class="st1" d="M-33.6,413.4l-7.6-24.4h6.2l4.5,16l4.1-16h6.1l4,16l4.6-16h6.3l-7.7,24.4h-6.1l-4.1-15.7l-4.1,15.7H-33.6z"/>
	<path class="st1" d="M11,405.7l6.3,1.1c-0.8,2.4-2.1,4.2-3.9,5.4c-1.8,1.2-4,1.9-6.6,1.9c-4.2,0-7.3-1.4-9.3-4.2
		c-1.6-2.2-2.4-5-2.4-8.4c0-4,1-7.2,3.1-9.5c2.1-2.3,4.7-3.4,7.9-3.4c3.6,0,6.4,1.2,8.5,3.6c2.1,2.4,3.1,6.1,3,11H1.7
		c0,1.9,0.6,3.4,1.5,4.5c1,1.1,2.2,1.6,3.7,1.6c1,0,1.8-0.3,2.5-0.8C10.1,407.8,10.6,406.9,11,405.7z M11.3,399.1
		c0-1.9-0.5-3.3-1.4-4.3c-0.9-1-2-1.5-3.3-1.5c-1.4,0-2.5,0.5-3.4,1.5c-0.9,1-1.3,2.4-1.3,4.2L11.3,399.1L11.3,399.1z"/>
	<path class="st1" d="M28,413.4h-6.4V389h5.9v3.5c1-1.6,1.9-2.7,2.7-3.2c0.8-0.5,1.7-0.8,2.7-0.8c1.4,0,2.8,0.4,4.2,1.2l-2,5.6
		c-1.1-0.7-2.1-1.1-3-1.1c-0.9,0-1.6,0.3-2.3,0.7c-0.6,0.5-1.1,1.4-1.5,2.7c-0.4,1.3-0.5,4-0.5,8.2L28,413.4L28,413.4z"/>
</g>
</svg>
