<?xml version="1.0" encoding="utf-8"?>
<!-- Generator: Adobe Illustrator 26.5.3, SVG Export Plug-In . SVG Version: 6.00 Build 0)  -->
<svg version="1.1" id="Layer_1" xmlns="http://www.w3.org/2000/svg" xmlns:xlink="http://www.w3.org/1999/xlink" x="0px" y="0px"
	 viewBox="0 0 228.4 34.8" style="enable-background:new 0 0 228.4 34.8;" xml:space="preserve">
<style type="text/css">
	.st0{fill:#EE0000;}
	.st1{fill:#333333;}
</style>
<g>
	<path class="st0" d="M11.5,0.8H0v33.3h11.5c10-0.2,15.3-5.7,15.3-16.6S21.5,1,11.5,0.8z M9.9,31.4H3.2V3.5h6.8
		c9.6,0,13.7,4,13.7,13.9S19.5,31.4,9.9,31.4z"/>
	<polygon class="st0" points="62.6,31.4 62.6,18.2 81.1,18.2 81.1,15.5 62.6,15.5 62.6,3.5 82.4,3.5 82.4,0.8 59.4,0.8 59.4,34.1 
		82.6,34.1 82.6,31.4 	"/>
	<path class="st0" d="M46.7,16.5l-8.1-2c-2.7-0.7-5-2-5-5.1c0-4.9,4-6.6,8.3-6.6c4.7,0,8.9,2.6,9.1,7.6h3.2
		c0-6.8-5.7-10.3-12.3-10.3c-9.4,0-11.5,6.1-11.5,9.4c0,5.2,3.6,7,7.5,8l7.4,1.8c3.1,0.7,6.8,2.2,6.8,6c0,4.8-5.3,6.8-8.8,6.8
		c-6.1,0-11-2.1-10.9-8.9h-3.2c-0.4,8.1,5.4,11.6,13.3,11.6c11.8,0,12.7-7.2,12.7-9.5C55.3,19.8,51.4,17.7,46.7,16.5z"/>
</g>
<g>
	<path class="st1" d="M225.7,6.7c0-1.2-0.8-1.6-2.2-1.6h-2.1v5.5h1.1V8.3h0.7l1.3,2.4h1.1l-1.5-2.4C225,8.1,225.7,7.7,225.7,6.7z
		 M222.5,7.4V5.9h0.9c0.5,0,1.1,0.1,1.1,0.7c0,0.7-0.5,0.8-1.1,0.8L222.5,7.4L222.5,7.4z"/>
	<path class="st1" d="M223.4,2.9c-2.7,0-5.1,1.9-5.1,4.9c0,3,2.4,4.9,5.1,4.9c2.7,0,5.1-1.9,5.1-4.9C228.4,4.9,226.1,2.9,223.4,2.9z
		 M223.4,11.8c-2.1,0-3.7-1.6-3.7-3.9c0-2.2,1.6-3.9,3.7-3.9c2,0,3.7,1.6,3.7,3.9C227.1,10.1,225.4,11.8,223.4,11.8z"/>
</g>
<g>
	<path class="st1" d="M84.5,34.3V0.6h10.7c4.1,0,6.7,0.2,8,0.5c1.9,0.5,3.5,1.6,4.8,3.3c1.3,1.7,1.9,3.9,1.9,6.6
		c0,2.1-0.4,3.8-1.1,5.2c-0.7,1.4-1.7,2.5-2.8,3.3c-1.1,0.8-2.3,1.3-3.5,1.6c-1.6,0.3-3.9,0.5-6.9,0.5h-4.4v12.7H84.5z M91.2,6.3
		v9.6h3.7c2.6,0,4.4-0.2,5.3-0.5c0.9-0.4,1.6-0.9,2.1-1.7c0.5-0.8,0.8-1.6,0.8-2.6c0-1.2-0.4-2.2-1.1-3c-0.7-0.8-1.6-1.3-2.7-1.5
		c-0.8-0.2-2.4-0.2-4.8-0.2L91.2,6.3L91.2,6.3z"/>
	<path class="st1" d="M113,21.7c0-2.1,0.5-4.2,1.6-6.2c1-2,2.5-3.5,4.4-4.6c1.9-1.1,4-1.6,6.4-1.6c3.6,0,6.6,1.2,8.9,3.6
		c2.3,2.4,3.5,5.4,3.5,9.1c0,3.7-1.2,6.8-3.5,9.2c-2.3,2.4-5.3,3.6-8.9,3.6c-2.2,0-4.3-0.5-6.3-1.5c-2-1-3.5-2.5-4.6-4.5
		C113.6,26.9,113,24.5,113,21.7z M119.6,22.1c0,2.4,0.6,4.3,1.7,5.6c1.1,1.3,2.5,1.9,4.2,1.9s3-0.6,4.2-1.9c1.1-1.3,1.7-3.2,1.7-5.6
		c0-2.4-0.6-4.2-1.7-5.5c-1.1-1.3-2.5-1.9-4.2-1.9c-1.7,0-3.1,0.6-4.2,1.9C120.1,17.8,119.6,19.7,119.6,22.1z"/>
	<path class="st1" d="M146.4,34.3l-7.6-24.4h6.2l4.5,16l4.1-16h6.1l4,16l4.6-16h6.3l-7.7,24.4h-6.1l-4.1-15.7l-4.1,15.7H146.4z"/>
	<path class="st1" d="M191,26.5l6.3,1.1c-0.8,2.4-2.1,4.2-3.9,5.4c-1.8,1.2-4,1.9-6.6,1.9c-4.2,0-7.3-1.4-9.3-4.2
		c-1.6-2.2-2.4-5-2.4-8.4c0-4,1-7.2,3.1-9.5c2.1-2.3,4.7-3.4,7.9-3.4c3.6,0,6.4,1.2,8.5,3.6c2.1,2.4,3.1,6.1,3,11h-15.9
		c0,1.9,0.6,3.4,1.5,4.5c1,1.1,2.2,1.6,3.7,1.6c1,0,1.8-0.3,2.5-0.8C190.1,28.6,190.6,27.7,191,26.5z M191.3,20
		c0-1.9-0.5-3.3-1.4-4.3c-0.9-1-2-1.5-3.3-1.5c-1.4,0-2.5,0.5-3.4,1.5c-0.9,1-1.3,2.4-1.3,4.2L191.3,20L191.3,20z"/>
	<path class="st1" d="M208,34.3h-6.4V9.9h5.9v3.5c1-1.6,1.9-2.7,2.7-3.2c0.8-0.5,1.7-0.8,2.7-0.8c1.4,0,2.8,0.4,4.2,1.2l-2,5.6
		c-1.1-0.7-2.1-1.1-3-1.1c-0.9,0-1.6,0.2-2.3,0.7c-0.6,0.5-1.1,1.4-1.5,2.7c-0.4,1.3-0.5,4-0.5,8.2L208,34.3L208,34.3z"/>
</g>
</svg>
