<?xml version="1.0" encoding="utf-8"?>
<!-- Generator: Adobe Illustrator 26.5.1, SVG Export Plug-In . SVG Version: 6.00 Build 0)  -->
<svg version="1.1" id="Layer_1" xmlns="http://www.w3.org/2000/svg" xmlns:xlink="http://www.w3.org/1999/xlink" x="0px" y="0px"
	 viewBox="0 0 294.9 52" style="enable-background:new 0 0 294.9 52;" xml:space="preserve">
<style type="text/css">
	.st0{fill:#EE0000;}
	.st1{fill:#FFFFFF;}
</style>
<g>
	<g>
		<g>
			<path class="st0" d="M77.1,9.2H65.6v33.3h11.5c10-0.2,15.3-5.7,15.3-16.6S87.1,9.6,77.1,9.2z M75.5,39.8h-6.8V11.9h6.8
				c9.6,0,13.7,4,13.7,13.9S85.1,39.9,75.5,39.8z"/>
			<polygon class="st0" points="128.2,39.8 128.2,26.7 146.7,26.7 146.7,24.1 128.2,24.1 128.2,11.9 148,11.9 148,9.2 125,9.2 
				125,42.6 148.2,42.6 148.2,39.8 			"/>
			<path class="st0" d="M112.3,24.9l-8.1-2c-2.7-0.7-5-2-5-5.1c0-4.9,4-6.6,8.3-6.6c4.7,0,8.9,2.6,9.1,7.6h3.2
				c0-6.8-5.7-10.3-12.3-10.3c-9.4,0-11.5,6.1-11.5,9.4c0,5.2,3.6,7,7.5,8l7.4,1.8c3.1,0.7,6.8,2.2,6.8,6c0,4.8-5.3,6.8-8.8,6.8
				c-6.1,0-11-2.1-10.9-8.9h-3.2c-0.4,8.1,5.4,11.6,13.3,11.6c11.8,0,12.7-7.2,12.7-9.5C120.9,28.3,117,26.2,112.3,24.9z"/>
		</g>
		<g>
			<path class="st1" d="M291.3,15.2c0-1.2-0.8-1.6-2.2-1.6H287v5.5h1.1v-2.4h0.7l1.3,2.4h1.1l-1.5-2.4
				C290.6,16.6,291.3,16.2,291.3,15.2z M288.1,15.9v-1.5h0.9c0.5,0,1.1,0.1,1.1,0.7c0,0.7-0.5,0.8-1.1,0.8H288.1L288.1,15.9z"/>
			<path class="st1" d="M289,11.4c-2.7,0-5.1,1.9-5.1,4.9s2.4,4.9,5.1,4.9c2.7,0,5.1-1.9,5.1-4.9C294,13.3,291.7,11.4,289,11.4z
				 M289,20.2c-2.1,0-3.7-1.6-3.7-3.9c0-2.2,1.6-3.9,3.7-3.9c2,0,3.7,1.6,3.7,3.9S291,20.2,289,20.2z"/>
		</g>
		<g>
			<path class="st1" d="M150.1,42.7V9h10.7c4.1,0,6.7,0.2,8,0.5c1.9,0.5,3.5,1.6,4.8,3.3c1.3,1.7,1.9,3.9,1.9,6.6
				c0,2.1-0.4,3.8-1.1,5.2c-0.7,1.4-1.7,2.5-2.8,3.3s-2.3,1.3-3.5,1.6c-1.6,0.3-3.9,0.5-6.9,0.5h-4.4v12.7H150.1z M156.8,14.7v9.6
				h3.7c2.6,0,4.4-0.2,5.3-0.5c0.9-0.4,1.6-0.9,2.1-1.7c0.5-0.8,0.8-1.6,0.8-2.6c0-1.2-0.4-2.2-1.1-3s-1.6-1.3-2.7-1.5
				c-0.8-0.2-2.4-0.2-4.8-0.2L156.8,14.7L156.8,14.7z"/>
			<path class="st1" d="M178.6,30.2c0-2.1,0.5-4.2,1.6-6.2c1-2,2.5-3.5,4.4-4.6c1.9-1.1,4-1.6,6.4-1.6c3.6,0,6.6,1.2,8.9,3.6
				c2.3,2.4,3.5,5.4,3.5,9.1s-1.2,6.8-3.5,9.2c-2.3,2.4-5.3,3.6-8.9,3.6c-2.2,0-4.3-0.5-6.3-1.5s-3.5-2.5-4.6-4.5
				C179.2,35.4,178.6,33.1,178.6,30.2z M185.2,30.6c0,2.4,0.6,4.3,1.7,5.6c1.1,1.3,2.5,1.9,4.2,1.9c1.7,0,3-0.6,4.2-1.9
				c1.1-1.3,1.7-3.2,1.7-5.6s-0.6-4.2-1.7-5.5s-2.5-1.9-4.2-1.9c-1.7,0-3.1,0.6-4.2,1.9C185.7,26.3,185.2,28.1,185.2,30.6z"/>
			<path class="st1" d="M212,42.7l-7.6-24.4h6.2l4.5,16l4.1-16h6.1l4,16l4.6-16h6.3l-7.7,24.4h-6.1L222.3,27l-4.1,15.7H212z"/>
			<path class="st1" d="M256.6,35.1l6.3,1.1c-0.8,2.4-2.1,4.2-3.9,5.4c-1.8,1.2-4,1.9-6.6,1.9c-4.2,0-7.3-1.4-9.3-4.2
				c-1.6-2.2-2.4-5-2.4-8.4c0-4,1-7.2,3.1-9.5c2.1-2.3,4.7-3.4,7.9-3.4c3.6,0,6.4,1.2,8.5,3.6s3.1,6.1,3,11h-15.9
				c0,1.9,0.6,3.4,1.5,4.5c1,1.1,2.2,1.6,3.7,1.6c1,0,1.8-0.3,2.5-0.8C255.7,37.1,256.2,36.2,256.6,35.1z M256.9,28.4
				c0-1.9-0.5-3.3-1.4-4.3c-0.9-1-2-1.5-3.3-1.5c-1.4,0-2.5,0.5-3.4,1.5c-0.9,1-1.3,2.4-1.3,4.2L256.9,28.4L256.9,28.4z"/>
			<path class="st1" d="M273.6,42.7h-6.4V18.3h5.9v3.5c1-1.6,1.9-2.7,2.7-3.2c0.8-0.5,1.7-0.8,2.7-0.8c1.4,0,2.8,0.4,4.2,1.2l-2,5.6
				c-1.1-0.7-2.1-1.1-3-1.1s-1.6,0.3-2.3,0.7c-0.6,0.5-1.1,1.4-1.5,2.7c-0.4,1.3-0.5,4-0.5,8.2L273.6,42.7L273.6,42.7z"/>
		</g>
	</g>
	<path class="st0" d="M23.6,19.3v13.4c0,1.3,1,2.3,2.3,2.3c1.3,0,2.3-1,2.3-2.3V19.3c0-1.2-1-2.3-2.3-2.3C24.7,17,23.6,18,23.6,19.3
		 M11.8,9.9v32.2c0,1.2,1,2.3,2.3,2.3c1.3,0,2.3-1,2.3-2.3V9.9c0-1.2-1-2.3-2.3-2.3C12.9,7.7,11.8,8.7,11.8,9.9 M0,2.3v47.5
		C0,51,1.1,52,2.3,52c1.3,0,2.3-1,2.3-2.3V2.3C4.7,1,3.6,0,2.3,0C1.1,0,0,1,0,2.3 M47.2,2.3v47.5c0,1.2,1,2.3,2.3,2.3
		c1.3,0,2.3-1,2.3-2.3V2.3c0-1.2-1-2.3-2.3-2.3C48.3,0,47.2,1,47.2,2.3 M35.4,9.9v32.2c0,1.2,1,2.3,2.3,2.3c1.3,0,2.3-1,2.3-2.3V9.9
		c0-1.2-1-2.3-2.3-2.3C36.5,7.7,35.4,8.7,35.4,9.9"/>
</g>
</svg>
