<?xml version="1.0" encoding="utf-8"?>
<!-- Generator: Adobe Illustrator 16.0.3, SVG Export Plug-In . SVG Version: 6.00 Build 0)  -->
<!DOCTYPE svg PUBLIC "-//W3C//DTD SVG 1.1//EN" "http://www.w3.org/Graphics/SVG/1.1/DTD/svg11.dtd">
<svg version="1.1" id="Layer_1" xmlns="http://www.w3.org/2000/svg" xmlns:xlink="http://www.w3.org/1999/xlink" x="0px" y="0px"
	 width="249.445px" height="34.844px" viewBox="0 0 249.445 34.844" enable-background="new 0 0 249.445 34.844"
	 xml:space="preserve">
<g>
	<path fill="#EE0000" d="M11.506,0.792H0v33.26h11.506c10.016-0.233,15.28-5.729,15.28-16.63S21.521,1.024,11.506,0.792z
		 M9.923,31.351H3.167V3.493h6.755C19.472,3.446,23.618,7.5,23.618,17.422S19.472,31.396,9.923,31.351z"/>
	<polygon fill="#EE0000" points="62.561,31.351 62.561,18.214 81.101,18.214 81.101,15.512 62.561,15.512 62.561,3.493 
		82.358,3.493 82.358,0.792 59.393,0.792 59.393,34.052 82.591,34.052 82.591,31.351 	"/>
	<path fill="#EE0000" d="M46.676,16.49l-8.105-2.003c-2.702-0.652-5.031-1.957-5.031-5.078c0-4.938,4.006-6.614,8.338-6.614
		c4.705,0,8.898,2.562,9.084,7.64h3.168C54.176,3.634,48.4,0.093,41.832,0.093c-9.363,0-11.46,6.103-11.46,9.364
		c0,5.17,3.587,7.033,7.5,8.012l7.407,1.816c3.074,0.745,6.847,2.236,6.847,6.01c0,4.844-5.31,6.754-8.804,6.754
		c-6.055,0-10.993-2.097-10.853-8.944h-3.168c-0.373,8.106,5.403,11.646,13.276,11.646c11.785,0,12.717-7.221,12.717-9.504
		C55.293,19.798,51.381,17.747,46.676,16.49z"/>
</g>
<g>
	<path fill="#333333" d="M225.662,6.729c0-1.2-0.777-1.635-2.162-1.635h-2.082v5.526h1.092V8.258h0.687l1.347,2.362h1.146
		l-1.477-2.415C225.03,8.14,225.662,7.745,225.662,6.729z M222.51,7.402V5.95h0.924c0.502,0,1.136,0.092,1.136,0.686
		c0,0.674-0.462,0.767-1.082,0.767H222.51z"/>
	<path fill="#333333" d="M223.381,2.944c-2.677,0-5.063,1.925-5.063,4.919c0,3.008,2.387,4.945,5.063,4.945
		c2.678,0,5.064-1.938,5.064-4.945C228.445,4.869,226.059,2.944,223.381,2.944z M223.381,11.755c-2.069,0-3.72-1.636-3.72-3.892
		c0-2.242,1.65-3.865,3.72-3.865c2.045,0,3.722,1.623,3.722,3.865C227.103,10.119,225.426,11.755,223.381,11.755z"/>
</g>
<g>
	<path fill="#333333" d="M84.547,34.292V0.57h10.741c4.07,0,6.723,0.168,7.959,0.506c1.899,0.506,3.49,1.607,4.771,3.3
		c1.281,1.696,1.922,3.885,1.922,6.568c0,2.07-0.37,3.811-1.108,5.221c-0.739,1.411-1.678,2.519-2.814,3.325
		c-1.141,0.804-2.297,1.337-3.472,1.598c-1.598,0.322-3.912,0.483-6.942,0.483h-4.364v12.721H84.547z M91.241,6.274v9.569h3.663
		c2.638,0,4.402-0.176,5.292-0.529c0.889-0.352,1.585-0.905,2.091-1.656c0.504-0.752,0.757-1.626,0.757-2.623
		c0-1.227-0.354-2.238-1.063-3.036c-0.708-0.798-1.605-1.296-2.69-1.496c-0.799-0.153-2.405-0.23-4.817-0.23H91.241z"/>
	<path fill="#333333" d="M113.04,21.732c0-2.146,0.52-4.225,1.56-6.233c1.04-2.01,2.513-3.543,4.422-4.601
		c1.905-1.059,4.035-1.587,6.387-1.587c3.633,0,6.608,1.2,8.931,3.601c2.321,2.399,3.482,5.431,3.482,9.096
		c0,3.696-1.173,6.761-3.516,9.189c-2.346,2.433-5.296,3.646-8.853,3.646c-2.201,0-4.301-0.506-6.297-1.518
		c-1.999-1.013-3.517-2.496-4.557-4.45C113.559,26.919,113.04,24.539,113.04,21.732z M119.552,22.077
		c0,2.423,0.565,4.277,1.695,5.566c1.131,1.287,2.525,1.932,4.184,1.932c1.659,0,3.049-0.645,4.173-1.932
		c1.121-1.289,1.684-3.16,1.684-5.612c0-2.392-0.563-4.232-1.684-5.521c-1.124-1.289-2.514-1.932-4.173-1.932
		c-1.658,0-3.053,0.644-4.184,1.932C120.117,17.799,119.552,19.654,119.552,22.077z"/>
	<path fill="#333333" d="M146.395,34.292l-7.599-24.429h6.173l4.501,16.01l4.137-16.01h6.127l4.004,16.01l4.589-16.01h6.265
		l-7.712,24.429h-6.104l-4.139-15.711l-4.07,15.711H146.395z"/>
	<path fill="#333333" d="M190.963,26.518l6.331,1.079c-0.814,2.361-2.101,4.162-3.856,5.395c-1.756,1.236-3.953,1.853-6.59,1.853
		c-4.176,0-7.267-1.389-9.271-4.164c-1.582-2.224-2.375-5.03-2.375-8.419c0-4.048,1.042-7.218,3.121-9.512
		c2.081-2.29,4.712-3.438,7.892-3.438c3.572,0,6.392,1.2,8.457,3.601c2.065,2.399,3.052,6.075,2.962,11.028h-15.918
		c0.045,1.918,0.558,3.408,1.537,4.476c0.98,1.064,2.2,1.598,3.662,1.598c0.997,0,1.833-0.276,2.51-0.828
		C190.104,28.633,190.616,27.744,190.963,26.518z M191.325,19.983c-0.047-1.871-0.521-3.292-1.426-4.266
		c-0.904-0.974-2.004-1.461-3.301-1.461c-1.388,0-2.533,0.514-3.438,1.542c-0.904,1.027-1.349,2.422-1.333,4.186H191.325z"/>
	<path fill="#333333" d="M208.013,34.292h-6.354V9.863h5.9v3.473c1.011-1.641,1.919-2.721,2.726-3.243
		c0.807-0.521,1.723-0.782,2.747-0.782c1.448,0,2.842,0.406,4.183,1.219l-1.967,5.635c-1.069-0.705-2.065-1.058-2.983-1.058
		c-0.891,0-1.645,0.25-2.262,0.748c-0.618,0.499-1.105,1.399-1.46,2.703c-0.354,1.303-0.53,4.033-0.53,8.189V34.292z"/>
</g>
</svg>
